SplineFontDB: 3.0
FontName: KAN-KaveriBold
FullName: KAN Kaveri Bold
FamilyName: KAN Kaveri
Weight: Bold
Copyright: Copyright (c) 2009-2015, NLCI (http://www.nlci.in/fonts/)
Version: 1.0 Wed May 17 15:35:12 1995
ItalicAngle: 0
UnderlinePosition: -290
UnderlineWidth: 20
Ascent: 800
Descent: 200
InvalidEm: 0
LayerCount: 2
Layer: 0 0 "Back" 1
Layer: 1 0 "Fore" 0
XUID: [1021 983 496268599 8370529]
FSType: 0
OS2Version: 0
OS2_WeightWidthSlopeOnly: 0
OS2_UseTypoMetrics: 1
CreationTime: 1250825684
ModificationTime: 1533324724
PfmFamily: 81
TTFWeight: 700
TTFWidth: 5
LineGap: 0
VLineGap: 0
Panose: 2 0 0 3 0 0 0 0 0 0
OS2TypoAscent: -72
OS2TypoAOffset: 1
OS2TypoDescent: -196
OS2TypoDOffset: 1
OS2TypoLinegap: 0
OS2WinAscent: -229
OS2WinAOffset: 1
OS2WinDescent: -103
OS2WinDOffset: 1
HheadAscent: -229
HheadAOffset: 1
HheadDescent: 103
HheadDOffset: 1
OS2SubXSize: 700
OS2SubYSize: 650
OS2SubXOff: 0
OS2SubYOff: 143
OS2SupXSize: 700
OS2SupYSize: 650
OS2SupXOff: 0
OS2SupYOff: 453
OS2StrikeYSize: 50
OS2StrikeYPos: 259
OS2Vendor: 'Alts'
OS2UnicodeRanges: 00000000.00000000.00000000.00000000
Lookup: 262 0 0 "blwm" { "blwm-2sub"  } []
MarkAttachClasses: 1
DEI: 91125
TtTable: prep
NPUSHB
 1
 1
SCANTYPE
PUSHW_1
 511
SCANCTRL
EndTTInstrs
ShortTable: maxp 16
  1
  0
  319
  188
  5
  167
  6
  2
  8
  64
  10
  0
  3
  417
  4
  2
EndShort
LangName: 1033 "" "" "Bold" "NLCI:KAN Kaveri Bold" "" "1.0 Wed May 17 15:35:12 1995"
Encoding: Original
UnicodeInterp: none
NameList: Adobe Glyph List
DisplaySize: -48
AntiAlias: 1
FitToEm: 1
BeginPrivate: 0
EndPrivate
AnchorClass2: "Sub" "blwm-2sub" "Nukta"""  "s"""  "V""" 
BeginChars: 607 607

StartChar: .notdef
Encoding: 0 -1 0
Width: 500
Flags: HW
LayerCount: 2
Fore
SplineSet
31 0 m 1
 31 604 l 1
 469 604 l 1
 469 0 l 1
 31 0 l 1
438 31 m 1
 438 573 l 1
 62 573 l 1
 62 31 l 1
 438 31 l 1
EndSplineSet
EndChar

StartChar: exclam
Encoding: 4 33 4
Width: 272
VWidth: 500
Flags: HW
LayerCount: 2
Fore
SplineSet
75.5 4 m 0
 71.8330078125 7.3330078125 70 12.3330078125 70 19 c 0
 70 121 l 0
 70 135 76.6669921875 142 90 142 c 0
 176 142 l 0
 190.666992188 142 198 135 198 121 c 0
 198 19 l 0
 198 5.6669921875 190.666992188 -1 176 -1 c 0
 90 -1 l 0
 84 -1 79.1669921875 0.6669921875 75.5 4 c 0
61 739 m 0
 209 739 l 0
 189 203 l 0
 79 203 l 0
 61 739 l 0
EndSplineSet
EndChar

StartChar: quotedbl
Encoding: 5 34 5
Width: 400
VWidth: 500
Flags: HW
LayerCount: 2
Fore
SplineSet
281.5 427 m 0
 241.5 666.5 l 0
 241.5 685.5 246.083333333 701 255.25 713 c 0
 264.416666667 725 279.333333333 731 300 731 c 0
 321 731 336.333333333 725 346 713 c 0
 355.666666667 701 360.5 685.5 360.5 666.5 c 0
 319.5 427 l 0
 281.5 427 l 0
81 427 m 0
 41 666.5 l 0
 41 685.5 45.5833333333 701 54.75 713 c 0
 63.9166666667 725 78.8333333333 731 99.5 731 c 0
 120.166666667 731 135.166666667 725 144.5 713 c 0
 153.833333333 701 158.5 685.5 158.5 666.5 c 0
 119 427 l 0
 81 427 l 0
EndSplineSet
Refer: 10 39 N 1 0 0 1 182 0 2
Refer: 10 39 N 1 0 0 1 0 0 2
EndChar

StartChar: numbersign
Encoding: 6 35 6
Width: 723
VWidth: 500
Flags: HW
LayerCount: 2
Fore
SplineSet
404 306 m 0
 425 425 l 0
 306 425 l 0
 286 306 l 0
 404 306 l 0
167 207 m 0
 16 207 l 0
 31 306 l 0
 186 306 l 0
 206 425 l 0
 49 425 l 0
 65 524 l 0
 226 524 l 0
 264 732 l 0
 364 732 l 0
 326 524 l 0
 440 524 l 0
 477 732 l 0
 577 732 l 0
 540 524 l 0
 710 524 l 0
 695 425 l 0
 524 425 l 0
 504 306 l 0
 675 306 l 0
 661 207 l 0
 482 207 l 0
 444 0 l 0
 344 0 l 0
 382 207 l 0
 267 207 l 0
 229 0 l 0
 129 0 l 0
 167 207 l 0
EndSplineSet
EndChar

StartChar: dollar
Encoding: 7 36 7
Width: 609
VWidth: 500
Flags: HW
LayerCount: 2
Fore
SplineSet
493.5 385.5 m 0
 527.166992188 350.5 544 304.666992188 544 248 c 0
 544 206 l 0
 544 132 525.833007812 79.5 489.5 48.5 c 0
 453.166992188 17.5 400 -0.3330078125 330 -5 c 0
 330 -89 l 0
 246 -89 l 0
 246 -5 l 0
 171.333007812 -1.6669921875 107.666992188 6.3330078125 55 19 c 0
 55 136 l 0
 114.333007812 130 189.333007812 127 280 127 c 0
 320.666992188 127 351.333007812 132.5 372 143.5 c 0
 392.666992188 154.5 403 174 403 202 c 0
 403 229 l 0
 403 251 396.5 267.833007812 383.5 279.5 c 0
 370.5 291.166992188 352 297 328 297 c 0
 265 297 l 0
 191.666992188 297 136.833007812 313 100.5 345 c 0
 64.1669921875 377 46 429.333007812 46 502 c 0
 46 538 l 0
 46 603.333007812 63.1669921875 652.833007812 97.5 686.5 c 0
 131.833007812 720.166992188 182.666992188 739.666992188 250 745 c 0
 246 800 l 0
 325 824 l 0
 330 746 l 0
 327 745 l 0
 385 742.333007812 445.666992188 734.333007812 509 721 c 0
 509 604 l 0
 417.666992188 610 348.666992188 613 302 613 c 0
 264 613 235.333007812 607.166992188 216 595.5 c 0
 196.666992188 583.833007812 187 562.333007812 187 531 c 0
 187 511 l 0
 187 485.666992188 194.166992188 467.166992188 208.5 455.5 c 0
 222.833007812 443.833007812 244.666992188 438 274 438 c 0
 347 438 l 0
 411 438 459.833007812 420.5 493.5 385.5 c 0
EndSplineSet
EndChar

StartChar: percent
Encoding: 8 37 8
Width: 964
VWidth: 500
Flags: HW
LayerCount: 2
Fore
SplineSet
777 99 m 0
 799.666992188 99 815.333007812 103.5 824 112.5 c 0
 832.666992188 121.5 837 136.333007812 837 157 c 0
 837 232 l 0
 837 254 832.666992188 269.166992188 824 277.5 c 0
 815.333007812 285.833007812 800.333007812 290 779 290 c 0
 715 290 l 0
 694.333007812 290 679.333007812 286 670 278 c 0
 660.666992188 270 656 254.666992188 656 232 c 0
 656 157 l 0
 656 136.333007812 660.166992188 121.5 668.5 112.5 c 0
 676.833007812 103.5 691.666992188 99 713 99 c 0
 777 99 l 0
592 36 m 0
 571.333007812 58 561 91 561 135 c 0
 561 254 l 0
 561 298 571.333007812 331 592 353 c 0
 612.666992188 375 647.333007812 386 696 386 c 0
 798 386 l 0
 845.333007812 386 879.5 375 900.5 353 c 0
 921.5 331 932 298 932 254 c 0
 932 135 l 0
 932 91 921.5 58 900.5 36 c 0
 879.5 14 844.666992188 3 796 3 c 0
 694 3 l 0
 646.666992188 3 612.666992188 14 592 36 c 0
250 445 m 0
 272 445 287.333007812 449.5 296 458.5 c 0
 304.666992188 467.5 309 482.333007812 309 503 c 0
 309 578 l 0
 309 600 304.666992188 615.166992188 296 623.5 c 0
 287.333007812 631.833007812 272.666992188 636 252 636 c 0
 187 636 l 0
 167 636 152.333007812 632.166992188 143 624.5 c 0
 133.666992188 616.833007812 129 601.333007812 129 578 c 0
 129 503 l 0
 129 482.333007812 133 467.5 141 458.5 c 0
 149 449.5 163.666992188 445 185 445 c 0
 250 445 l 0
655 732 m 0
 751 732 l 0
 307 0 l 0
 205 0 l 0
 655 732 l 0
64.5 382 m 0
 43.5 404 33 437 33 481 c 0
 33 600 l 0
 33 644 43.5 677 64.5 699 c 0
 85.5 721 120.333007812 732 169 732 c 0
 270 732 l 0
 317.333007812 732 351.5 721 372.5 699 c 0
 393.5 677 404 644 404 600 c 0
 404 481 l 0
 404 437 393.5 404 372.5 382 c 0
 351.5 360 316.666992188 349 268 349 c 0
 167 349 l 0
 119.666992188 349 85.5 360 64.5 382 c 0
EndSplineSet
EndChar

StartChar: ampersand
Encoding: 9 38 9
Width: 698
VWidth: 500
Flags: HW
LayerCount: 2
Fore
SplineSet
296.5 138 m 0
 309.5 143.333007812 322.666992188 152.666992188 336 166 c 0
 361 191 l 0
 256 330 l 0
 219 296 l 0
 203 281.333007812 191.833007812 267.333007812 185.5 254 c 0
 179.166992188 240.666992188 176 226 176 210 c 0
 176 186 183.166992188 166.666992188 197.5 152 c 0
 211.833007812 137.333007812 231 130 255 130 c 0
 269.666992188 130 283.5 132.666992188 296.5 138 c 0
129 20 m 0
 99.6669921875 36.6669921875 76.6669921875 60 60 90 c 0
 43.3330078125 120 35 154.333007812 35 193 c 0
 35 229 42.6669921875 263 58 295 c 0
 73.3330078125 327 95.6669921875 355.333007812 125 380 c 0
 185 431 l 0
 172 451 l 0
 153.333007812 479.666992188 141 504.5 135 525.5 c 0
 129 546.5 126 568 126 590 c 0
 126 640.666992188 143.333007812 677.833007812 178 701.5 c 0
 212.666992188 725.166992188 258 737 314 737 c 0
 350.666992188 737 386.5 734.833007812 421.5 730.5 c 0
 456.5 726.166992188 485.333007812 720.666992188 508 714 c 0
 508 606 l 0
 342 606 l 0
 297.333007812 606 275 589.333007812 275 556 c 0
 275 544 278.666992188 530.666992188 286 516 c 0
 293.333007812 501.333007812 305.333007812 483 322 461 c 0
 460 271 l 0
 603 400 l 0
 657 333 l 0
 590 231 l 0
 533 176 l 0
 665 0 l 0
 512 0 l 0
 439 92 l 0
 402 60 l 0
 375.333007812 36.6669921875 348.5 20 321.5 10 c 0
 294.5 0 263.666992188 -5 229 -5 c 0
 191.666992188 -5 158.333007812 3.3330078125 129 20 c 0
EndSplineSet
EndChar

StartChar: quotesingle
Encoding: 10 39 10
Width: 218
VWidth: 500
Flags: HW
LayerCount: 2
Fore
SplineSet
34 687 m 0
 34 754 l 0
 176 754 l 0
 176 687 l 0
 168 497 l 0
 44 497 l 0
 34 687 l 0
EndSplineSet
EndChar

StartChar: parenleft
Encoding: 11 40 11
Width: 387
VWidth: 500
Flags: HW
LayerCount: 2
Fore
SplineSet
106.5 22.5 m 0
 74.1669921875 107.5 58 208.666992188 58 326 c 0
 58 437.333007812 74.6669921875 536.333007812 108 623 c 0
 141.333007812 709.666992188 185 788.666992188 239 860 c 0
 371 860 l 0
 320.333007812 776.666992188 280.166992188 692 250.5 606 c 0
 220.833007812 520 206 426.666992188 206 326 c 0
 206 224 219.666992188 132.333007812 247 51 c 0
 274.333007812 -30.3330078125 315.666992188 -117.333007812 371 -210 c 0
 239 -210 l 0
 183 -140 138.833007812 -62.5 106.5 22.5 c 0
EndSplineSet
EndChar

StartChar: parenright
Encoding: 12 41 12
Width: 386
VWidth: 500
Flags: HW
LayerCount: 2
Fore
SplineSet
136 45 m 0
 165.333007812 130.333007812 180 223.666992188 180 325 c 0
 180 427 166.5 518.666992188 139.5 600 c 0
 112.5 681.333007812 71 768 15 860 c 0
 148 860 l 0
 204.666992188 789.333007812 249 711.833007812 281 627.5 c 0
 313 543.166992188 329 442.333007812 329 325 c 0
 329 213 312.666992188 113.833007812 280 27.5 c 0
 247.333007812 -58.8330078125 203.333007812 -138 148 -210 c 0
 15 -210 l 0
 66.3330078125 -125.333007812 106.666992188 -40.3330078125 136 45 c 0
EndSplineSet
EndChar

StartChar: asterisk
Encoding: 13 42 13
Width: 432
VWidth: 500
Flags: HW
LayerCount: 2
Fore
SplineSet
193 469 m 0
 233 533 l 0
 349 445 l 0
 316 401 l 0
 193 469 l 0
95 416 m 0
 123 553 l 0
 196 534 l 0
 148 399 l 0
 95 416 l 0
39 573 m 0
 39 628 l 0
 179 643 l 0
 182 568 l 0
 39 573 l 0
244 566 m 0
 361 647 l 0
 393 603 l 0
 292 507 l 0
 244 566 l 0
170 722 m 0
 223 739 l 0
 285 614 l 0
 214 586 l 0
 170 722 l 0
EndSplineSet
EndChar

StartChar: plus
Encoding: 14 43 14
Width: 609
VWidth: 500
Flags: HW
LayerCount: 2
Fore
SplineSet
528 296 m 0
 364 296 l 0
 364 132 l 0
 244 132 l 0
 244 296 l 0
 80 296 l 0
 80 416 l 0
 244 416 l 0
 244 580 l 0
 364 580 l 0
 364 416 l 0
 528 416 l 0
 528 296 l 0
EndSplineSet
EndChar

StartChar: comma
Encoding: 15 44 15
Width: 234
VWidth: 500
Flags: HW
LayerCount: 2
Fore
SplineSet
75.5 -86.5 m 0
 66.5 -84.8330078125 60.6669921875 -83.6669921875 58 -83 c 0
 58 -36 l 0
 67.3330078125 -36 74.1669921875 -34.5 78.5 -31.5 c 0
 82.8330078125 -28.5 85 -23.3330078125 85 -16 c 0
 85 10 l 0
 75 10 l 0
 69 10 64 11.8330078125 60 15.5 c 0
 56 19.1669921875 54 24.6669921875 54 32 c 0
 54 119 l 0
 54 134.333007812 61 142 75 142 c 0
 159 142 l 0
 173 142 180 134.333007812 180 119 c 0
 180 -18 l 0
 180 -44.6669921875 172.833007812 -63.1669921875 158.5 -73.5 c 0
 144.166992188 -83.8330078125 126.333007812 -89 105 -89 c 0
 94.3330078125 -89 84.5 -88.1669921875 75.5 -86.5 c 0
EndSplineSet
EndChar

StartChar: hyphen
Encoding: 16 45 16
Width: 350
VWidth: 500
Flags: HW
LayerCount: 2
Fore
SplineSet
22 350 m 0
 328 350 l 0
 328 230 l 0
 22 230 l 0
 22 350 l 0
EndSplineSet
EndChar

StartChar: period
Encoding: 17 46 17
Width: 234
VWidth: 500
Flags: HW
LayerCount: 2
Fore
SplineSet
59.5 4 m 0
 55.8330078125 7.3330078125 54 12.3330078125 54 19 c 0
 54 121 l 0
 54 135 60.6669921875 142 74 142 c 0
 160 142 l 0
 174.666992188 142 182 135 182 121 c 0
 182 19 l 0
 182 5.6669921875 174.666992188 -1 160 -1 c 0
 74 -1 l 0
 68 -1 63.1669921875 0.6669921875 59.5 4 c 0
EndSplineSet
EndChar

StartChar: slash
Encoding: 18 47 18
Width: 462
VWidth: 500
Flags: HW
LayerCount: 2
Fore
SplineSet
296 770 m 0
 447 770 l 0
 166 -72 l 0
 15 -72 l 0
 296 770 l 0
EndSplineSet
EndChar

StartChar: zero
Encoding: 19 48 19
Width: 647
VWidth: 500
Flags: HW
LayerCount: 2
Fore
SplineSet
364 129 m 0
 417.333007812 129 444 155.666992188 444 209 c 0
 444 533 l 0
 444 586.333007812 419.333007812 613 370 613 c 0
 279 613 l 0
 254.333007812 613 235.5 606.166992188 222.5 592.5 c 0
 209.5 578.833007812 203 559 203 533 c 0
 203 210 l 0
 203 156 230 129 284 129 c 0
 364 129 l 0
105 45 m 0
 71.6669921875 77.6669921875 55 125 55 187 c 0
 55 547 l 0
 55 611 72.1669921875 660.166992188 106.5 694.5 c 0
 140.833007812 728.833007812 188.666992188 746 250 746 c 0
 404 746 l 0
 465.333007812 746 512 728.666992188 544 694 c 0
 576 659.333007812 592 610.333007812 592 547 c 0
 592 187 l 0
 592 125.666992188 575.5 78.5 542.5 45.5 c 0
 509.5 12.5 463.333007812 -4 404 -4 c 0
 249 -4 l 0
 186.333007812 -4 138.333007812 12.3330078125 105 45 c 0
EndSplineSet
EndChar

StartChar: one
Encoding: 20 49 20
Width: 372
VWidth: 500
Flags: HW
LayerCount: 2
Fore
SplineSet
162 605 m 0
 31 588 l 0
 31 683 l 0
 178 747 l 0
 310 747 l 0
 310 0 l 0
 162 0 l 0
 162 605 l 0
EndSplineSet
EndChar

StartChar: two
Encoding: 21 50 21
Width: 586
VWidth: 500
Flags: HW
LayerCount: 2
Fore
SplineSet
46 119 m 0
 293 364 l 0
 323.666992188 393.333007812 345.833007812 420 359.5 444 c 0
 373.166992188 468 380 493.333007812 380 520 c 0
 380 548 371.5 569.333007812 354.5 584 c 0
 337.5 598.666992188 309.666992188 606 271 606 c 0
 63 606 l 0
 63 722 l 0
 105.666992188 729.333007812 145.166992188 735.166992188 181.5 739.5 c 0
 217.833007812 743.833007812 257.333007812 746 300 746 c 0
 382.666992188 746 441.333007812 729.166992188 476 695.5 c 0
 510.666992188 661.833007812 528 611.333007812 528 544 c 0
 528 496 518.5 453.166992188 499.5 415.5 c 0
 480.5 377.833007812 450.333007812 339 409 299 c 0
 243 134 l 0
 551 134 l 0
 551 0 l 0
 46 0 l 0
 46 119 l 0
EndSplineSet
EndChar

StartChar: three
Encoding: 22 51 22
Width: 579
VWidth: 500
Flags: HW
LayerCount: 2
Fore
SplineSet
38 15 m 0
 38 134 l 0
 265 134 l 0
 307 134 337.166992188 139 355.5 149 c 0
 373.833007812 159 383 177 383 203 c 0
 383 234 l 0
 383 280.666992188 350.666992188 305.333007812 286 308 c 0
 104 315 l 0
 104 429 l 0
 280 439 l 0
 311.333007812 440.333007812 335 446 351 456 c 0
 367 466 375 481.666992188 375 503 c 0
 375 528 l 0
 375 554.666992188 366 574.333007812 348 587 c 0
 330 599.666992188 300.666992188 606 260 606 c 0
 54 606 l 0
 54 724 l 0
 155.333007812 740 243.666992188 747.333007812 319 746 c 0
 384.333007812 745.333007812 434.333007812 729.5 469 698.5 c 0
 503.666992188 667.5 521 622.333007812 521 563 c 0
 521 508 l 0
 521 471.333007812 512.666992188 441.833007812 496 419.5 c 0
 479.333007812 397.166992188 457 381.333007812 429 372 c 0
 458.333007812 363.333007812 482.833007812 345 502.5 317 c 0
 522.166992188 289 532 254.666992188 532 214 c 0
 532 176 l 0
 532 117.333007812 513.5 72.3330078125 476.5 41 c 0
 439.5 9.6669921875 387.666992188 -6 321 -6 c 0
 216.333007812 -6 122 1 38 15 c 0
EndSplineSet
EndChar

StartChar: four
Encoding: 23 52 23
Width: 619
VWidth: 500
Flags: HW
LayerCount: 2
Fore
SplineSet
375 157 m 0
 51 157 l 0
 23 227 l 0
 263 740 l 0
 414 740 l 0
 199 283 l 0
 375 283 l 0
 375 427 l 0
 404 512 l 0
 523 512 l 0
 523 283 l 0
 599 283 l 0
 599 181 l 0
 523 157 l 0
 523 1 l 0
 375 1 l 0
 375 157 l 0
EndSplineSet
EndChar

StartChar: five
Encoding: 24 53 24
Width: 607
VWidth: 500
Flags: HW
LayerCount: 2
Fore
SplineSet
59 11 m 0
 59 128 l 0
 320 128 l 0
 353.333007812 128 377.333007812 136 392 152 c 0
 406.666992188 168 414 188 414 212 c 0
 414 263 l 0
 414 313.666992188 388.666992188 339 338 339 c 0
 280 339 l 0
 258 339 241.5 334.5 230.5 325.5 c 0
 219.5 316.5 212.333007812 302.666992188 209 284 c 0
 69 284 l 0
 90 740 l 0
 534 740 l 0
 534 607 l 0
 217 607 l 0
 209 431 l 0
 219 441.666992188 232.833007812 449.833007812 250.5 455.5 c 0
 268.166992188 461.166992188 288 464 310 464 c 0
 391 464 l 0
 446.333007812 464 488.833007812 447.833007812 518.5 415.5 c 0
 548.166992188 383.166992188 563 341.333007812 563 290 c 0
 563 181 l 0
 563 117 542 70 500 40 c 0
 458 10 396 -5 314 -5 c 0
 249.333007812 -5 164.333007812 0.3330078125 59 11 c 0
EndSplineSet
EndChar

StartChar: six
Encoding: 25 54 25
Width: 607
VWidth: 500
Flags: HW
LayerCount: 2
Fore
SplineSet
346 128 m 0
 368.666992188 128 385.833007812 133.5 397.5 144.5 c 0
 409.166992188 155.5 415 173.666992188 415 199 c 0
 415 248 l 0
 415 276 408.166992188 295 394.5 305 c 0
 380.833007812 315 357.666992188 320 325 320 c 0
 199 320 l 0
 199 270 202.666992188 231.166992188 210 203.5 c 0
 217.333007812 175.833007812 228.333007812 156.333007812 243 145 c 0
 257.666992188 133.666992188 277.333007812 128 302 128 c 0
 346 128 l 0
148 27 m 0
 116 48.3330078125 91.8330078125 85.5 75.5 138.5 c 0
 59.1669921875 191.5 51 265.333007812 51 360 c 0
 51 499.333007812 74.3330078125 598.5 121 657.5 c 0
 167.666992188 716.5 237.333007812 746 330 746 c 0
 403.333007812 746 466.333007812 740.666992188 519 730 c 0
 519 613 l 0
 344 613 l 0
 294.666992188 613 258.166992188 597.666992188 234.5 567 c 0
 210.833007812 536.333007812 199 490.333007812 199 429 c 0
 239 440.333007812 294.666992188 446 366 446 c 0
 436.666992188 446 487.166992188 431.5 517.5 402.5 c 0
 547.833007812 373.5 563 331.333007812 563 276 c 0
 563 170 l 0
 563 110 546.666992188 65.8330078125 514 37.5 c 0
 481.333007812 9.1669921875 436.666992188 -5 380 -5 c 0
 272 -5 l 0
 221.333007812 -5 180 5.6669921875 148 27 c 0
EndSplineSet
EndChar

StartChar: seven
Encoding: 26 55 26
Width: 554
VWidth: 500
Flags: HW
LayerCount: 2
Fore
SplineSet
338 592 m 0
 23 592 l 0
 23 740 l 0
 490 740 l 0
 529 677 l 0
 284 0 l 0
 118 0 l 0
 338 592 l 0
EndSplineSet
EndChar

StartChar: eight
Encoding: 27 56 27
Width: 628
VWidth: 500
Flags: HW
LayerCount: 2
Fore
SplineSet
353 121 m 0
 379 121 397 126.166992188 407 136.5 c 0
 417 146.833007812 422 162.666992188 422 184 c 0
 422 250 l 0
 422 293.333007812 399 315 353 315 c 0
 278 315 l 0
 258.666992188 315 241.833007812 309.333007812 227.5 298 c 0
 213.166992188 286.666992188 206 270.666992188 206 250 c 0
 206 184 l 0
 206 162 212.166992188 146 224.5 136 c 0
 236.833007812 126 255 121 279 121 c 0
 353 121 l 0
351 441 m 0
 373.666992188 441 389.333007812 446.833007812 398 458.5 c 0
 406.666992188 470.166992188 411 487 411 509 c 0
 411 556 l 0
 411 580.666992188 406.166992188 597.5 396.5 606.5 c 0
 386.833007812 615.5 372.333007812 620 353 620 c 0
 279 620 l 0
 256.333007812 620 240.333007812 615.5 231 606.5 c 0
 221.666992188 597.5 217 580.666992188 217 556 c 0
 217 509 l 0
 217 484.333007812 221.666992188 466.833007812 231 456.5 c 0
 240.333007812 446.166992188 256 441 278 441 c 0
 351 441 l 0
111 31.5 m 0
 75.6669921875 55.1669921875 58 97 58 157 c 0
 58 258 l 0
 58 287.333007812 65.3330078125 313 80 335 c 0
 94.6669921875 357 114.666992188 371 140 377 c 0
 112 390.333007812 93.8330078125 407.333007812 85.5 428 c 0
 77.1669921875 448.666992188 73 475 73 507 c 0
 73 591 l 0
 73 644.333007812 89 683.5 121 708.5 c 0
 153 733.5 194.666992188 746 246 746 c 0
 386 746 l 0
 436.666992188 746 477.666992188 733.5 509 708.5 c 0
 540.333007812 683.5 556 644.333007812 556 591 c 0
 556 507 l 0
 556 483.666992188 550.666992188 459.333007812 540 434 c 0
 529.333007812 408.666992188 512.666992188 393.666992188 490 389 c 0
 520 382.333007812 540.833007812 366.5 552.5 341.5 c 0
 564.166992188 316.5 570 289.666992188 570 261 c 0
 570 157 l 0
 570 97 553.833007812 55.1669921875 521.5 31.5 c 0
 489.166992188 7.8330078125 444.666992188 -4 388 -4 c 0
 253 -4 l 0
 193.666992188 -4 146.333007812 7.8330078125 111 31.5 c 0
EndSplineSet
EndChar

StartChar: nine
Encoding: 28 57 28
Width: 607
VWidth: 500
Flags: HW
LayerCount: 2
Fore
SplineSet
410 421 m 0
 410 471 406.5 509.833007812 399.5 537.5 c 0
 392.5 565.166992188 381.666992188 584.5 367 595.5 c 0
 352.333007812 606.5 332.666992188 612 308 612 c 0
 263 612 l 0
 240.333007812 612 223.333007812 606.5 212 595.5 c 0
 200.666992188 584.5 195 566.333007812 195 541 c 0
 195 493 l 0
 195 465 201.833007812 446 215.5 436 c 0
 229.166992188 426 252.333007812 421 285 421 c 0
 410 421 l 0
91 11 m 0
 91 128 l 0
 265 128 l 0
 314.333007812 128 350.833007812 143.333007812 374.5 174 c 0
 398.166992188 204.666992188 410 250.666992188 410 312 c 0
 388.666992188 305.333007812 364.666992188 300.833007812 338 298.5 c 0
 311.333007812 296.166992188 279.666992188 295 243 295 c 0
 172.333007812 295 122 309.5 92 338.5 c 0
 62 367.5 47 409.666992188 47 465 c 0
 47 571 l 0
 47 631 63.1669921875 675 95.5 703 c 0
 127.833007812 731 172.666992188 745 230 745 c 0
 337 745 l 0
 387.666992188 745 429 734.5 461 713.5 c 0
 493 692.5 517.333007812 655.333007812 534 602 c 0
 550.666992188 548.666992188 559 474.666992188 559 380 c 0
 559 240.666992188 535.5 141.666992188 488.5 83 c 0
 441.5 24.3330078125 371.666992188 -5 279 -5 c 0
 205 -5 142.333007812 0.3330078125 91 11 c 0
EndSplineSet
EndChar

StartChar: colon
Encoding: 29 58 29
Width: 234
VWidth: 500
Flags: HW
LayerCount: 2
Fore
SplineSet
235.5 72.5 m 0
 235.5 60.8333333333 233.333333333 49.8333333333 229 39.5 c 0
 224.666666667 29.1666666667 218.666666667 20.1666666667 211 12.5 c 0
 203.333333333 4.83333333333 194.333333333 -1.25 184 -5.75 c 0
 173.666666667 -10.25 162.5 -12.5 150.5 -12.5 c 0
 138.833333333 -12.5 127.75 -10.25 117.25 -5.75 c 0
 106.75 -1.25 97.5833333333 4.83333333333 89.75 12.5 c 0
 81.9166666667 20.1666666667 75.75 29.1666666667 71.25 39.5 c 0
 66.75 49.8333333333 64.5 60.8333333333 64.5 72.5 c 0
 64.5 84.5 66.75 95.6666666667 71.25 106 c 0
 75.75 116.333333333 81.9166666667 125.416666667 89.75 133.25 c 0
 97.5833333333 141.083333333 106.75 147.25 117.25 151.75 c 0
 127.75 156.25 138.833333333 158.5 150.5 158.5 c 0
 162.5 158.5 173.666666667 156.25 184 151.75 c 0
 194.333333333 147.25 203.333333333 141.083333333 211 133.25 c 0
 218.666666667 125.416666667 224.666666667 116.333333333 229 106 c 0
 233.333333333 95.6666666667 235.5 84.5 235.5 72.5 c 0
235.5 426 m 0
 235.5 414 233.333333333 402.833333333 229 392.5 c 0
 224.666666667 382.166666667 218.666666667 373.166666667 211 365.5 c 0
 203.333333333 357.833333333 194.333333333 351.833333333 184 347.5 c 0
 173.666666667 343.166666667 162.5 341 150.5 341 c 0
 138.833333333 341 127.75 343.166666667 117.25 347.5 c 0
 106.75 351.833333333 97.5833333333 357.833333333 89.75 365.5 c 0
 81.9166666667 373.166666667 75.75 382.166666667 71.25 392.5 c 0
 66.75 402.833333333 64.5 414 64.5 426 c 0
 64.5 437.666666667 66.75 448.75 71.25 459.25 c 0
 75.75 469.75 81.9166666667 478.916666667 89.75 486.75 c 0
 97.5833333333 494.583333333 106.75 500.75 117.25 505.25 c 0
 127.75 509.75 138.833333333 512 150.5 512 c 0
 162.5 512 173.666666667 509.75 184 505.25 c 0
 194.333333333 500.75 203.333333333 494.583333333 211 486.75 c 0
 218.666666667 478.916666667 224.666666667 469.75 229 459.25 c 0
 233.333333333 448.75 235.5 437.666666667 235.5 426 c 0
EndSplineSet
Refer: 17 46 N 1 0 0 1 0 396 2
Refer: 17 46 N 1 0 0 1 0 0 2
EndChar

StartChar: semicolon
Encoding: 30 59 30
Width: 234
VWidth: 500
Flags: HW
LayerCount: 2
Fore
SplineSet
248 60.5 m 0
 248 39.1666666667 245 18.6666666667 239 -1 c 0
 233 -20.6666666667 224.916666667 -39.25 214.75 -56.75 c 0
 204.583333333 -74.25 192.583333333 -90.25 178.75 -104.75 c 0
 164.916666667 -119.25 150.166666667 -131.916666667 134.5 -142.75 c 0
 118.833333333 -153.583333333 102.583333333 -162.25 85.75 -168.75 c 0
 68.9166666667 -175.25 52.3333333333 -179 36 -180 c 0
 36 -130 l 0
 49 -128 62.9166666667 -124.25 77.75 -118.75 c 0
 92.5833333333 -113.25 106.166666667 -105.166666667 118.5 -94.5 c 0
 130.833333333 -83.8333333333 140.833333333 -70.25 148.5 -53.75 c 0
 156.166666667 -37.25 159.5 -17 158.5 7 c 0
 96.5 7 l 0
 90.1666666667 12 85 17.25 81 22.75 c 0
 77 28.25 73.75 33.8333333333 71.25 39.5 c 0
 68.75 45.1666666667 67 50.8333333333 66 56.5 c 0
 65 62.1666666667 64.5 67.5 64.5 72.5 c 0
 64.5 85.5 66.9166666667 97.25 71.75 107.75 c 0
 76.5833333333 118.25 83 127.25 91 134.75 c 0
 99 142.25 108.166666667 148.083333333 118.5 152.25 c 0
 128.833333333 156.416666667 139.5 158.5 150.5 158.5 c 0
 181.5 158.5 205.5 149.666666667 222.5 132 c 0
 239.5 114.333333333 248 90.5 248 60.5 c 0
235.5 426 m 0
 235.5 414 233.333333333 402.833333333 229 392.5 c 0
 224.666666667 382.166666667 218.666666667 373.166666667 211 365.5 c 0
 203.333333333 357.833333333 194.333333333 351.833333333 184 347.5 c 0
 173.666666667 343.166666667 162.5 341 150.5 341 c 0
 138.833333333 341 127.75 343.166666667 117.25 347.5 c 0
 106.75 351.833333333 97.5833333333 357.833333333 89.75 365.5 c 0
 81.9166666667 373.166666667 75.75 382.166666667 71.25 392.5 c 0
 66.75 402.833333333 64.5 414 64.5 426 c 0
 64.5 437.666666667 66.75 448.75 71.25 459.25 c 0
 75.75 469.75 81.9166666667 478.916666667 89.75 486.75 c 0
 97.5833333333 494.583333333 106.75 500.75 117.25 505.25 c 0
 127.75 509.75 138.833333333 512 150.5 512 c 0
 162.5 512 173.666666667 509.75 184 505.25 c 0
 194.333333333 500.75 203.333333333 494.583333333 211 486.75 c 0
 218.666666667 478.916666667 224.666666667 469.75 229 459.25 c 0
 233.333333333 448.75 235.5 437.666666667 235.5 426 c 0
EndSplineSet
Refer: 15 44 N 1 0 0 1 0 0 2
Refer: 17 46 N 1 0 0 1 0 396 2
EndChar

StartChar: less
Encoding: 31 60 31
Width: 609
VWidth: 500
Flags: HW
LayerCount: 2
Fore
SplineSet
96 285 m 0
 96 416 l 0
 511 547 l 0
 511 418 l 0
 240 352 l 0
 511 279 l 0
 511 149 l 0
 96 285 l 0
EndSplineSet
EndChar

StartChar: equal
Encoding: 32 61 32
Width: 609
VWidth: 500
Flags: HW
LayerCount: 2
Fore
SplineSet
205 368.5 m 0
 205 432 l 0
 819 432 l 0
 819 368.5 l 0
 205 368.5 l 0
205 182.5 m 0
 205 246 l 0
 819 246 l 0
 819 182.5 l 0
 205 182.5 l 0
EndSplineSet
Refer: 386 8722 N 1 0 0 1 0 120 2
Refer: 386 8722 N 1 0 0 1 0 -120 2
EndChar

StartChar: greater
Encoding: 33 62 33
Width: 609
VWidth: 500
Flags: HW
LayerCount: 2
Fore
SplineSet
98 279 m 0
 369 351 l 0
 98 418 l 0
 98 547 l 0
 513 416 l 0
 513 285 l 0
 98 149 l 0
 98 279 l 0
EndSplineSet
EndChar

StartChar: question
Encoding: 34 63 34
Width: 529
VWidth: 500
Flags: HW
LayerCount: 2
Fore
SplineSet
145.5 4 m 0
 141.833007812 7.3330078125 140 12.3330078125 140 19 c 0
 140 121 l 0
 140 135 146.666992188 142 160 142 c 0
 246 142 l 0
 260.666992188 142 268 135 268 121 c 0
 268 19 l 0
 268 5.6669921875 260.666992188 -1 246 -1 c 0
 160 -1 l 0
 154 -1 149.166992188 0.6669921875 145.5 4 c 0
148 401 m 0
 218 401 l 0
 254 401 280.5 406.833007812 297.5 418.5 c 0
 314.5 430.166992188 323 451 323 481 c 0
 323 513 l 0
 323 545.666992188 313.666992188 569.333007812 295 584 c 0
 276.333007812 598.666992188 248 606 210 606 c 0
 182.666992188 606 155.666992188 603.166992188 129 597.5 c 0
 102.333007812 591.833007812 73.6669921875 583.666992188 43 573 c 0
 43 682 l 0
 103 720 174.666992188 739 258 739 c 0
 326.666992188 739 379.333007812 720.666992188 416 684 c 0
 452.666992188 647.333007812 471 598.333007812 471 537 c 0
 471 478 l 0
 471 352 400.333007812 289 259 289 c 0
 259 203 l 0
 148 203 l 0
 148 401 l 0
EndSplineSet
EndChar

StartChar: at
Encoding: 35 64 35
Width: 882
VWidth: 500
Flags: HW
LayerCount: 2
Fore
SplineSet
471 136.5 m 0
 493 144.166992188 509.666992188 154.333007812 521 167 c 0
 521 248 l 0
 410 241 l 0
 391.333007812 239.666992188 377.333007812 236.166992188 368 230.5 c 0
 358.666992188 224.833007812 354 213 354 195 c 0
 354 174 l 0
 354 141.333007812 372.333007812 125 409 125 c 0
 428.333007812 125 449 128.833007812 471 136.5 c 0
112.5 -131.5 m 0
 71.5 -95.8330078125 51 -39.6669921875 51 37 c 0
 51 327 l 0
 51 386.333007812 67.6669921875 435.833007812 101 475.5 c 0
 134.333007812 515.166992188 190.666992188 535 270 535 c 0
 450 535 l 0
 485.333007812 535 516 531.166992188 542 523.5 c 0
 568 515.833007812 589.5 500.166992188 606.5 476.5 c 0
 623.5 452.833007812 632 418.333007812 632 373 c 0
 632 23 l 0
 542 23 l 0
 522 79 l 0
 521.333007812 78.3330078125 507.666992188 67.3330078125 481 46 c 0
 454.333007812 24.6669921875 414.666992188 14 362 14 c 0
 320.666992188 14 289 27.8330078125 267 55.5 c 0
 245 83.1669921875 234 115.666992188 234 153 c 0
 234 191 l 0
 234 235.666992188 247.166992188 269.333007812 273.5 292 c 0
 299.833007812 314.666992188 337 326 385 326 c 0
 521 326 l 0
 521 363 l 0
 521 385.666992188 515.5 401.333007812 504.5 410 c 0
 493.5 418.666992188 476.333007812 423 453 423 c 0
 270 423 l 0
 236.666992188 423 210.333007812 415.666992188 191 401 c 0
 171.666992188 386.333007812 162 359.333007812 162 320 c 0
 162 52 l 0
 162 7.3330078125 172.666992188 -24.5 194 -43.5 c 0
 215.333007812 -62.5 240.666992188 -72 270 -72 c 0
 589 -72 l 0
 631 -72 660.833007812 -61.5 678.5 -40.5 c 0
 696.166992188 -19.5 705 11.3330078125 705 52 c 0
 705 491 l 0
 705 531.666992188 694.666992188 563.666992188 674 587 c 0
 653.333007812 610.333007812 625 622 589 622 c 0
 189 622 l 0
 189 711 l 0
 215.666992188 716.333007812 259.333007812 721.5 320 726.5 c 0
 380.666992188 731.5 440.333007812 734 499 734 c 0
 589 734 l 0
 653 734 707 714.666992188 751 676 c 0
 795 637.333007812 817 575.666992188 817 491 c 0
 817 52 l 0
 817 -28.6669921875 798.5 -88.3330078125 761.5 -127 c 0
 724.5 -165.666992188 669.333007812 -185 596 -185 c 0
 270 -185 l 0
 206 -185 153.5 -167.166992188 112.5 -131.5 c 0
EndSplineSet
EndChar

StartChar: A
Encoding: 36 65 36
Width: 685
VWidth: 500
Flags: HW
LayerCount: 2
Fore
SplineSet
432 288 m 0
 341 613 l 0
 250 288 l 0
 432 288 l 0
249 740 m 0
 436 740 l 0
 668 0 l 0
 514 0 l 0
 467 155 l 0
 215 155 l 0
 169 0 l 0
 17 0 l 0
 249 740 l 0
EndSplineSet
EndChar

StartChar: B
Encoding: 37 66 37
Width: 627
VWidth: 500
Flags: HW
LayerCount: 2
Fore
SplineSet
364 133 m 0
 420.666992188 133 449 165.333007812 449 230 c 0
 449 258 441.166992188 280.166992188 425.5 296.5 c 0
 409.833007812 312.833007812 389.333007812 321 364 321 c 0
 212 321 l 0
 212 133 l 0
 364 133 l 0
356 435 m 0
 377.333007812 435 394.166992188 443 406.5 459 c 0
 418.833007812 475 425 496.333007812 425 523 c 0
 425 552.333007812 418.5 573.666992188 405.5 587 c 0
 392.5 600.333007812 375.333007812 607 354 607 c 0
 212 607 l 0
 212 435 l 0
 356 435 l 0
64 740 m 0
 355 740 l 0
 495.666992188 740 566 675.333007812 566 546 c 0
 566 502 557 466.166992188 539 438.5 c 0
 521 410.833007812 495.666992188 392.666992188 463 384 c 0
 499 375.333007812 529.166992188 356 553.5 326 c 0
 577.833007812 296 590 255.333007812 590 204 c 0
 590 130.666992188 571.5 78.3330078125 534.5 47 c 0
 497.5 15.6669921875 442 0 368 0 c 0
 64 0 l 0
 64 740 l 0
EndSplineSet
EndChar

StartChar: C
Encoding: 38 67 38
Width: 586
VWidth: 500
Flags: HW
LayerCount: 2
Fore
SplineSet
163 23.5 m 0
 125 43.1669921875 95.8330078125 80.5 75.5 135.5 c 0
 55.1669921875 190.5 45 269.333007812 45 372 c 0
 45 470.666992188 55.5 547.333007812 76.5 602 c 0
 97.5 656.666992188 127.333007812 694.5 166 715.5 c 0
 204.666992188 736.5 254.333007812 747 315 747 c 0
 360.333007812 747 403 743.5 443 736.5 c 0
 483 729.5 517.333007812 721.333007812 546 712 c 0
 546 597 l 0
 526 601.666992188 497.666992188 605.666992188 461 609 c 0
 424.333007812 612.333007812 386 614 346 614 c 0
 306 614 275.333007812 607.833007812 254 595.5 c 0
 232.666992188 583.166992188 217.166992188 559.833007812 207.5 525.5 c 0
 197.833007812 491.166992188 193 439.666992188 193 371 c 0
 193 303 197.333007812 252 206 218 c 0
 214.666992188 184 229.666992188 160.333007812 251 147 c 0
 272.333007812 133.666992188 304 127 346 127 c 0
 427.333007812 127 494 130.333007812 546 137 c 0
 546 23 l 0
 486.666992188 3.6669921875 409 -6 313 -6 c 0
 251 -6 201 3.8330078125 163 23.5 c 0
EndSplineSet
EndChar

StartChar: D
Encoding: 39 68 39
Width: 680
VWidth: 500
Flags: HW
LayerCount: 2
Fore
SplineSet
362 133 m 0
 406.666992188 133 438.666992188 152.5 458 191.5 c 0
 477.333007812 230.5 487 290 487 370 c 0
 487 432.666992188 482.5 481.166992188 473.5 515.5 c 0
 464.5 549.833007812 451 573.666992188 433 587 c 0
 415 600.333007812 391.333007812 607 362 607 c 0
 212 607 l 0
 212 133 l 0
 362 133 l 0
64 740 m 0
 377 740 l 0
 471.666992188 740 538.333007812 708 577 644 c 0
 615.666992188 580 635 488.666992188 635 370 c 0
 635 245.333007812 613.666992188 152.5 571 91.5 c 0
 528.333007812 30.5 463.666992188 0 377 0 c 0
 64 0 l 0
 64 740 l 0
EndSplineSet
EndChar

StartChar: E
Encoding: 40 69 40
Width: 597
VWidth: 500
Flags: HW
LayerCount: 2
Fore
SplineSet
118 27 m 0
 82 48.3330078125 64 92 64 158 c 0
 64 571 l 0
 64 631 80.5 674.166992188 113.5 700.5 c 0
 146.5 726.833007812 186.333007812 740 233 740 c 0
 335 740 441.666992188 735.666992188 553 727 c 0
 553 603 l 0
 277 603 l 0
 233.666992188 603 212 582.666992188 212 542 c 0
 212 435 l 0
 505 427 l 0
 505 310 l 0
 212 302 l 0
 212 200 l 0
 212 156 232.666992188 134 274 134 c 0
 553 134 l 0
 553 10 l 0
 464.333007812 0 361.333007812 -5 244 -5 c 0
 196 -5 154 5.6669921875 118 27 c 0
EndSplineSet
EndChar

StartChar: F
Encoding: 41 70 41
Width: 583
VWidth: 500
Flags: HW
LayerCount: 2
Fore
SplineSet
64 571 m 0
 64 631 80.5 674.166992188 113.5 700.5 c 0
 146.5 726.833007812 186.333007812 740 233 740 c 0
 365.666992188 740 472.333007812 735.666992188 553 727 c 0
 553 603 l 0
 274 603 l 0
 254 603 238.666992188 597.5 228 586.5 c 0
 217.333007812 575.5 212 561.333007812 212 544 c 0
 212 417 l 0
 505 409 l 0
 505 292 l 0
 212 284 l 0
 212 0 l 0
 64 0 l 0
 64 571 l 0
EndSplineSet
EndChar

StartChar: G
Encoding: 42 71 42
Width: 666
VWidth: 500
Flags: HW
LayerCount: 2
Fore
SplineSet
134 40 m 0
 100.666992188 70 77.5 112.166992188 64.5 166.5 c 0
 51.5 220.833007812 45 288.666992188 45 370 c 0
 45 455.333007812 52.5 525 67.5 579 c 0
 82.5 633 109.833007812 674.5 149.5 703.5 c 0
 189.166992188 732.5 245.333007812 747 318 747 c 0
 365.333007812 747 408 744.166992188 446 738.5 c 0
 484 732.833007812 524.666992188 724.666992188 568 714 c 0
 568 600 l 0
 542 603.333007812 508.833007812 606.5 468.5 609.5 c 0
 428.166992188 612.5 387 614 345 614 c 0
 302.333007812 614 270.333007812 606.5 249 591.5 c 0
 227.666992188 576.5 213 551.833007812 205 517.5 c 0
 197 483.166992188 193 433.666992188 193 369 c 0
 193 304.333007812 197 255.166992188 205 221.5 c 0
 213 187.833007812 226 164.333007812 244 151 c 0
 262 137.666992188 287.666992188 131 321 131 c 0
 346.333007812 131 371.333007812 133 396 137 c 0
 420.666992188 141 442 146 460 152 c 0
 460 296 l 0
 327 296 l 0
 327 413 l 0
 347 415.666992188 373.166992188 418 405.5 420 c 0
 437.833007812 422 468.666992188 423 498 423 c 0
 539.333007812 423 574 422 602 420 c 0
 602 0 l 0
 491 0 l 0
 471 50 l 0
 446.333007812 35.3330078125 416.5 22.5 381.5 11.5 c 0
 346.5 0.5 310 -5 272 -5 c 0
 213.333007812 -5 167.333007812 10 134 40 c 0
EndSplineSet
EndChar

StartChar: H
Encoding: 43 72 43
Width: 703
VWidth: 500
Flags: HW
LayerCount: 2
Fore
SplineSet
64 740 m 0
 212 740 l 0
 212 432 l 0
 491 432 l 0
 491 740 l 0
 640 740 l 0
 640 0 l 0
 491 0 l 0
 491 299 l 0
 212 299 l 0
 212 0 l 0
 64 0 l 0
 64 740 l 0
EndSplineSet
EndChar

StartChar: I
Encoding: 44 73 44
Width: 276
VWidth: 500
Flags: HW
LayerCount: 2
Fore
SplineSet
64 740 m 0
 212 740 l 0
 212 0 l 0
 64 0 l 0
 64 740 l 0
EndSplineSet
EndChar

StartChar: J
Encoding: 45 74 45
Width: 404
VWidth: 500
Flags: HW
LayerCount: 2
Fore
SplineSet
84 0 m 0
 62 4 42.6669921875 8.6669921875 26 14 c 0
 26 132 l 0
 72.6669921875 128.666992188 102 127 114 127 c 0
 140 127 159.5 133 172.5 145 c 0
 185.5 157 192 176.666992188 192 204 c 0
 192 740 l 0
 340 740 l 0
 340 182 l 0
 340 118 324.833007812 70.6669921875 294.5 40 c 0
 264.166992188 9.3330078125 215.333007812 -6 148 -6 c 0
 127.333007812 -6 106 -4 84 0 c 0
EndSplineSet
EndChar

StartChar: K
Encoding: 46 75 46
Width: 645
VWidth: 500
Flags: HW
LayerCount: 2
Fore
SplineSet
64 740 m 0
 212 740 l 0
 212 434 l 0
 310 434 l 0
 462 740 l 0
 620 740 l 0
 428 368 l 0
 626 0 l 0
 468 0 l 0
 310 300 l 0
 212 300 l 0
 212 0 l 0
 64 0 l 0
 64 740 l 0
EndSplineSet
EndChar

StartChar: L
Encoding: 47 76 47
Width: 535
VWidth: 500
Flags: HW
LayerCount: 2
Fore
SplineSet
107 41 m 0
 78.3330078125 68.3330078125 64 113 64 175 c 0
 64 740 l 0
 212 740 l 0
 212 199 l 0
 212 155.666992188 234 134 278 134 c 0
 512 134 l 0
 512 0 l 0
 239 0 l 0
 179.666992188 0 135.666992188 13.6669921875 107 41 c 0
EndSplineSet
EndChar

StartChar: M
Encoding: 48 77 48
Width: 883
VWidth: 500
Flags: HW
LayerCount: 2
Fore
SplineSet
696 0 m 0
 639 484 l 0
 510 0 l 0
 371 0 l 0
 242 478 l 0
 187 0 l 0
 44 0 l 0
 130 740 l 0
 272 740 l 0
 442 173 l 0
 611 740 l 0
 752 740 l 0
 839 0 l 0
 696 0 l 0
EndSplineSet
EndChar

StartChar: N
Encoding: 49 78 49
Width: 704
VWidth: 500
Flags: HW
LayerCount: 2
Fore
SplineSet
69 740 m 0
 188 740 l 0
 498 252 l 0
 498 740 l 0
 646 740 l 0
 646 0 l 0
 527 0 l 0
 218 488 l 0
 218 0 l 0
 69 0 l 0
 69 740 l 0
EndSplineSet
EndChar

StartChar: O
Encoding: 50 79 50
Width: 699
VWidth: 500
Flags: HW
LayerCount: 2
Fore
SplineSet
445.5 145.5 m 0
 467.166992188 157.833007812 482.666992188 181.166992188 492 215.5 c 0
 501.333007812 249.833007812 506 301 506 369 c 0
 506 439.666992188 501.333007812 492.166992188 492 526.5 c 0
 482.666992188 560.833007812 467.166992188 584 445.5 596 c 0
 423.833007812 608 392 614 350 614 c 0
 308.666992188 614 277.166992188 608 255.5 596 c 0
 233.833007812 584 218 560.666992188 208 526 c 0
 198 491.333007812 193 439 193 369 c 0
 193 300.333007812 197.666992188 249 207 215 c 0
 216.333007812 181 231.833007812 157.833007812 253.5 145.5 c 0
 275.166992188 133.166992188 307.333007812 127 350 127 c 0
 392 127 423.833007812 133.166992188 445.5 145.5 c 0
176 23 m 0
 132.666992188 42.3330078125 100 79 78 133 c 0
 56 187 45 265.666992188 45 369 c 0
 45 472.333007812 56.1669921875 551.166992188 78.5 605.5 c 0
 100.833007812 659.833007812 133.666992188 697 177 717 c 0
 220.333007812 737 278 747 350 747 c 0
 422.666992188 747 480.5 737 523.5 717 c 0
 566.5 697 599 659.833007812 621 605.5 c 0
 643 551.166992188 654 472.333007812 654 369 c 0
 654 265.666992188 643 187 621 133 c 0
 599 79 566.5 42.3330078125 523.5 23 c 0
 480.5 3.6669921875 422.666992188 -6 350 -6 c 0
 277.333007812 -6 219.333007812 3.6669921875 176 23 c 0
EndSplineSet
EndChar

StartChar: P
Encoding: 51 80 51
Width: 621
VWidth: 500
Flags: HW
LayerCount: 2
Fore
SplineSet
359 359 m 0
 385.666992188 359 405.833007812 369 419.5 389 c 0
 433.166992188 409 440 441 440 485 c 0
 440 566.333007812 414 607 362 607 c 0
 212 607 l 0
 212 359 l 0
 359 359 l 0
64 740 m 0
 376 740 l 0
 438 740 489 722.666992188 529 688 c 0
 569 653.333007812 589 586 589 486 c 0
 589 312.666992188 520 226 382 226 c 0
 360.666992188 226 333 227.833007812 299 231.5 c 0
 265 235.166992188 236 238.666992188 212 242 c 0
 212 0 l 0
 64 0 l 0
 64 740 l 0
EndSplineSet
EndChar

StartChar: Q
Encoding: 52 81 52
Width: 699
VWidth: 500
Flags: HW
LayerCount: 2
Fore
SplineSet
420.5 -179.5 m 0
 391.5 -167.833007812 367.5 -149.833007812 348.5 -125.5 c 0
 329.5 -101.166992188 319.333007812 -71.6669921875 318 -37 c 0
 420 -37 l 0
 424 -55 434.166992188 -68.5 450.5 -77.5 c 0
 466.833007812 -86.5 485.666992188 -91 507 -91 c 0
 519 -91 531.333007812 -89.5 544 -86.5 c 0
 556.666992188 -83.5 564.666992188 -81.6669921875 568 -81 c 0
 568 -190 l 0
 564.666992188 -190.666992188 557.166992188 -192 545.5 -194 c 0
 533.833007812 -196 523.333007812 -197 514 -197 c 0
 480.666992188 -197 449.5 -191.166992188 420.5 -179.5 c 0
445.5 145.5 m 0
 467.166992188 157.833007812 482.666992188 181.166992188 492 215.5 c 0
 501.333007812 249.833007812 506 301 506 369 c 0
 506 439.666992188 501.333007812 492.166992188 492 526.5 c 0
 482.666992188 560.833007812 467.166992188 584 445.5 596 c 0
 423.833007812 608 392 614 350 614 c 0
 308.666992188 614 277.166992188 608 255.5 596 c 0
 233.833007812 584 218 560.666992188 208 526 c 0
 198 491.333007812 193 439 193 369 c 0
 193 300.333007812 197.666992188 249 207 215 c 0
 216.333007812 181 231.833007812 157.833007812 253.5 145.5 c 0
 275.166992188 133.166992188 307.333007812 127 350 127 c 0
 392 127 423.833007812 133.166992188 445.5 145.5 c 0
176 23 m 0
 132.666992188 42.3330078125 100 79 78 133 c 0
 56 187 45 265.666992188 45 369 c 0
 45 472.333007812 56.1669921875 551.166992188 78.5 605.5 c 0
 100.833007812 659.833007812 133.666992188 697 177 717 c 0
 220.333007812 737 278 747 350 747 c 0
 422.666992188 747 480.5 737 523.5 717 c 0
 566.5 697 599 659.833007812 621 605.5 c 0
 643 551.166992188 654 472.333007812 654 369 c 0
 654 265.666992188 643 187 621 133 c 0
 599 79 566.5 42.3330078125 523.5 23 c 0
 480.5 3.6669921875 422.666992188 -6 350 -6 c 0
 277.333007812 -6 219.333007812 3.6669921875 176 23 c 0
EndSplineSet
EndChar

StartChar: R
Encoding: 53 82 53
Width: 627
VWidth: 500
Flags: HW
LayerCount: 2
Fore
SplineSet
344 393 m 0
 372.666992188 393 394.666992188 401.166992188 410 417.5 c 0
 425.333007812 433.833007812 433 462.333007812 433 503 c 0
 433 542.333007812 425.333007812 569.5 410 584.5 c 0
 394.666992188 599.5 372.666992188 607 344 607 c 0
 212 607 l 0
 212 393 l 0
 344 393 l 0
64 740 m 0
 370 740 l 0
 435.333007812 740 486.833007812 722.5 524.5 687.5 c 0
 562.166992188 652.5 581 591 581 503 c 0
 581 441 570.5 395 549.5 365 c 0
 528.5 335 500 312.333007812 464 297 c 0
 602 0 l 0
 451 0 l 0
 332 274 l 0
 300 274 260 274.666992188 212 276 c 0
 212 0 l 0
 64 0 l 0
 64 740 l 0
EndSplineSet
EndChar

StartChar: S
Encoding: 54 83 54
Width: 589
VWidth: 500
Flags: HW
LayerCount: 2
Fore
SplineSet
165 1 m 0
 121.666992188 5.6669921875 85 11.6669921875 55 19 c 0
 55 136 l 0
 114.333007812 130 189.333007812 127 280 127 c 0
 320.666992188 127 351.333007812 132.5 372 143.5 c 0
 392.666992188 154.5 403 174 403 202 c 0
 403 229 l 0
 403 251 396.5 267.833007812 383.5 279.5 c 0
 370.5 291.166992188 352 297 328 297 c 0
 265 297 l 0
 191.666992188 297 136.833007812 313 100.5 345 c 0
 64.1669921875 377 46 429.333007812 46 502 c 0
 46 538 l 0
 46 676.666992188 125.666992188 746 285 746 c 0
 322.333007812 746 361 743.5 401 738.5 c 0
 441 733.5 477 727.666992188 509 721 c 0
 509 604 l 0
 417.666992188 610 348.666992188 613 302 613 c 0
 264 613 235.333007812 607.166992188 216 595.5 c 0
 196.666992188 583.833007812 187 562.333007812 187 531 c 0
 187 511 l 0
 187 485.666992188 194.166992188 467.166992188 208.5 455.5 c 0
 222.833007812 443.833007812 244.666992188 438 274 438 c 0
 347 438 l 0
 411 438 459.833007812 420.5 493.5 385.5 c 0
 527.166992188 350.5 544 304.666992188 544 248 c 0
 544 206 l 0
 544 150 533.666992188 106.5 513 75.5 c 0
 492.333007812 44.5 463.333007812 23.1669921875 426 11.5 c 0
 388.666992188 -0.1669921875 342.333007812 -6 287 -6 c 0
 249 -6 208.333007812 -3.6669921875 165 1 c 0
EndSplineSet
EndChar

StartChar: T
Encoding: 55 84 55
Width: 587
VWidth: 500
Flags: HW
LayerCount: 2
Fore
SplineSet
219 607 m 0
 16 607 l 0
 16 740 l 0
 571 740 l 0
 571 607 l 0
 367 607 l 0
 367 0 l 0
 219 0 l 0
 219 607 l 0
EndSplineSet
EndChar

StartChar: U
Encoding: 56 85 56
Width: 686
VWidth: 500
Flags: HW
LayerCount: 2
Fore
SplineSet
129 47.5 m 0
 79 82.5 54 146 54 238 c 0
 54 740 l 0
 202 740 l 0
 202 239 l 0
 202 199.666992188 213.833007812 171.333007812 237.5 154 c 0
 261.166992188 136.666992188 296.333007812 128 343 128 c 0
 389.666992188 128 424.666992188 136.666992188 448 154 c 0
 471.333007812 171.333007812 483 199.666992188 483 239 c 0
 483 740 l 0
 632 740 l 0
 632 238 l 0
 632 146 606.833007812 82.5 556.5 47.5 c 0
 506.166992188 12.5 435 -5 343 -5 c 0
 250.333007812 -5 179 12.5 129 47.5 c 0
EndSplineSet
EndChar

StartChar: V
Encoding: 57 86 57
Width: 685
VWidth: 500
Flags: HW
LayerCount: 2
Fore
SplineSet
17 740 m 0
 170 740 l 0
 343 160 l 0
 516 740 l 0
 668 740 l 0
 436 0 l 0
 249 0 l 0
 17 740 l 0
EndSplineSet
EndChar

StartChar: W
Encoding: 58 87 58
Width: 991
VWidth: 500
Flags: HW
LayerCount: 2
Fore
SplineSet
17 740 m 0
 170 740 l 0
 289 218 l 0
 428 740 l 0
 564 740 l 0
 702 218 l 0
 821 740 l 0
 974 740 l 0
 797 0 l 0
 646 0 l 0
 496 522 l 0
 345 0 l 0
 194 0 l 0
 17 740 l 0
EndSplineSet
EndChar

StartChar: X
Encoding: 59 88 59
Width: 663
VWidth: 500
Flags: HW
LayerCount: 2
Fore
SplineSet
416 363 m 0
 643 0 l 0
 479 0 l 0
 325 246 l 0
 184 0 l 0
 20 0 l 0
 248 371 l 0
 17 740 l 0
 181 740 l 0
 339 487 l 0
 483 740 l 0
 646 740 l 0
 416 363 l 0
EndSplineSet
EndChar

StartChar: Y
Encoding: 60 89 60
Width: 628
VWidth: 500
Flags: HW
LayerCount: 2
Fore
SplineSet
240 224 m 0
 17 740 l 0
 171 740 l 0
 317 375 l 0
 462 740 l 0
 610 740 l 0
 388 224 l 0
 388 0 l 0
 240 0 l 0
 240 224 l 0
EndSplineSet
EndChar

StartChar: Z
Encoding: 61 90 61
Width: 574
VWidth: 500
Flags: HW
LayerCount: 2
Fore
SplineSet
38 119 m 0
 357 607 l 0
 38 607 l 0
 38 740 l 0
 538 740 l 0
 538 622 l 0
 219 133 l 0
 538 133 l 0
 538 0 l 0
 38 0 l 0
 38 119 l 0
EndSplineSet
EndChar

StartChar: bracketleft
Encoding: 62 91 62
Width: 339
VWidth: 500
Flags: HW
LayerCount: 2
Fore
SplineSet
104 -149 m 0
 78.6669921875 -108.333007812 66 -59 66 -1 c 0
 66 648 l 0
 66 777.333007812 126 842 246 842 c 0
 325 842 l 0
 325 723 l 0
 290 723 l 0
 265.333007812 723 246.5 715.5 233.5 700.5 c 0
 220.5 685.5 214 660.666992188 214 626 c 0
 214 6 l 0
 214 -58.6669921875 239.333007812 -91 290 -91 c 0
 325 -91 l 0
 325 -210 l 0
 246 -210 l 0
 176.666992188 -210 129.333007812 -189.666992188 104 -149 c 0
EndSplineSet
EndChar

StartChar: backslash
Encoding: 63 92 63
Width: 462
VWidth: 500
Flags: HW
LayerCount: 2
Fore
SplineSet
15 770 m 0
 166 770 l 0
 447 -72 l 0
 296 -72 l 0
 15 770 l 0
EndSplineSet
EndChar

StartChar: bracketright
Encoding: 64 93 64
Width: 339
VWidth: 500
Flags: HW
LayerCount: 2
Fore
SplineSet
15 -91 m 0
 51 -91 l 0
 101 -91 126 -58.6669921875 126 6 c 0
 126 626 l 0
 126 660.666992188 119.5 685.5 106.5 700.5 c 0
 93.5 715.5 75 723 51 723 c 0
 15 723 l 0
 15 842 l 0
 95 842 l 0
 214.333007812 842 274 777.333007812 274 648 c 0
 274 -1 l 0
 274 -140.333007812 214.333007812 -210 95 -210 c 0
 15 -210 l 0
 15 -91 l 0
EndSplineSet
EndChar

StartChar: asciicircum
Encoding: 65 94 65
Width: 386
VWidth: 500
Flags: HW
LayerCount: 2
Fore
SplineSet
147 668 m 0
 249 668 l 0
 347 531 l 0
 261 531 l 0
 195 599 l 0
 125 531 l 0
 39 531 l 0
 147 668 l 0
EndSplineSet
EndChar

StartChar: underscore
Encoding: 66 95 66
Width: 609
VWidth: 500
Flags: HW
LayerCount: 2
Fore
SplineSet
0 -73 m 0
 609 -73 l 0
 609 -192 l 0
 0 -192 l 0
 0 -73 l 0
EndSplineSet
EndChar

StartChar: grave
Encoding: 67 96 67
Width: 232
VWidth: 500
Flags: HW
LayerCount: 2
Fore
SplineSet
15 771 m 0
 135 771 l 0
 217 631 l 0
 130 631 l 0
 15 771 l 0
EndSplineSet
EndChar

StartChar: a
Encoding: 68 97 68
Width: 550
VWidth: 500
Flags: HW
LayerCount: 2
Fore
SplineSet
305 107.5 m 0
 327.666992188 114.5 342 119.666992188 348 123 c 0
 348 248 l 0
 258 242 l 0
 207.333007812 238 182 216 182 176 c 0
 182 154 l 0
 182 116 204 97 248 97 c 0
 263.333007812 97 282.333007812 100.5 305 107.5 c 0
71.5 30.5 m 0
 46.5 54.8330078125 34 88 34 130 c 0
 34 178 l 0
 34 220.666992188 48.8330078125 254.666992188 78.5 280 c 0
 108.166992188 305.333007812 152.333007812 318 211 318 c 0
 348 318 l 0
 348 355 l 0
 348 373 345 387.166992188 339 397.5 c 0
 333 407.833007812 321.666992188 415.5 305 420.5 c 0
 288.333007812 425.5 263.666992188 428 231 428 c 0
 70 428 l 0
 70 514 l 0
 136 534 207.666992188 544 285 544 c 0
 355.666992188 544 408.5 530.666992188 443.5 504 c 0
 478.5 477.333007812 496 431 496 365 c 0
 496 0 l 0
 379 0 l 0
 355 57 l 0
 347.666992188 49.6669921875 334.666992188 41 316 31 c 0
 297.333007812 21 275.166992188 12.3330078125 249.5 5 c 0
 223.833007812 -2.3330078125 197.666992188 -6 171 -6 c 0
 129.666992188 -6 96.5 6.1669921875 71.5 30.5 c 0
EndSplineSet
EndChar

StartChar: b
Encoding: 69 98 69
Width: 585
VWidth: 500
Flags: HW
LayerCount: 2
Fore
SplineSet
372.5 150 m 0
 388.166992188 173.333007812 396 213.333007812 396 270 c 0
 396 313.333007812 392 346.5 384 369.5 c 0
 376 392.5 365.5 407.666992188 352.5 415 c 0
 339.5 422.333007812 324 426 306 426 c 0
 273.333007812 426 239.666992188 416 205 396 c 0
 205 141 l 0
 237 123.666992188 270.666992188 115 306 115 c 0
 334.666992188 115 356.833007812 126.666992188 372.5 150 c 0
275.5 9 m 0
 251.166992188 19 227.666992188 33 205 51 c 0
 181 0 l 0
 57 0 l 0
 57 763 l 0
 205 763 l 0
 205 500 l 0
 228.333007812 512.666992188 253.333007812 523.333007812 280 532 c 0
 306.666992188 540.666992188 331.333007812 545 354 545 c 0
 400 545 436.833007812 535.5 464.5 516.5 c 0
 492.166992188 497.5 512.333007812 467.5 525 426.5 c 0
 537.666992188 385.5 544 331 544 263 c 0
 544 172.333007812 529 104.833007812 499 60.5 c 0
 469 16.1669921875 423 -6 361 -6 c 0
 328.333007812 -6 299.833007812 -1 275.5 9 c 0
EndSplineSet
EndChar

StartChar: c
Encoding: 70 99 70
Width: 490
VWidth: 500
Flags: HW
LayerCount: 2
Fore
SplineSet
100 55 m 0
 60.6669921875 95.6669921875 41 166 41 266 c 0
 41 337.333007812 49.6669921875 393.333007812 67 434 c 0
 84.3330078125 474.666992188 109.666992188 503.333007812 143 520 c 0
 176.333007812 536.666992188 218.666992188 545 270 545 c 0
 334.666992188 545 397 536.666992188 457 520 c 0
 457 435 l 0
 316 435 l 0
 284 435 259 430.333007812 241 421 c 0
 223 411.666992188 209.833007812 395 201.5 371 c 0
 193.166992188 347 189 312.333007812 189 267 c 0
 189 222.333007812 193.166992188 188.5 201.5 165.5 c 0
 209.833007812 142.5 223 126.833007812 241 118.5 c 0
 259 110.166992188 284.666992188 106 318 106 c 0
 465 106 l 0
 465 22 l 0
 439.666992188 14 408.666992188 7.3330078125 372 2 c 0
 335.333007812 -3.3330078125 300 -6 266 -6 c 0
 194.666992188 -6 139.333007812 14.3330078125 100 55 c 0
EndSplineSet
EndChar

StartChar: d
Encoding: 71 100 71
Width: 583
VWidth: 500
Flags: HW
LayerCount: 2
Fore
SplineSet
380 143 m 0
 380 413 l 0
 362.666992188 419.666992188 347.166992188 424.833007812 333.5 428.5 c 0
 319.833007812 432.166992188 305.666992188 434 291 434 c 0
 265 434 244.833007812 429.5 230.5 420.5 c 0
 216.166992188 411.5 205.666992188 395.166992188 199 371.5 c 0
 192.333007812 347.833007812 189 314 189 270 c 0
 189 228 192.166992188 195.833007812 198.5 173.5 c 0
 204.833007812 151.166992188 214.833007812 135.5 228.5 126.5 c 0
 242.166992188 117.5 261 113 285 113 c 0
 317 113 348.666992188 123 380 143 c 0
88.5 57 m 0
 56.8330078125 99 41 167.666992188 41 263 c 0
 41 331 47.1669921875 385.333007812 59.5 426 c 0
 71.8330078125 466.666992188 92.6669921875 496.666992188 122 516 c 0
 151.333007812 535.333007812 191.666992188 545 243 545 c 0
 287 545 332.666992188 536.666992188 380 520 c 0
 380 763 l 0
 529 763 l 0
 529 0 l 0
 404 0 l 0
 380 51 l 0
 361.333007812 35 338.666992188 21.5 312 10.5 c 0
 285.333007812 -0.5 259 -6 233 -6 c 0
 168.333007812 -6 120.166992188 15 88.5 57 c 0
EndSplineSet
EndChar

StartChar: e
Encoding: 72 101 72
Width: 537
VWidth: 500
Flags: HW
LayerCount: 2
Fore
SplineSet
308 304 m 0
 328.666992188 304 343.5 308.166992188 352.5 316.5 c 0
 361.5 324.833007812 366 339 366 359 c 0
 366 388.333007812 359.333007812 408.833007812 346 420.5 c 0
 332.666992188 432.166992188 310 438 278 438 c 0
 254.666992188 438 236.5 434.166992188 223.5 426.5 c 0
 210.5 418.833007812 201 405.333007812 195 386 c 0
 189 366.666992188 186 339.333007812 186 304 c 0
 308 304 l 0
140 19 m 0
 105.333007812 35 80.1669921875 62.6669921875 64.5 102 c 0
 48.8330078125 141.333007812 41 196.666992188 41 268 c 0
 41 341.333007812 48.3330078125 397.833007812 63 437.5 c 0
 77.6669921875 477.166992188 101.833007812 505 135.5 521 c 0
 169.166992188 537 216.666992188 545 278 545 c 0
 332.666992188 545 375.666992188 539.666992188 407 529 c 0
 438.333007812 518.333007812 461.166992188 499.666992188 475.5 473 c 0
 489.833007812 446.333007812 497 408.666992188 497 360 c 0
 497 308 482.166992188 271 452.5 249 c 0
 422.833007812 227 379.666992188 216 323 216 c 0
 188 216 l 0
 189.333007812 187.333007812 193.666992188 165.166992188 201 149.5 c 0
 208.333007812 133.833007812 221.333007812 122.5 240 115.5 c 0
 258.666992188 108.5 286 105 322 105 c 0
 479 105 l 0
 479 18 l 0
 443.666992188 10.6669921875 411.666992188 5 383 1 c 0
 354.333007812 -3 321 -5 283 -5 c 0
 222.333007812 -5 174.666992188 3 140 19 c 0
EndSplineSet
EndChar

StartChar: f
Encoding: 73 102 73
Width: 393
VWidth: 500
Flags: HW
LayerCount: 2
Fore
SplineSet
94 418 m 0
 18 418 l 0
 18 513 l 0
 94 537 l 0
 94 573 l 0
 94 641.666992188 108 691.5 136 722.5 c 0
 164 753.5 209.666992188 769 273 769 c 0
 311 769 348 764 384 754 c 0
 384 648 l 0
 302 648 l 0
 279.333007812 648 263.833007812 642.833007812 255.5 632.5 c 0
 247.166992188 622.166992188 243 605 243 581 c 0
 243 537 l 0
 379 537 l 0
 379 418 l 0
 243 418 l 0
 243 0 l 0
 94 0 l 0
 94 418 l 0
EndSplineSet
EndChar

StartChar: g
Encoding: 74 103 74
Width: 582
VWidth: 500
Flags: HW
LayerCount: 2
Fore
SplineSet
235 -13 m 0
 212.333007812 -13 194.166992188 -18.3330078125 180.5 -29 c 0
 166.833007812 -39.6669921875 160 -54.6669921875 160 -74 c 0
 160 -85 l 0
 160 -104.333007812 166.5 -119 179.5 -129 c 0
 192.5 -139 211.666992188 -144 237 -144 c 0
 339 -144 l 0
 364.333007812 -144 384.333007812 -139.166992188 399 -129.5 c 0
 413.666992188 -119.833007812 421 -105.333007812 421 -86 c 0
 421 -70 l 0
 421 -52 414.5 -38 401.5 -28 c 0
 388.5 -18 369 -13 343 -13 c 0
 235 -13 l 0
371 295 m 0
 382.333007812 307.666992188 388 326 388 350 c 0
 388 377.333007812 382 396.833007812 370 408.5 c 0
 358 420.166992188 339.666992188 426 315 426 c 0
 259 426 l 0
 233 426 213.833007812 420.333007812 201.5 409 c 0
 189.166992188 397.666992188 183 378.666992188 183 352 c 0
 183 326 188.833007812 306.833007812 200.5 294.5 c 0
 212.166992188 282.166992188 230 276 254 276 c 0
 311 276 l 0
 339.666992188 276 359.666992188 282.333007812 371 295 c 0
564 456 m 0
 482 441 l 0
 494 428.333007812 503.666992188 413.666992188 511 397 c 0
 518.333007812 380.333007812 522 357.666992188 522 329 c 0
 522 279 506.333007812 239.166992188 475 209.5 c 0
 443.666992188 179.833007812 394.666992188 165 328 165 c 0
 233 165 l 0
 192.333007812 165 172 152.666992188 172 128 c 0
 172 117.333007812 176.5 109.666992188 185.5 105 c 0
 194.5 100.333007812 205.666992188 98 219 98 c 0
 367 98 l 0
 431 98 479.333007812 85.1669921875 512 59.5 c 0
 544.666992188 33.8330078125 561 -7 561 -63 c 0
 561 -78 l 0
 561 -132 544 -173.833007812 510 -203.5 c 0
 476 -233.166992188 425 -248 357 -248 c 0
 196 -248 l 0
 144 -248 101.666992188 -236.666992188 69 -214 c 0
 36.3330078125 -191.333007812 20 -159.666992188 20 -119 c 0
 20 -103 l 0
 20 -76.3330078125 27.3330078125 -53 42 -33 c 0
 56.6669921875 -13 76.3330078125 2.6669921875 101 14 c 0
 65 35.3330078125 47 65 47 103 c 0
 47 129.666992188 54.8330078125 152.166992188 70.5 170.5 c 0
 86.1669921875 188.833007812 108 201.333007812 136 208 c 0
 106 224 84.1669921875 245.333007812 70.5 272 c 0
 56.8330078125 298.666992188 50 328.666992188 50 362 c 0
 50 421.333007812 68.3330078125 465.333007812 105 494 c 0
 141.666992188 522.666992188 197.666992188 537 273 537 c 0
 564 537 l 0
 564 456 l 0
EndSplineSet
EndChar

StartChar: h
Encoding: 75 104 75
Width: 595
VWidth: 500
Flags: HW
LayerCount: 2
Fore
SplineSet
57 762 m 0
 205 762 l 0
 205 482 l 0
 225 499.333007812 250.833007812 514.333007812 282.5 527 c 0
 314.166992188 539.666992188 345.333007812 546 376 546 c 0
 486 546 541 482.333007812 541 355 c 0
 541 0 l 0
 393 0 l 0
 393 336 l 0
 393 360.666992188 386 379.666992188 372 393 c 0
 358 406.333007812 339.333007812 413 316 413 c 0
 279.333007812 413 242.333007812 399.666992188 205 373 c 0
 205 0 l 0
 57 0 l 0
 57 762 l 0
EndSplineSet
EndChar

StartChar: i
Encoding: 76 105 76
Width: 262
VWidth: 500
Flags: HW
LayerCount: 2
Fore
SplineSet
57 537 m 0
 205 537 l 0
 205 0 l 0
 57 0 l 0
 57 537 l 0
59.5 621.5 m 0
 55.8330078125 625.166992188 54 630 54 636 c 0
 54 734 l 0
 54 748 61 755 75 755 c 0
 189 755 l 0
 195 755 199.666992188 753 203 749 c 0
 206.333007812 745 208 740 208 734 c 0
 208 636 l 0
 208 622.666992188 201.666992188 616 189 616 c 0
 75 616 l 0
 68.3330078125 616 63.1669921875 617.833007812 59.5 621.5 c 0
EndSplineSet
EndChar

StartChar: j
Encoding: 77 106 77
Width: 262
VWidth: 500
Flags: HW
LayerCount: 2
Fore
SplineSet
57 537 m 0
 205 537 l 0
 205 4 l 0
 205 -38 201.666992188 -81 195 -125 c 0
 188.333007812 -169 179.666992188 -206.333007812 169 -237 c 0
 57 -237 l 0
 57 537 l 0
59 621.5 m 0
 55 625.166992188 53 630 53 636 c 0
 53 734 l 0
 53 748 60 755 74 755 c 0
 188 755 l 0
 194 755 198.666992188 753 202 749 c 0
 205.333007812 745 207 740 207 734 c 0
 207 636 l 0
 207 622.666992188 200.666992188 616 188 616 c 0
 74 616 l 0
 68 616 63 617.833007812 59 621.5 c 0
EndSplineSet
EndChar

StartChar: k
Encoding: 78 107 78
Width: 554
VWidth: 500
Flags: HW
LayerCount: 2
Fore
SplineSet
57 763 m 0
 205 763 l 0
 205 351 l 0
 268 351 l 0
 386 537 l 0
 536 537 l 0
 378 284 l 0
 552 0 l 0
 402 0 l 0
 266 218 l 0
 205 218 l 0
 205 0 l 0
 57 0 l 0
 57 763 l 0
EndSplineSet
EndChar

StartChar: l
Encoding: 79 108 79
Width: 313
VWidth: 500
Flags: HW
LayerCount: 2
Fore
SplineSet
98.5 40.5 m 0
 70.8330078125 68.8330078125 57 113 57 173 c 0
 57 763 l 0
 205 763 l 0
 205 195 l 0
 205 166.333007812 209.333007812 145.833007812 218 133.5 c 0
 226.666992188 121.166992188 241 113.666992188 261 111 c 0
 302 105 l 0
 302 -2 l 0
 225 -2 l 0
 168.333007812 -2 126.166992188 12.1669921875 98.5 40.5 c 0
EndSplineSet
EndChar

StartChar: m
Encoding: 80 109 80
Width: 931
VWidth: 500
Flags: HW
LayerCount: 2
Fore
SplineSet
57 537 m 0
 179 537 l 0
 205 482 l 0
 232.333007812 502.666992188 259.666992188 518.5 287 529.5 c 0
 314.333007812 540.5 346.666992188 546 384 546 c 0
 416.666992188 546 444.333007812 539.166992188 467 525.5 c 0
 489.666992188 511.833007812 507 493.333007812 519 470 c 0
 546.333007812 490.666992188 576.666992188 508.5 610 523.5 c 0
 643.333007812 538.5 675.666992188 546 707 546 c 0
 768.333007812 546 812 529 838 495 c 0
 864 461 877 412 877 348 c 0
 877 0 l 0
 729 0 l 0
 729 335 l 0
 729 360.333007812 722.166992188 379.666992188 708.5 393 c 0
 694.833007812 406.333007812 676 413 652 413 c 0
 632.666992188 413 612.833007812 409 592.5 401 c 0
 572.166992188 393 553.666992188 383 537 371 c 0
 539.666992188 353.666992188 541 340.666992188 541 332 c 0
 541 0 l 0
 393 0 l 0
 393 335 l 0
 393 360.333007812 386.166992188 379.666992188 372.5 393 c 0
 358.833007812 406.333007812 340 413 316 413 c 0
 279.333007812 413 242.333007812 399.666992188 205 373 c 0
 205 0 l 0
 57 0 l 0
 57 537 l 0
EndSplineSet
EndChar

StartChar: n
Encoding: 81 110 81
Width: 595
VWidth: 500
Flags: HW
LayerCount: 2
Fore
SplineSet
57 537 m 0
 179 537 l 0
 205 482 l 0
 227 500 253.333007812 515.166992188 284 527.5 c 0
 314.666992188 539.833007812 344.666992188 546 374 546 c 0
 434.666992188 546 477.666992188 528.666992188 503 494 c 0
 528.333007812 459.333007812 541 412.666992188 541 354 c 0
 541 0 l 0
 393 0 l 0
 393 335 l 0
 393 360.333007812 386.166992188 379.666992188 372.5 393 c 0
 358.833007812 406.333007812 340 413 316 413 c 0
 279.333007812 413 242.333007812 399.666992188 205 373 c 0
 205 0 l 0
 57 0 l 0
 57 537 l 0
EndSplineSet
EndChar

StartChar: o
Encoding: 82 111 82
Width: 575
VWidth: 500
Flags: HW
LayerCount: 2
Fore
SplineSet
346 123.5 m 0
 359.333007812 130.5 369.333007812 145.166992188 376 167.5 c 0
 382.666992188 189.833007812 386 224 386 270 c 0
 386 316 382.666992188 350.166992188 376 372.5 c 0
 369.333007812 394.833007812 359.333007812 409.5 346 416.5 c 0
 332.666992188 423.5 313 427 287 427 c 0
 261.666992188 427 242.333007812 423.5 229 416.5 c 0
 215.666992188 409.5 205.666992188 394.833007812 199 372.5 c 0
 192.333007812 350.166992188 189 316 189 270 c 0
 189 224 192.333007812 189.833007812 199 167.5 c 0
 205.666992188 145.166992188 215.666992188 130.5 229 123.5 c 0
 242.333007812 116.5 261.666992188 113 287 113 c 0
 313 113 332.666992188 116.5 346 123.5 c 0
143 20.5 m 0
 107.666992188 37.5 81.8330078125 65.8330078125 65.5 105.5 c 0
 49.1669921875 145.166992188 41 200 41 270 c 0
 41 342.666992188 49.1669921875 398.833007812 65.5 438.5 c 0
 81.8330078125 478.166992188 107.666992188 505.833007812 143 521.5 c 0
 178.333007812 537.166992188 226.333007812 545 287 545 c 0
 348.333007812 545 396.666992188 536.833007812 432 520.5 c 0
 467.333007812 504.166992188 493.166992188 476.166992188 509.5 436.5 c 0
 525.833007812 396.833007812 534 341.333007812 534 270 c 0
 534 198.666992188 526 143.166992188 510 103.5 c 0
 494 63.8330078125 468.333007812 35.8330078125 433 19.5 c 0
 397.666992188 3.1669921875 349 -5 287 -5 c 0
 226.333007812 -5 178.333007812 3.5 143 20.5 c 0
EndSplineSet
EndChar

StartChar: p
Encoding: 83 112 83
Width: 585
VWidth: 500
Flags: HW
LayerCount: 2
Fore
SplineSet
371.5 148.5 m 0
 387.833007812 170.833007812 396 210.666992188 396 268 c 0
 396 325.333007812 388 366 372 390 c 0
 356 414 334 426 306 426 c 0
 272.666992188 426 239 416 205 396 c 0
 205 141 l 0
 217.666992188 133 233.166992188 126.666992188 251.5 122 c 0
 269.833007812 117.333007812 288 115 306 115 c 0
 333.333007812 115 355.166992188 126.166992188 371.5 148.5 c 0
57 537 m 0
 181 537 l 0
 205 486 l 0
 255 525.333007812 304.666992188 545 354 545 c 0
 418.666992188 545 466.5 521 497.5 473 c 0
 528.5 425 544 356.666992188 544 268 c 0
 544 176 529.833007812 107.166992188 501.5 61.5 c 0
 473.166992188 15.8330078125 424 -7 354 -7 c 0
 328.666992188 -7 302.833007812 -4 276.5 2 c 0
 250.166992188 8 226.333007812 16.6669921875 205 28 c 0
 205 -237 l 0
 57 -237 l 0
 57 537 l 0
EndSplineSet
EndChar

StartChar: q
Encoding: 84 113 84
Width: 583
VWidth: 500
Flags: HW
LayerCount: 2
Fore
SplineSet
331.5 122 m 0
 350.5 128 366.666992188 135 380 143 c 0
 380 434 l 0
 291 434 l 0
 253.666992188 434 227.333007812 421.333007812 212 396 c 0
 196.666992188 370.666992188 189 329.666992188 189 273 c 0
 189 230.333007812 192 197.5 198 174.5 c 0
 204 151.5 213.5 135.5 226.5 126.5 c 0
 239.5 117.5 257.333007812 113 280 113 c 0
 295.333007812 113 312.5 116 331.5 122 c 0
380 51 m 0
 360 34.3330078125 337 20.6669921875 311 10 c 0
 285 -0.6669921875 260.333007812 -6 237 -6 c 0
 188.333007812 -6 149.666992188 3.6669921875 121 23 c 0
 92.3330078125 42.3330078125 71.8330078125 71.8330078125 59.5 111.5 c 0
 47.1669921875 151.166992188 41 203.333007812 41 268 c 0
 41 336 48.3330078125 390.333007812 63 431 c 0
 77.6669921875 471.666992188 99.8330078125 500.833007812 129.5 518.5 c 0
 159.166992188 536.166992188 198 545 246 545 c 0
 290.666992188 545 339 542.833007812 391 538.5 c 0
 443 534.166992188 489 529.333007812 529 524 c 0
 529 -237 l 0
 380 -237 l 0
 380 51 l 0
EndSplineSet
EndChar

StartChar: r
Encoding: 85 114 85
Width: 423
VWidth: 500
Flags: HW
LayerCount: 2
Fore
SplineSet
57 537 m 0
 171 537 l 0
 205 455 l 0
 226.333007812 483 249.166992188 504.833007812 273.5 520.5 c 0
 297.833007812 536.166992188 325.666992188 544 357 544 c 0
 374.333007812 544 389 542.333007812 401 539 c 0
 401 387 l 0
 366.333007812 390.333007812 345.333007812 392 338 392 c 0
 309.333007812 392 284.666992188 387.333007812 264 378 c 0
 243.333007812 368.666992188 223.666992188 354 205 334 c 0
 205 0 l 0
 57 0 l 0
 57 537 l 0
EndSplineSet
EndChar

StartChar: s
Encoding: 86 115 86
Width: 505
VWidth: 500
Flags: HW
LayerCount: 2
Fore
SplineSet
136.5 0.5 m 0
 96.1669921875 4.8330078125 65.3330078125 10.6669921875 44 18 c 0
 44 105 l 0
 282 105 l 0
 304 105 319.666992188 108 329 114 c 0
 338.333007812 120 343 131.666992188 343 149 c 0
 343 166 l 0
 343 180 338.5 190.5 329.5 197.5 c 0
 320.5 204.5 304.666992188 208 282 208 c 0
 198 208 l 0
 148 208 108.333007812 219.5 79 242.5 c 0
 49.6669921875 265.5 35 302.666992188 35 354 c 0
 35 385 l 0
 35 438.333007812 51.1669921875 477.833007812 83.5 503.5 c 0
 115.833007812 529.166992188 171.666992188 542 251 542 c 0
 283.666992188 542 319.333007812 539.5 358 534.5 c 0
 396.666992188 529.5 426 523.666992188 446 517 c 0
 446 430 l 0
 221 430 l 0
 200.333007812 430 185.333007812 426.666992188 176 420 c 0
 166.666992188 413.333007812 162 401.666992188 162 385 c 0
 162 369 l 0
 162 352.333007812 167 341.166992188 177 335.5 c 0
 187 329.833007812 203.666992188 327 227 327 c 0
 313 327 l 0
 366.333007812 327 405.833007812 314.833007812 431.5 290.5 c 0
 457.166992188 266.166992188 470 231.333007812 470 186 c 0
 470 138 l 0
 470 85.3330078125 452 48.1669921875 416 26.5 c 0
 380 4.8330078125 325.333007812 -6 252 -6 c 0
 215.333007812 -6 176.833007812 -3.8330078125 136.5 0.5 c 0
EndSplineSet
EndChar

StartChar: t
Encoding: 87 116 87
Width: 389
VWidth: 500
Flags: HW
LayerCount: 2
Fore
SplineSet
160 18 m 0
 134.666992188 30 116.333007812 50 105 78 c 0
 93.6669921875 106 88.6669921875 143.666992188 90 191 c 0
 95 418 l 0
 11 418 l 0
 11 513 l 0
 100 537 l 0
 120 687 l 0
 237 687 l 0
 237 537 l 0
 363 537 l 0
 363 418 l 0
 237 418 l 0
 237 192 l 0
 237 165.333007812 241.666992188 146.666992188 251 136 c 0
 260.333007812 125.333007812 273.333007812 118.666992188 290 116 c 0
 358 110 l 0
 358 0 l 0
 261 0 l 0
 219 0 185.333007812 6 160 18 c 0
EndSplineSet
EndChar

StartChar: u
Encoding: 88 117 88
Width: 595
VWidth: 500
Flags: HW
LayerCount: 2
Fore
SplineSet
95.5 37 m 0
 68.5 65.6669921875 55 105.666992188 55 157 c 0
 55 537 l 0
 203 537 l 0
 203 201 l 0
 203 172.333007812 209.5 152.5 222.5 141.5 c 0
 235.5 130.5 255 125 281 125 c 0
 299.666992188 125 318.833007812 128.5 338.5 135.5 c 0
 358.166992188 142.5 375.666992188 152 391 164 c 0
 391 537 l 0
 540 537 l 0
 540 0 l 0
 417 0 l 0
 391 55 l 0
 329 14.3330078125 268.333007812 -6 209 -6 c 0
 160.333007812 -6 122.5 8.3330078125 95.5 37 c 0
EndSplineSet
EndChar

StartChar: v
Encoding: 89 118 89
Width: 564
VWidth: 500
Flags: HW
LayerCount: 2
Fore
SplineSet
12 537 m 0
 165 537 l 0
 281 137 l 0
 400 537 l 0
 551 537 l 0
 363 0 l 0
 192 0 l 0
 12 537 l 0
EndSplineSet
EndChar

StartChar: w
Encoding: 90 119 90
Width: 826
VWidth: 500
Flags: HW
LayerCount: 2
Fore
SplineSet
12 537 m 0
 165 537 l 0
 250 137 l 0
 356 537 l 0
 478 537 l 0
 584 137 l 0
 661 537 l 0
 814 537 l 0
 674 0 l 0
 510 0 l 0
 414 327 l 0
 315 0 l 0
 154 0 l 0
 12 537 l 0
EndSplineSet
EndChar

StartChar: x
Encoding: 91 120 91
Width: 541
VWidth: 500
Flags: HW
LayerCount: 2
Fore
SplineSet
351 260 m 0
 533 0 l 0
 383 0 l 0
 265 169 l 0
 159 0 l 0
 9 0 l 0
 191 276 l 0
 9 537 l 0
 158 537 l 0
 277 367 l 0
 383 537 l 0
 533 537 l 0
 351 260 l 0
EndSplineSet
EndChar

StartChar: y
Encoding: 92 121 92
Width: 569
VWidth: 500
Flags: HW
LayerCount: 2
Fore
SplineSet
283 0 m 0
 194.333007812 0 137.666992188 48 113 144 c 0
 12 537 l 0
 166 537 l 0
 251 174 l 0
 256.333007812 152 264.333007812 138 275 132 c 0
 285.666992188 126 297 122.333007812 309 121 c 0
 406 537 l 0
 556 537 l 0
 396 -138 l 0
 348 -237 l 0
 225 -237 l 0
 283 0 l 0
EndSplineSet
EndChar

StartChar: z
Encoding: 93 122 93
Width: 505
VWidth: 500
Flags: HW
LayerCount: 2
Fore
SplineSet
45 107 m 0
 298 418 l 0
 35 418 l 0
 35 537 l 0
 470 537 l 0
 470 430 l 0
 216 119 l 0
 470 119 l 0
 470 0 l 0
 45 0 l 0
 45 107 l 0
EndSplineSet
EndChar

StartChar: braceleft
Encoding: 94 123 94
Width: 317
VWidth: 500
Flags: HW
LayerCount: 2
Fore
SplineSet
131 -168 m 0
 98.3330078125 -140 82 -96.6669921875 82 -38 c 0
 82 207 l 0
 82 225.666992188 75.8330078125 240.333007812 63.5 251 c 0
 51.1669921875 261.666992188 35 266.333007812 15 265 c 0
 15 402 l 0
 60.3330078125 406 83 425.333007812 83 460 c 0
 83 656 l 0
 83 780 156 842 302 842 c 0
 302 723 l 0
 283.333007812 723 269.166992188 719.333007812 259.5 712 c 0
 249.833007812 704.666992188 242.833007812 692.166992188 238.5 674.5 c 0
 234.166992188 656.833007812 232 631.333007812 232 598 c 0
 232 435 l 0
 232 373 199 339.333007812 133 334 c 0
 163 328.666992188 186.833007812 317.5 204.5 300.5 c 0
 222.166992188 283.5 231 262 231 236 c 0
 231 13 l 0
 231 -27.6669921875 235.833007812 -56.5 245.5 -73.5 c 0
 255.166992188 -90.5 274 -99 302 -99 c 0
 302 -210 l 0
 220.666992188 -210 163.666992188 -196 131 -168 c 0
EndSplineSet
EndChar

StartChar: bar
Encoding: 95 124 95
Width: 251
VWidth: 500
Flags: HW
LayerCount: 2
Fore
SplineSet
66 770 m 0
 185 770 l 0
 185 -72 l 0
 66 -72 l 0
 66 770 l 0
EndSplineSet
EndChar

StartChar: braceright
Encoding: 96 125 96
Width: 317
VWidth: 500
Flags: HW
LayerCount: 2
Fore
SplineSet
15 -99 m 0
 43 -99 61.8330078125 -90.5 71.5 -73.5 c 0
 81.1669921875 -56.5 86 -27.6669921875 86 13 c 0
 86 236 l 0
 86 262 94.8330078125 283.5 112.5 300.5 c 0
 130.166992188 317.5 154 328.666992188 184 334 c 0
 118 339.333007812 85 373 85 435 c 0
 85 598 l 0
 85 632 83 657.833007812 79 675.5 c 0
 75 693.166992188 68 705.5 58 712.5 c 0
 48 719.5 33.6669921875 723 15 723 c 0
 15 842 l 0
 161 842 234 780 234 656 c 0
 234 460 l 0
 234 425.333007812 256.666992188 406 302 402 c 0
 302 265 l 0
 282 266.333007812 265.833007812 261.666992188 253.5 251 c 0
 241.166992188 240.333007812 235 225.666992188 235 207 c 0
 235 -38 l 0
 235 -96.6669921875 218.666992188 -140 186 -168 c 0
 153.333007812 -196 96.3330078125 -210 15 -210 c 0
 15 -99 l 0
EndSplineSet
EndChar

StartChar: asciitilde
Encoding: 97 126 97
Width: 423
VWidth: 500
Flags: HW
LayerCount: 2
Fore
SplineSet
241.5 540.5 m 0
 230.5 544.833007812 216.333007812 551.333007812 199 560 c 0
 175 572.666992188 158 579 148 579 c 0
 133.333007812 579 119.5 575.833007812 106.5 569.5 c 0
 93.5 563.166992188 78 553.333007812 60 540 c 0
 39 591 l 0
 76.3330078125 637.666992188 115.666992188 661 157 661 c 0
 167.666992188 661 178.333007812 658.833007812 189 654.5 c 0
 199.666992188 650.166992188 212.333007812 644 227 636 c 0
 249 622.666992188 265.333007812 616 276 616 c 0
 290.666992188 616 305.833007812 620.166992188 321.5 628.5 c 0
 337.166992188 636.833007812 351 647 363 659 c 0
 384 603 l 0
 349.333007812 557 312.666992188 534 274 534 c 0
 263.333007812 534 252.5 536.166992188 241.5 540.5 c 0
EndSplineSet
EndChar

StartChar: inherent
Encoding: 98 -1 98
Width: 172
Flags: HW
LayerCount: 2
Fore
SplineSet
183 735 m 2
 183 695 164.666666667 660.666666667 128 632 c 1
 110.666666667 617.333333333 91.3333333333 606.5 70 599.5 c 128
 48.6666666667 592.5 22.6666666667 589 -8 589 c 1
 -8 695 l 1
 11.3333333333 695 24.6666666667 699.666666667 32 709 c 1
 42.6666666667 717 48 725.666666667 48 735 c 2
 48 806 l 1
 183 806 l 1
 183 735 l 2
EndSplineSet
EndChar

StartChar: makewide
Encoding: 99 -1 99
Width: 347
Flags: HW
LayerCount: 2
Fore
SplineSet
459 138 m 2
 459 102.666666667 446.666666667 70.8333333333 422 42.5 c 128
 397.333333333 14.1666666667 368 0 334 0 c 2
 185 1 l 2
 167.666666667 1 151.333333333 3.16666666667 136 7.5 c 128
 120.666666667 11.8333333333 104 18.6666666667 86 28 c 128
 68 37.3333333333 53 47.6666666667 41 59 c 128
 29 70.3333333333 14.3333333333 86 -3 106 c 1
 -3 260 l 1
 16 264 l 1
 38.6666666667 217.333333333 67.8333333333 180.166666667 103.5 152.5 c 128
 139.166666667 124.833333333 173.333333333 111 206 111 c 2
 299 111 l 2
 306.333333333 111 311.333333333 114.666666667 314 122 c 1
 320 132.666666667 323 143 323 153 c 2
 323 491 l 2
 323 510.333333333 315.666666667 528.333333333 301 545 c 1
 287 557.666666667 269 564 247 564 c 2
 138 564 l 1
 138 677 l 1
 385 677 l 1
 413 582 l 1
 443.666666667 555.333333333 459 526.666666667 459 496 c 2
 459 138 l 2
EndSplineSet
EndChar

StartChar: shortrr
Encoding: 100 -1 100
Width: 821
Flags: HW
LayerCount: 2
Fore
SplineSet
842 569 m 1
 352 569 l 2
 339.333333333 569 329.5 566.5 322.5 561.5 c 128
 315.5 556.5 312 550 312 542 c 2
 311 464 l 1
 312.333333333 451.333333333 318.5 440.833333333 329.5 432.5 c 128
 340.5 424.166666667 353 420 367 420 c 2
 555 420 l 1
 555 307 l 1
 367 307 l 2
 350.333333333 307 337 303.333333333 327 296 c 128
 317 288.666666667 312 278.666666667 312 266 c 2
 311 168 l 1
 312.333333333 153.333333333 316.666666667 141.5 324 132.5 c 128
 331.333333333 123.5 338 118.666666667 344 118 c 1
 440 118 l 1
 440 5 l 1
 299 5 l 2
 266.333333333 5 237.5 16.3333333333 212.5 39 c 128
 187.5 61.6666666667 175 88.6666666667 175 120 c 2
 175 274 l 2
 175 298.666666667 184.333333333 321 203 341 c 0
 207.666666667 345.666666667 214.166666667 350.333333333 222.5 355 c 128
 230.833333333 359.666666667 238 363.666666667 244 367 c 1
 236.666666667 369.666666667 231.333333333 372.333333333 228 375 c 0
 216 383 207.666666667 388.333333333 203 391 c 1
 184.333333333 411 175 432.666666667 175 456 c 2
 175 575 l 2
 175 609 188.333333333 634.666666667 215 652 c 1
 237.666666667 671.333333333 268.333333333 681 307 681 c 2
 839 681 l 1
 842 569 l 1
EndSplineSet
EndChar

StartChar: anusvara
Encoding: 101 3202 101
Width: 786
Flags: HW
LayerCount: 2
Fore
SplineSet
798 156 m 2
 798 114.666666667 784.333333333 78.5 757 47.5 c 128
 729.666666667 16.5 696.666666667 1 658 1 c 2
 344 1 l 2
 298.666666667 1 259.666666667 18 227 52 c 1
 193.666666667 82.6666666667 177 121.666666667 177 169 c 2
 177 535 l 2
 177 577 193.666666667 612 227 640 c 1
 241.666666667 654 258.666666667 664.5 278 671.5 c 128
 297.333333333 678.5 319 682 343 682 c 2
 629 682 l 2
 675.666666667 682 715.5 666.666666667 748.5 636 c 128
 781.5 605.333333333 798 567.666666667 798 523 c 2
 798 156 l 2
663 178 m 1
 663 515 l 2
 663 529.666666667 658 543 648 555 c 1
 638 564.333333333 625.666666667 569 611 569 c 2
 382 569 l 2
 362.666666667 569 345.666666667 564.333333333 331 555 c 1
 319 545.666666667 313 535 313 523 c 2
 313 178 l 2
 313 162.666666667 320.666666667 148.333333333 336 135 c 128
 351.333333333 121.666666667 368.666666667 115 388 115 c 2
 612 115 l 2
 626 115 637.666666667 121 647 133 c 1
 659 145.666666667 664.333333333 160.666666667 663 178 c 1
EndSplineSet
EndChar

StartChar: u0C83
Encoding: 102 3203 102
Width: 508
Flags: HW
LayerCount: 2
Fore
SplineSet
547 461 m 2
 547 432.333333333 536 408.333333333 514 389 c 1
 494.666666667 369 469.333333333 359 438 359 c 2
 279 359 l 2
 243.666666667 359 215 370 193 392 c 1
 169 413.333333333 157 439.333333333 157 470 c 2
 157 575 l 2
 157 606.333333333 169.333333333 632 194 652 c 128
 218.666666667 672 247.333333333 682 280 682 c 2
 424 682 l 2
 448 682 468.333333333 677 485 667 c 1
 494.333333333 663.666666667 502.5 658.5 509.5 651.5 c 128
 516.5 644.5 524.833333333 634.333333333 534.5 621 c 128
 544.166666667 607.666666667 549 590.333333333 549 569 c 2
 547 461 l 2
549 117 m 1
 549 85.6666666667 539 58.6666666667 519 36 c 128
 499 13.3333333333 475 2 447 2 c 2
 279 3 l 2
 247.666666667 3 219.5 13.6666666667 194.5 35 c 128
 169.5 56.3333333333 157 82.3333333333 157 113 c 2
 157 218 l 2
 157 249.333333333 169.5 275.166666667 194.5 295.5 c 128
 219.5 315.833333333 247.666666667 326 279 326 c 2
 423 326 l 2
 459 326 488 314.333333333 510 291 c 1
 534.666666667 267 547 238.333333333 547 205 c 1
 549 117 l 1
412 489 m 1
 412 549 l 2
 412 553.666666667 411.166666667 557.333333333 409.5 560 c 128
 407.833333333 562.666666667 406.166666667 564.833333333 404.5 566.5 c 128
 402.833333333 568.166666667 398 569 390 569 c 2
 325 569 l 2
 315 569 307 567 301 563 c 128
 295 559 292 554.333333333 292 549 c 2
 291 498 l 1
 293.666666667 490 296.666666667 484.333333333 300 481 c 1
 307.333333333 476.333333333 313.666666667 474 319 474 c 2
 390 474 l 1
 395.333333333 475.333333333 400.333333333 476.833333333 405 478.5 c 128
 409.666666667 480.166666667 412.166666667 481.833333333 412.5 483.5 c 128
 412.833333333 485.166666667 412.666666667 487 412 489 c 1
413 131 m 1
 413 192 l 2
 413 199.333333333 411.666666667 204.333333333 409 207 c 2
 404 211 l 1
 319 211 l 2
 311 211 305.5 210.166666667 302.5 208.5 c 128
 299.5 206.833333333 297.166666667 204.833333333 295.5 202.5 c 128
 293.833333333 200.166666667 293 198.666666667 293 198 c 2
 292 141 l 1
 300 122 l 2
 301.333333333 118.666666667 302.833333333 116.833333333 304.5 116.5 c 128
 306.166666667 116.166666667 307.666666667 116 309 116 c 2
 395 116 l 2
 399.666666667 116 404.333333333 117.333333333 409 120 c 1
 413 131 l 1
EndSplineSet
EndChar

StartChar: avowel
Encoding: 103 3205 103
Width: 1021
Flags: HW
LayerCount: 2
Fore
SplineSet
1065 144 m 2
 1065 104 1049.33333333 70.6666666667 1018 44 c 1
 991.333333333 15.3333333333 955.666666667 1 911 1 c 2
 357 2 l 2
 309.666666667 2 269.5 15.5 236.5 42.5 c 128
 203.5 69.5 187 103.333333333 187 144 c 2
 187 541 l 2
 187 583 201.666666667 617 231 643 c 128
 260.333333333 669 296 682 338 682 c 2
 535 682 l 1
 535 450 l 1
 401 450 l 1
 401 569 l 1
 366 569 l 2
 353.333333333 569 343.333333333 563.666666667 336 553 c 0
 326 538.333333333 321 521.333333333 321 502 c 2
 321 179 l 2
 321 165 328 150.333333333 342 135 c 1
 360.666666667 122.333333333 378.666666667 116 396 116 c 2
 860 116 l 2
 872.666666667 116 884.333333333 119.666666667 895 127 c 0
 899.666666667 130.333333333 908 140.666666667 920 158 c 1
 926 170 929 183.333333333 929 198 c 2
 929 528 l 2
 929 538 924.333333333 548.333333333 915 559 c 1
 907.666666667 565 896.666666667 568 882 568 c 2
 850 568 l 1
 850 508 l 2
 850 475.333333333 873.666666667 443.333333333 921 412 c 1
 921 305 l 1
 469 305 l 1
 469 418 l 1
 757 418 l 1
 728.333333333 449.333333333 714 476.666666667 714 500 c 2
 714 681 l 1
 894 681 l 2
 924.666666667 681 953.166666667 675 979.5 663 c 128
 1005.83333333 651 1026 635.333333333 1040 616 c 1
 1055.33333333 596.666666667 1063 574 1063 548 c 2
 1065 144 l 2
EndSplineSet
EndChar

StartChar: aavowel
Encoding: 104 3206 104
Width: 1093
Flags: HW
LayerCount: 2
Fore
SplineSet
1139 485 m 1
 1139 445 1125.66666667 412 1099 386 c 1
 1071 356.666666667 1038 342 1000 342 c 2
 981 342 l 1
 1001 318.666666667 1011 300.666666667 1011 288 c 2
 1011 112 l 2
 1011 80.6666666667 997 54 969 32 c 1
 954.333333333 21.3333333333 938.833333333 13.5 922.5 8.5 c 128
 906.166666667 3.5 886 1 862 1 c 2
 332 5 l 2
 292 5 258 19 230 47 c 1
 202 71.6666666667 188 105 188 147 c 2
 188 544 l 2
 188 584 205 618 239 646 c 1
 276.333333333 672 319.666666667 685 369 685 c 2
 522 685 l 1
 522 453 l 1
 388 453 l 1
 388 572 l 1
 374 572 l 2
 358.666666667 572 346.333333333 568 337 560 c 1
 327.666666667 550 323 539 323 527 c 2
 323 182 l 2
 323 165.333333333 328 150 338 136 c 1
 352.666666667 123.333333333 367.333333333 117 382 117 c 2
 813 117 l 2
 828.333333333 117 841.333333333 123.333333333 852 136 c 1
 858 142 861.666666667 146.666666667 863 150 c 1
 868.333333333 158 871 168 871 180 c 2
 871 291 l 2
 871 305 861 323 841 345 c 1
 542 345 l 1
 542 458 l 1
 789 458 l 1
 777 476.666666667 771 490 771 498 c 2
 771 577 l 2
 771 607.666666667 784.5 632.333333333 811.5 651 c 128
 838.5 669.666666667 871 679 909 679 c 2
 1001 679 l 2
 1020.33333333 679 1037.33333333 676.5 1052 671.5 c 128
 1066.66666667 666.5 1080.33333333 658 1093 646 c 0
 1119.66666667 622 1133 593.333333333 1133 560 c 1
 1139 485 l 1
996 493 m 1
 996 539 l 2
 996 558.333333333 990.666666667 568 980 568 c 2
 937 568 l 2
 926.333333333 568 918.5 565 913.5 559 c 128
 908.5 553 906 546.333333333 906 539 c 2
 906 507 l 2
 906 489.666666667 913.333333333 473.333333333 928 458 c 1
 971 458 l 2
 978.333333333 458 984.5 461.666666667 989.5 469 c 128
 994.5 476.333333333 996.666666667 484.333333333 996 493 c 1
EndSplineSet
EndChar

StartChar: ivowel
Encoding: 105 3207 105
Width: 824
Flags: HW
LayerCount: 2
Fore
SplineSet
863 0 m 1
 781 0 l 2
 745 0 712.333333333 11 683 33 c 1
 656.333333333 57 643 84.3333333333 643 115 c 2
 643 171 l 1
 538 171 l 2
 502.666666667 171 474 180.666666667 452 200 c 1
 440 208 430.833333333 218 424.5 230 c 128
 418.166666667 242 415 254.333333333 415 267 c 2
 415 338 l 2
 415 348.666666667 417.666666667 358.666666667 423 368 c 128
 428.333333333 377.333333333 436.333333333 386 447 394 c 1
 471 406.666666667 498.333333333 413 529 413 c 2
 652 413 l 2
 673.333333333 413 692.666666667 407 710 395 c 1
 728 381 l 1
 728 530 l 2
 728 539.333333333 723.666666667 547.166666667 715 553.5 c 128
 706.333333333 559.833333333 692.333333333 563 673 563 c 2
 595 563 l 2
 576.333333333 563 561 559 549 551 c 1
 539.666666667 543 535 533.666666667 535 523 c 2
 535 446 l 1
 401 446 l 1
 401 518 l 2
 401 530 395.5 540.666666667 384.5 550 c 128
 373.5 559.333333333 358.333333333 564 339 564 c 2
 244 564 l 2
 228.666666667 564 216.333333333 560.333333333 207 553 c 128
 197.666666667 545.666666667 193 535.666666667 193 523 c 2
 192 459 l 1
 193.333333333 443.666666667 197.666666667 433.666666667 205 429 c 1
 212.333333333 419.666666667 220.666666667 415 230 415 c 2
 265 415 l 1
 265 302 l 1
 202 303 l 2
 161.333333333 303 127.666666667 316.333333333 101 343 c 1
 72.3333333333 369 58 400.666666667 58 438 c 2
 58 537 l 2
 58 563.666666667 65.3333333333 587.666666667 80 609 c 1
 94 632.333333333 113.333333333 649 138 659 c 1
 161.333333333 671 187.333333333 677 216 677 c 2
 353 677 l 2
 385.666666667 677 411.666666667 670.666666667 431 658 c 1
 445 652 457.333333333 641.333333333 468 626 c 1
 472.666666667 634 477.5 640.5 482.5 645.5 c 128
 487.5 650.5 493 654.333333333 499 657 c 1
 517.666666667 671 540 678 566 678 c 2
 696 678 l 2
 720.666666667 678 742.333333333 675 761 669 c 128
 779.666666667 663 796.666666667 652.666666667 812 638 c 1
 845.333333333 611.333333333 862 576.333333333 862 533 c 2
 862 367 l 2
 862 307.666666667 833.333333333 252 776 200 c 1
 776 137 l 2
 776 129.666666667 777.666666667 124.333333333 781 121 c 1
 789 115.666666667 794.666666667 113 798 113 c 2
 861 113 l 1
 863 0 l 1
639 285 m 1
 639 297.666666667 633 304 621 304 c 2
 556 304 l 2
 551.333333333 304 548.666666667 303.666666667 548 303 c 2
 547 296 l 1
 548 291 l 1
 556 286 l 1
 639 285 l 1
EndSplineSet
EndChar

StartChar: iivowel
Encoding: 106 3208 106
Width: 1281
Flags: HW
LayerCount: 2
Fore
SplineSet
1324 404 m 2
 1324 376 1313 348 1291 320 c 1
 1271.66666667 298 1246.66666667 280.666666667 1216 268 c 1
 1268.66666667 210.666666667 1295 172.666666667 1295 154 c 2
 1295 87 l 2
 1295 67.6666666667 1287.66666667 48.3333333333 1273 29 c 1
 1257.66666667 11.6666666667 1239.33333333 3 1218 3 c 2
 973 3 l 1
 973 116 l 1
 1134 116 l 2
 1139.33333333 116 1145 119.333333333 1151 126 c 128
 1157 132.666666667 1160 137.333333333 1160 140 c 2
 1160 145 l 2
 1160 159 1151.33333333 172.333333333 1134 185 c 1
 1067 253 l 1
 852 253 l 1
 852 139 l 2
 852 103 837.666666667 71 809 43 c 128
 780.333333333 15 745.666666667 1 705 1 c 2
 346 2 l 2
 312 2 282 13.8333333333 256 37.5 c 128
 230 61.1666666667 217 90.6666666667 217 126 c 2
 217 253 l 1
 104 253 l 1
 104 366 l 1
 217 366 l 1
 217 443 l 2
 217 486.333333333 238.666666667 528.666666667 282 570 c 1
 203 570 l 1
 203 683 l 1
 729 683 l 2
 739.666666667 683 746.666666667 686 750 692 c 1
 756 698 759 704.666666667 759 712 c 2
 759 775 l 1
 896 775 l 1
 896 712 l 2
 896 676 882.666666667 644.666666667 856 618 c 1
 837.333333333 594.666666667 812.333333333 579 781 571 c 1
 800.333333333 557 816 542.666666667 828 528 c 0
 844.666666667 506.666666667 853 487.333333333 853 470 c 2
 853 365 l 1
 967 365 l 1
 952.333333333 385 945 408.333333333 945 435 c 2
 945 507 l 2
 945 540.333333333 957 568.833333333 981 592.5 c 128
 1005 616.166666667 1034.66666667 628 1070 628 c 2
 1190 628 l 2
 1228 628 1259 615.666666667 1283 591 c 1
 1311 566.333333333 1325 536 1325 500 c 2
 1324 404 l 2
1188 416 m 2
 1188 488 l 2
 1188 492.666666667 1186.66666667 497 1184 501 c 128
 1181.33333333 505 1179.66666667 507.333333333 1179 508 c 0
 1175.66666667 512.666666667 1170 515 1162 515 c 2
 1106 515 l 2
 1096.66666667 515 1091.33333333 513.333333333 1090 510 c 0
 1085.33333333 502.666666667 1083 497.333333333 1083 494 c 2
 1082 418 l 1
 1082.66666667 408.666666667 1086 400 1092 392 c 1
 1139 364 l 1
 1149.66666667 366.666666667 1159.66666667 372 1169 380 c 1
 1181.66666667 392.666666667 1188 404.666666667 1188 416 c 2
715 367 m 1
 715 477 l 2
 715 517 693.333333333 549 650 573 c 1
 432 573 l 1
 377.333333333 535.666666667 350 494.333333333 350 449 c 2
 350 367 l 1
 715 367 l 1
716 180 m 1
 716 254 l 1
 350 254 l 1
 350 166 l 2
 350 154 355 142.5 365 131.5 c 128
 375 120.5 385 115 395 115 c 2
 652 115 l 2
 659.333333333 115 666.166666667 116.5 672.5 119.5 c 128
 678.833333333 122.5 685.666666667 126.666666667 693 132 c 1
 707 147.333333333 714.666666667 163.333333333 716 180 c 1
EndSplineSet
EndChar

StartChar: uvowel
Encoding: 107 3209 107
Width: 1535
Flags: HW
LayerCount: 2
Fore
SplineSet
1580 152 m 2
 1580 125.333333333 1573.66666667 100 1561 76 c 1
 1553.66666667 64 1545.66666667 53.6666666667 1537 45 c 128
 1528.33333333 36.3333333333 1518 29 1506 23 c 0
 1480 9 1454.66666667 2 1430 2 c 2
 1234 2 l 2
 1219.33333333 2 1204.83333333 3.83333333333 1190.5 7.5 c 128
 1176.16666667 11.1666666667 1162.83333333 16 1150.5 22 c 128
 1138.16666667 28 1126.5 35.8333333333 1115.5 45.5 c 128
 1104.5 55.1666666667 1095 65.3333333333 1087 76 c 1
 1071.66666667 102 1064 127.333333333 1064 152 c 2
 1064 535 l 2
 1064 540.333333333 1061 548.333333333 1055 559 c 1
 1045.66666667 564.333333333 1035 567 1023 567 c 2
 836 567 l 2
 823.333333333 567 814.333333333 564 809 558 c 128
 803.666666667 552 801 544 801 534 c 2
 801 143 l 2
 801 129 799.5 117.166666667 796.5 107.5 c 128
 793.5 97.8333333333 787.333333333 85.6666666667 778 71 c 1
 764 51 743.333333333 34.3333333333 716 21 c 128
 688.666666667 7.66666666667 661 1 633 1 c 2
 374 2 l 2
 324.666666667 2 282.333333333 17.3333333333 247 48 c 0
 229.666666667 62.6666666667 216.833333333 80 208.5 100 c 128
 200.166666667 120 196 141 196 163 c 2
 196 527 l 2
 196 555.666666667 201.333333333 582 212 606 c 1
 226.666666667 632 246.833333333 651 272.5 663 c 128
 298.166666667 675 322.666666667 681 346 681 c 2
 572 681 l 1
 572 481 l 2
 572 445.666666667 558.833333333 413.833333333 532.5 385.5 c 128
 506.166666667 357.166666667 475 343 439 343 c 2
 351 343 l 1
 351 456 l 1
 409 456 l 2
 415 456 421 458.666666667 427 464 c 128
 433 469.333333333 436 474.666666667 436 480 c 2
 436 566 l 1
 373 566 l 2
 358.333333333 566 348 562.333333333 342 555 c 0
 332.666666667 544.333333333 328 534.333333333 328 525 c 2
 328 161 l 2
 328 151 333.333333333 140.333333333 344 129 c 128
 354.666666667 117.666666667 367 112 381 112 c 2
 624 112 l 2
 636.666666667 112 645.666666667 116 651 124 c 1
 660.333333333 134.666666667 665 144.666666667 665 154 c 2
 665 533 l 2
 665 577.666666667 678.333333333 612 705 636 c 1
 733 664.666666667 767.333333333 679 808 679 c 2
 1037 679 l 2
 1067.66666667 679 1095.33333333 673 1120 661 c 128
 1144.66666667 649 1164 632.333333333 1178 611 c 0
 1186 598.333333333 1191.5 587 1194.5 577 c 128
 1197.5 567 1199 554.666666667 1199 540 c 2
 1199 162 l 2
 1199 148 1203 136.333333333 1211 127 c 1
 1223 117 1234 112 1244 112 c 2
 1407 112 l 2
 1419.66666667 112 1428.66666667 116 1434 124 c 1
 1443.33333333 133.333333333 1448 143.333333333 1448 154 c 2
 1448 525 l 2
 1448 532.333333333 1444.16666667 539 1436.5 545 c 128
 1428.83333333 551 1419 554 1407 554 c 2
 1377 554 l 1
 1377 680 l 1
 1449 680 l 2
 1487.66666667 680 1519 667.666666667 1543 643 c 1
 1569 618.333333333 1582 588.333333333 1582 553 c 2
 1580 152 l 2
EndSplineSet
EndChar

StartChar: uuvowel
Encoding: 108 3210 108
Width: 1840
Flags: HW
LayerCount: 2
Fore
SplineSet
1882 144 m 2
 1882 103.333333333 1868 70.6666666667 1840 46 c 1
 1812 16.6666666667 1779.66666667 2 1743 2 c 2
 1685 2 l 2
 1651 2 1618.66666667 15 1588 41 c 0
 1575.33333333 51.6666666667 1565.83333333 65.1666666667 1559.5 81.5 c 128
 1553.16666667 97.8333333333 1550 114.333333333 1550 131 c 2
 1550 233 l 1
 1685 233 l 1
 1685 131 l 2
 1685 125.666666667 1685.66666667 122.166666667 1687 120.5 c 128
 1688.33333333 118.833333333 1690.33333333 117.833333333 1693 117.5 c 128
 1695.66666667 117.166666667 1698.33333333 116.666666667 1701 116 c 1
 1736 116 l 1
 1740.66666667 118.666666667 1743.33333333 120.666666667 1744 122 c 2
 1748 140 l 1
 1748 516 l 2
 1748 530.666666667 1743.33333333 543.333333333 1734 554 c 128
 1724.66666667 564.666666667 1713.66666667 570 1701 570 c 2
 1559 570 l 2
 1540.33333333 570 1525.66666667 564.666666667 1515 554 c 128
 1504.33333333 543.333333333 1499 530.666666667 1499 516 c 2
 1499 165 l 2
 1499 147.666666667 1496.33333333 131.333333333 1491 116 c 0
 1490.33333333 113.333333333 1486 103.333333333 1478 86 c 1
 1462.66666667 59.3333333333 1445 40 1425 28 c 0
 1399 12.6666666667 1373 5 1347 5 c 2
 1139 5 l 2
 1098.33333333 5 1064 19.8333333333 1036 49.5 c 128
 1008 79.1666666667 994 116.333333333 994 161 c 2
 994 532 l 2
 994 544.666666667 989.666666667 554.666666667 981 562 c 128
 972.333333333 569.333333333 961 573 947 573 c 2
 803 573 l 2
 789 573 777.833333333 568.333333333 769.5 559 c 128
 761.166666667 549.666666667 757 539 757 527 c 2
 757 173 l 2
 757 127 739.333333333 88.3333333333 704 57 c 1
 670 23 629 6 581 6 c 2
 390 7 l 2
 338 7 291.666666667 22.3333333333 251 53 c 1
 232.333333333 68.3333333333 218.666666667 85.5 210 104.5 c 128
 201.333333333 123.5 197 144.666666667 197 168 c 2
 197 540 l 2
 197 583.333333333 213.333333333 618 246 644 c 1
 262.666666667 658.666666667 281 669.166666667 301 675.5 c 128
 321 681.833333333 343 685 367 685 c 2
 574 685 l 1
 574 504 l 2
 574 466 558.666666667 433 528 405 c 1
 500 376.333333333 465.666666667 362 425 362 c 2
 367 362 l 1
 367 475 l 1
 411 475 l 2
 415.666666667 475 419.5 475.833333333 422.5 477.5 c 128
 425.5 479.166666667 427.333333333 480.333333333 428 481 c 0
 434 486.333333333 437 491.666666667 437 497 c 2
 437 571 l 1
 381 571 l 2
 365.666666667 571 353.166666667 566.833333333 343.5 558.5 c 128
 333.833333333 550.166666667 329 540.666666667 329 530 c 2
 329 172 l 2
 329 157.333333333 335.5 144.5 348.5 133.5 c 128
 361.5 122.5 377.333333333 117 396 117 c 2
 576 117 l 2
 586 117 597 122 609 132 c 1
 618.333333333 142 623 155.333333333 623 172 c 2
 623 530 l 2
 623 560.666666667 631.333333333 587 648 609 c 1
 664.666666667 635 686.166666667 654 712.5 666 c 128
 738.833333333 678 766.333333333 684 795 684 c 2
 953 684 l 2
 983.666666667 684 1013 677.666666667 1041 665 c 0
 1055.66666667 659 1067.83333333 651.666666667 1077.5 643 c 128
 1087.16666667 634.333333333 1096.16666667 623.5 1104.5 610.5 c 128
 1112.83333333 597.5 1119.33333333 584.833333333 1124 572.5 c 128
 1128.66666667 560.166666667 1131 546.666666667 1131 532 c 2
 1131 161 l 2
 1131 149 1134.83333333 138.833333333 1142.5 130.5 c 128
 1150.16666667 122.166666667 1161 118 1175 118 c 2
 1309 118 l 2
 1323 118 1336 123 1348 133 c 1
 1353.33333333 139 1357.5 145.166666667 1360.5 151.5 c 128
 1363.5 157.833333333 1365 164.666666667 1365 172 c 2
 1365 517 l 2
 1365 546.333333333 1372 574.333333333 1386 601 c 1
 1402.66666667 627.666666667 1424 648 1450 662 c 128
 1476 676 1504.66666667 683 1536 683 c 2
 1702 683 l 2
 1734.66666667 683 1765 676 1793 662 c 0
 1805.66666667 656 1817.5 648 1828.5 638 c 128
 1839.5 628 1849 616 1857 602 c 0
 1874.33333333 574 1883 545.666666667 1883 517 c 2
 1882 144 l 2
EndSplineSet
EndChar

StartChar: rvocalicvowel.part
Encoding: 110 -1 110
Width: 1051
Flags: HW
LayerCount: 2
Fore
SplineSet
1090 152 m 2
 1090 132 1087.5 113.666666667 1082.5 97 c 128
 1077.5 80.3333333333 1069.66666667 64.3333333333 1059 49 c 1
 1033 17.6666666667 1004.66666667 2 974 2 c 2
 760 2 l 2
 731.333333333 2 702.333333333 9.33333333333 673 24 c 1
 651.666666667 33.3333333333 633.666666667 48 619 68 c 1
 608.333333333 50.6666666667 596 36.6666666667 582 26 c 0
 562 10.6666666667 543.333333333 3 526 3 c 2
 281 4 l 2
 245 4 216.333333333 14 195 34 c 1
 169 56.6666666667 156 82.6666666667 156 112 c 2
 156 299 l 1
 339 299 l 2
 361 299 379 297 393 293 c 128
 407 289 420.333333333 281.666666667 433 271 c 1
 462.333333333 249.666666667 477 223.666666667 477 193 c 2
 477 136 l 1
 342 136 l 1
 342 180 l 2
 342 185.333333333 336.666666667 188 326 188 c 2
 293 188 l 1
 292 146 l 1
 292.666666667 138 295.666666667 131 301 125 c 1
 309 119 317 116 325 116 c 2
 480 116 l 2
 489.333333333 116 497.666666667 117.333333333 505 120 c 128
 512.333333333 122.666666667 518.666666667 126 524 130 c 0
 536 137.333333333 542 146.333333333 542 157 c 2
 542 544 l 2
 542 552 537.166666667 558.5 527.5 563.5 c 128
 517.833333333 568.5 505.333333333 571 490 571 c 2
 338 571 l 2
 324 571 312 568.333333333 302 563 c 1
 296 562.333333333 293 558.333333333 293 551 c 2
 293 487 l 1
 326 487 l 2
 329.333333333 487 332.833333333 487.833333333 336.5 489.5 c 128
 340.166666667 491.166666667 343.333333333 492.666666667 346 494 c 1
 352 500 355 506.666666667 355 514 c 2
 355 551 l 1
 490 551 l 1
 490 508 l 2
 490 472 477.666666667 440 453 412 c 1
 426.333333333 384 395.333333333 370 360 370 c 2
 155 370 l 1
 155 567 l 2
 155 598.333333333 169 626.333333333 197 651 c 1
 223.666666667 671 256 681 294 681 c 2
 525 681 l 2
 567 681 602.666666667 668.666666667 632 644 c 1
 662.666666667 616 678 584 678 548 c 2
 678 183 l 1
 688 163 702.5 146.166666667 721.5 132.5 c 128
 740.5 118.833333333 757.666666667 112 773 112 c 2
 908 112 l 2
 920 112 930.833333333 117.333333333 940.5 128 c 128
 950.166666667 138.666666667 955 152.333333333 955 169 c 2
 955 502 l 2
 955 523.333333333 948.5 540 935.5 552 c 128
 922.5 564 906.666666667 570 888 570 c 2
 726 570 l 1
 726 683 l 1
 902 683 l 2
 912.666666667 683 924.333333333 688.333333333 937 699 c 1
 947.666666667 711.666666667 953 725 953 739 c 2
 953 802 l 1
 1088 802 l 1
 1088 725 l 2
 1088 699 1080.66666667 676.666666667 1066 658 c 1
 1056 640.666666667 1043.66666667 628 1029 620 c 1
 1038.33333333 614.666666667 1045.5 609.5 1050.5 604.5 c 128
 1055.5 599.5 1061 592 1067 582 c 1
 1081 562.666666667 1088 540.666666667 1088 516 c 2
 1090 152 l 2
EndSplineSet
EndChar

StartChar: lvocalicvowel.part
Encoding: 112 -1 112
Width: 824
Flags: HW
LayerCount: 2
Fore
SplineSet
1012 217 m 1
 881 58 l 1
 864.333333333 31.3333333333 842.666666667 15.3333333333 816 10 c 0
 813.333333333 9.33333333333 808 9 800 9 c 0
 780.666666667 9 758.5 12.8333333333 733.5 20.5 c 128
 708.5 28.1666666667 687.333333333 39.3333333333 670 54 c 1
 650 72 636 87 628 99 c 0
 617.333333333 115.666666667 612 134 612 154 c 0
 612 159.333333333 631 192.333333333 669 253 c 0
 681 272.333333333 700.333333333 302 727 342 c 1
 732.333333333 356 735.833333333 371.166666667 737.5 387.5 c 128
 739.166666667 403.833333333 740 421.666666667 740 441 c 0
 740 461 739.166666667 478.333333333 737.5 493 c 128
 735.833333333 507.666666667 734.333333333 520.333333333 733 531 c 1
 733 540.333333333 728.666666667 548.166666667 720 554.5 c 128
 711.333333333 560.833333333 697.333333333 564 678 564 c 2
 600 564 l 2
 581.333333333 564 566 560 554 552 c 1
 544.666666667 544 540 534.666666667 540 524 c 2
 540 447 l 1
 406 447 l 1
 406 519 l 2
 406 531 400.5 541.666666667 389.5 551 c 128
 378.5 560.333333333 363.333333333 565 344 565 c 2
 249 565 l 2
 233.666666667 565 221.333333333 561.333333333 212 554 c 128
 202.666666667 546.666666667 198 536.666666667 198 524 c 2
 197 460 l 1
 198.333333333 444.666666667 202.666666667 434.666666667 210 430 c 1
 217.333333333 420.666666667 225.666666667 416 235 416 c 2
 270 416 l 1
 270 303 l 1
 207 304 l 2
 166.333333333 304 132.666666667 317.333333333 106 344 c 1
 77.3333333333 370 63 401.666666667 63 439 c 2
 63 538 l 2
 63 564.666666667 70.3333333333 588.666666667 85 610 c 1
 99 633.333333333 118.333333333 650 143 660 c 1
 166.333333333 672 192.333333333 678 221 678 c 2
 358 678 l 2
 390.666666667 678 416.666666667 671.666666667 436 659 c 1
 450 653 462.333333333 642.333333333 473 627 c 1
 477.666666667 635 482.5 641.5 487.5 646.5 c 128
 492.5 651.5 498 655.333333333 504 658 c 1
 522.666666667 672 545 679 571 679 c 2
 701 679 l 2
 725.666666667 679 747.333333333 676 766 670 c 128
 784.666666667 664 801.666666667 653.666666667 817 639 c 1
 850.333333333 612.333333333 867 577.333333333 867 534 c 2
 867 368 l 2
 867 348.666666667 861.666666667 328 851 306 c 0
 848.333333333 301.333333333 824.333333333 266 779 200 c 1
 771.666666667 190.666666667 766.666666667 184.333333333 764 181 c 0
 753.333333333 166.333333333 748 157.666666667 748 155 c 0
 748 143 751 135.666666667 757 133 c 128
 763 130.333333333 768.666666667 129 774 129 c 0
 786 129 795 133 801 141 c 2
 911 283 l 1
 1012 217 l 1
EndSplineSet
EndChar

StartChar: evowel
Encoding: 113 3214 113
Width: 996
Flags: HW
LayerCount: 2
Fore
SplineSet
1038 152 m 2
 1038 110 1024.33333333 74.1666666667 997 44.5 c 128
 969.666666667 14.8333333333 937 0 899 0 c 2
 681 1 l 2
 654.333333333 1 630.333333333 8 609 22 c 1
 597 28 588 36.3333333333 582 47 c 1
 574 35 565.333333333 26 556 20 c 0
 536.666666667 6 516.333333333 -1 495 -1 c 2
 329 0 l 2
 283 0 243.666666667 13.5 211 40.5 c 128
 178.333333333 67.5 162 101.333333333 162 142 c 2
 162 416 l 1
 343 416 l 2
 365 416 385.333333333 408.666666667 404 394 c 0
 413.333333333 386.666666667 422.333333333 378.166666667 431 368.5 c 128
 439.666666667 358.833333333 446.666666667 348 452 336 c 1
 466.666666667 308 476.333333333 277 481 243 c 1
 357 210 l 1
 354.333333333 226.666666667 350.5 240.5 345.5 251.5 c 128
 340.5 262.5 334.333333333 273 327 283 c 0
 323.666666667 287.666666667 319.5 291.5 314.5 294.5 c 128
 309.5 297.5 304 299.666666667 298 301 c 1
 297 169 l 1
 297.666666667 154.333333333 303.333333333 141 314 129 c 1
 326.666666667 118.333333333 340.666666667 113 356 113 c 2
 465 113 l 2
 479.666666667 113 491 118 499 128 c 0
 511 142 517 155.333333333 517 168 c 2
 517 245 l 1
 654 245 l 1
 654 177 l 2
 654 160.333333333 661.166666667 145.5 675.5 132.5 c 128
 689.833333333 119.5 705.333333333 113 722 113 c 2
 842 113 l 2
 859.333333333 113 873.666666667 119.666666667 885 133 c 128
 896.333333333 146.333333333 902 160.666666667 902 176 c 2
 902 493 l 2
 902 515 894.666666667 532.666666667 880 546 c 128
 865.333333333 559.333333333 846 566 822 566 c 2
 717 566 l 1
 717 679 l 1
 836 679 l 2
 873.333333333 679 907.333333333 671.666666667 938 657 c 128
 968.666666667 642.333333333 993 621 1011 593 c 128
 1029 565 1038 536.333333333 1038 507 c 2
 1038 152 l 2
EndSplineSet
EndChar

StartChar: eevowel
Encoding: 114 3215 114
Width: 993
Flags: HW
LayerCount: 2
Fore
SplineSet
1036 166 m 2
 1036 138 1026.66666667 109.666666667 1008 81 c 1
 993.333333333 56.3333333333 970.666666667 36.3333333333 940 21 c 1
 925.333333333 15 909.5 10 892.5 6 c 128
 875.5 2 857 0 837 0 c 2
 683 4 l 2
 659 4 636.333333333 11 615 25 c 1
 601 35.6666666667 590.333333333 48.6666666667 583 64 c 1
 555 22.6666666667 517 2 469 2 c 2
 341 2 l 2
 291 2 248.333333333 17.1666666667 213 47.5 c 128
 177.666666667 77.8333333333 160 114.666666667 160 158 c 2
 160 419 l 1
 342 419 l 2
 364 419 383.833333333 412 401.5 398 c 128
 419.166666667 384 435.666666667 364 451 338 c 1
 463 316 473 285 481 245 c 1
 353 213 l 1
 347 246.333333333 337 270.333333333 323 285 c 0
 313.666666667 295 304 301.333333333 294 304 c 1
 293 172 l 1
 295.666666667 156.666666667 302 143.666666667 312 133 c 1
 326 121 340.333333333 115 355 115 c 2
 462 115 l 2
 476.666666667 115 489.333333333 121.166666667 500 133.5 c 128
 510.666666667 145.833333333 516 158.333333333 516 171 c 2
 516 248 l 1
 653 248 l 1
 653 180 l 2
 653 165.333333333 658.333333333 150.333333333 669 135 c 1
 683.666666667 122.333333333 699.333333333 116 716 116 c 2
 840 116 l 2
 855.333333333 116 868.333333333 122.333333333 879 135 c 1
 885 141 888.666666667 145.666666667 890 149 c 1
 895.333333333 157 898 167 898 179 c 2
 898 496 l 2
 898 517.333333333 890.333333333 535 875 549 c 128
 859.666666667 563 839.666666667 570 815 570 c 2
 719 570 l 1
 719 549 l 2
 719 520.333333333 705 497.333333333 677 480 c 1
 664.333333333 470.666666667 650.833333333 463.666666667 636.5 459 c 128
 622.166666667 454.333333333 605.333333333 452 586 452 c 2
 452 452 l 2
 411.333333333 452 375.666666667 464.333333333 345 489 c 1
 314.333333333 515.666666667 299 546 299 580 c 2
 299 682 l 1
 434 682 l 1
 434 594 l 2
 434 588 437 581 443 573 c 1
 452.333333333 567.666666667 459.666666667 565 465 565 c 2
 557 565 l 2
 561.666666667 565 567.666666667 568.666666667 575 576 c 1
 580.333333333 583.333333333 583 592.333333333 583 603 c 2
 583 682 l 1
 828 682 l 2
 866.666666667 682 901.5 674.666666667 932.5 660 c 128
 963.5 645.333333333 987.333333333 624.666666667 1004 598 c 1
 1023.33333333 571.333333333 1033 542.333333333 1033 511 c 2
 1036 166 l 2
EndSplineSet
EndChar

StartChar: aivowel
Encoding: 115 3216 115
Width: 1054
Flags: HW
LayerCount: 2
Fore
SplineSet
1093 154 m 2
 1093 111.333333333 1076.33333333 75.3333333333 1043 46 c 1
 1009.66666667 14.6666666667 967 -1 915 -1 c 1
 763 3 l 1
 732.333333333 3 705.333333333 10 682 24 c 128
 658.666666667 38 640.666666667 53.6666666667 628 71 c 1
 613.333333333 51.6666666667 597.333333333 36.6666666667 580 26 c 0
 556.666666667 10.6666666667 533 3 509 3 c 2
 329 4 l 2
 283 4 243.666666667 17.5 211 44.5 c 128
 178.333333333 71.5 162 105.333333333 162 146 c 2
 162 291 l 2
 162 335.666666667 178.333333333 372.333333333 211 401 c 1
 225.666666667 415.666666667 243.5 426.666666667 264.5 434 c 128
 285.5 441.333333333 307 445 329 445 c 2
 540 445 l 1
 540 297 l 2
 540 277.666666667 535.833333333 259.5 527.5 242.5 c 128
 519.166666667 225.5 506.666666667 208.833333333 490 192.5 c 128
 473.333333333 176.166666667 455.666666667 164.166666667 437 156.5 c 128
 418.333333333 148.833333333 394.666666667 145 366 145 c 1
 331 255 l 1
 345.666666667 255 356.5 256.166666667 363.5 258.5 c 128
 370.5 260.833333333 378 265 386 271 c 0
 398 280.333333333 404 290 404 300 c 2
 404 329 l 1
 365 329 l 2
 343 329 326.166666667 324.166666667 314.5 314.5 c 128
 302.833333333 304.833333333 297 294 297 282 c 2
 296 182 l 2
 296 165.333333333 302 149.666666667 314 135 c 128
 326 120.333333333 340.333333333 113 357 113 c 2
 480 113 l 2
 501.333333333 113 520.333333333 120.166666667 537 134.5 c 128
 553.666666667 148.833333333 562 164.666666667 562 182 c 2
 562 231 l 1
 699 231 l 1
 699 182 l 2
 699 165.333333333 706 149.333333333 720 134 c 1
 735.333333333 120 752.333333333 113 771 113 c 2
 909 113 l 2
 921 113 932.833333333 120 944.5 134 c 128
 956.166666667 148 962 164.333333333 962 183 c 2
 962 514 l 2
 962 523.333333333 959.666666667 532.666666667 955 542 c 0
 954.333333333 543.333333333 950.833333333 547.833333333 944.5 555.5 c 128
 938.166666667 563.166666667 926.666666667 567 910 567 c 2
 787 567 l 2
 773 567 761.333333333 563 752 555 c 1
 744.666666667 547 741 536 741 522 c 2
 741 476 l 1
 606 476 l 1
 606 526 l 2
 606 536 599 546 585 556 c 1
 571 563.333333333 552.333333333 567 529 567 c 2
 352 567 l 2
 344.666666667 567 338 566.166666667 332 564.5 c 128
 326 562.833333333 320 559 314 553 c 1
 301.333333333 543 290 525.666666667 280 501 c 1
 175 565 l 1
 193.666666667 603.666666667 216.5 632.666666667 243.5 652 c 128
 270.5 671.333333333 299.666666667 681 331 681 c 2
 555 681 l 2
 589 681 615.333333333 674 634 660 c 1
 650.666666667 650.666666667 664 637.666666667 674 621 c 1
 679.333333333 629 685 636 691 642 c 128
 697 648 704.666666667 653.666666667 714 659 c 1
 734 673 757.333333333 680 784 680 c 2
 926 680 l 2
 956.666666667 680 984.333333333 674 1009 662 c 1
 1035.66666667 651.333333333 1056.33333333 634.666666667 1071 612 c 128
 1085.66666667 589.333333333 1093 565.666666667 1093 541 c 2
 1093 154 l 2
EndSplineSet
EndChar

StartChar: ovowel
Encoding: 116 3218 116
Width: 964
Flags: HW
LayerCount: 2
Fore
SplineSet
1002 124 m 0
 1002 90.6669921875 991.166992188 61.6669921875 969.5 37 c 0
 947.833007812 12.3330078125 921.333007812 0 890 0 c 0
 671 0 l 0
 647 0 625.666992188 7 607 21 c 0
 596.333007812 27 587.333007812 35.3330078125 580 46 c 0
 574.666992188 35.3330078125 567.333007812 27 558 21 c 0
 538.666992188 7 519.666992188 0 501 0 c 0
 300 0 l 0
 262.666992188 0 228.666992188 11.1669921875 198 33.5 c 0
 167.333007812 55.8330078125 152 83.3330078125 152 116 c 0
 152 268 l 0
 282 347 l 0
 303.333007812 361 323.666992188 374.166992188 343 386.5 c 0
 362.333007812 398.833007812 376.666992188 409 386 417 c 0
 401.333007812 429 409 441 409 453 c 0
 409 538 l 0
 409 544 406.333007812 550.666992188 401 558 c 0
 395.666992188 562.666992188 388 565 378 565 c 0
 289 565 l 0
 289 523 l 0
 289 517.666992188 292 511.5 298 504.5 c 0
 304 497.5 311.666992188 494 321 494 c 0
 346 494 l 0
 346 381 l 0
 286 381 l 0
 248.666992188 381 217.666992188 395.333007812 193 424 c 0
 166.333007812 450 153 483 153 523 c 0
 153 678 l 0
 407 678 l 0
 431 678 453.5 673.833007812 474.5 665.5 c 0
 495.5 657.166992188 512.666992188 644.5 526 627.5 c 0
 539.333007812 610.5 546 592 546 572 c 0
 546 420 l 0
 546 402.666992188 536 384.333007812 516 365 c 0
 499.333007812 349.666992188 456.666992188 321 388 279 c 0
 290 218 l 0
 290 157 l 0
 290 147 294 137 302 127 c 0
 312 119 323 115 335 115 c 0
 465 115 l 0
 474.333007812 115 484.333007812 119.666992188 495 129 c 0
 505.666992188 141.666992188 511 153.333007812 511 164 c 0
 511 218 l 0
 646 218 l 0
 646 169 l 0
 646 155 651 142 661 130 c 0
 673.666992188 119.333007812 688.333007812 114 705 114 c 0
 819 114 l 0
 828.333007812 114 838.333007812 118.666992188 849 128 c 0
 859.666992188 138.666992188 865 150.333007812 865 163 c 0
 865 256 l 0
 865 268 861.333007812 276.666992188 854 282 c 0
 846.666992188 287.333007812 837.666992188 290 827 290 c 0
 780 290 l 0
 780 402 l 0
 889 402 l 0
 923 402 949.333007812 392.666992188 968 374 c 0
 990 354.666992188 1001 330.333007812 1001 301 c 0
 1002 124 l 0
EndSplineSet
EndChar

StartChar: oovowel
Encoding: 117 3219 117
Width: 964
Flags: HW
LayerCount: 2
Fore
SplineSet
1002 140 m 0
 1002 115.333007812 995.666992188 93 983 73 c 0
 972.333007812 51 957.666992188 33.8330078125 939 21.5 c 0
 920.333007812 9.1669921875 900 3 878 3 c 0
 671 3 l 0
 647 3 625.666992188 10 607 24 c 0
 593 32 583 42 577 54 c 0
 574.333007812 50.6669921875 569.333007812 45.3330078125 562 38 c 0
 558.666992188 34.6669921875 553.333007812 30 546 24 c 0
 527.333007812 11.3330078125 507.333007812 5 486 5 c 0
 300 5 l 0
 262.666992188 5 228.666992188 16.1669921875 198 38.5 c 0
 167.333007812 60.8330078125 152 88.6669921875 152 122 c 0
 152 275 l 0
 282 354 l 0
 304 368.666992188 325.166992188 382.666992188 345.5 396 c 0
 365.833007812 409.333007812 379 418.666992188 385 424 c 0
 400.333007812 436 408 448.333007812 408 461 c 0
 408 533 l 0
 408 543 403.666992188 552.333007812 395 561 c 0
 386.333007812 569.666992188 375 574 361 574 c 0
 287 574 l 0
 287 532 l 0
 287 526 290 519.5 296 512.5 c 0
 302 505.5 309.666992188 502 319 502 c 0
 344 502 l 0
 344 388 l 0
 284 388 l 0
 248 388 217 402.333007812 191 431 c 0
 164.333007812 457.666992188 151 491.333007812 151 532 c 0
 151 687 l 0
 236 687 l 0
 179.333007812 724.333007812 151 755.333007812 151 780 c 0
 151 864 l 0
 151 890.666992188 164 912.333007812 190 929 c 0
 212 945.666992188 240.666992188 954 276 954 c 0
 416 954 l 0
 416 840 l 0
 314 840 l 0
 293 836 l 0
 289.666992188 833.333007812 288 829.666992188 288 825 c 0
 288 785 l 0
 288 763 323.333007812 730.666992188 394 688 c 0
 405 688 l 0
 429 688 451.5 683.833007812 472.5 675.5 c 0
 493.5 667.166992188 510.666992188 654 524 636 c 0
 537.333007812 618 544 599.666992188 544 581 c 0
 544 426 l 0
 544 408.666992188 534 390.333007812 514 371 c 0
 497.333007812 355.666992188 454.666992188 327 386 285 c 0
 364.666992188 270.333007812 343.333007812 256.666992188 322 244 c 0
 306.666992188 234.666992188 296 228.333007812 290 225 c 0
 290 162 l 0
 290 152 294 142 302 132 c 0
 312.666992188 122.666992188 323.333007812 118 334 118 c 0
 464 118 l 0
 472 118 482 123 494 133 c 0
 504.666992188 145.666992188 510 157.333007812 510 168 c 0
 510 224 l 0
 645 224 l 0
 645 161 l 0
 645 149 651 138.666992188 663 130 c 0
 675 121.333007812 688.666992188 117 704 117 c 0
 818 117 l 0
 826 117 835.833007812 122.333007812 847.5 133 c 0
 859.166992188 143.666992188 865 155.333007812 865 168 c 0
 865 263 l 0
 865 275 861.333007812 283.5 854 288.5 c 0
 846.666992188 293.5 837.666992188 296 827 296 c 0
 780 296 l 0
 780 410 l 0
 876 410 l 0
 911.333007812 410 941 396.833007812 965 370.5 c 0
 989 344.166992188 1001 314.333007812 1001 281 c 0
 1002 140 l 0
EndSplineSet
EndChar

StartChar: auvowel
Encoding: 118 3220 118
Width: 960
Flags: HW
LayerCount: 2
Fore
SplineSet
1027 508 m 1
 705 508 l 2
 671 508 641 521.166666667 615 547.5 c 128
 589 573.833333333 576 607.333333333 576 648 c 2
 576 768 l 1
 856 768 l 1
 856 655 l 1
 698 655 l 1
 698 648 l 2
 698 644.666666667 699.166666667 641.5 701.5 638.5 c 128
 703.833333333 635.5 705.333333333 633.333333333 706 632 c 0
 712 626 719.666666667 623 729 623 c 2
 891 623 l 1
 891 796 l 2
 891 808.666666667 885.666666667 819.666666667 875 829 c 128
 864.333333333 838.333333333 851.333333333 843 836 843 c 2
 563 843 l 1
 566.333333333 837 568 830.333333333 568 823 c 2
 568 797 l 2
 568 773.666666667 560.666666667 753.666666667 546 737 c 1
 529.333333333 720.333333333 511.333333333 712 492 712 c 2
 161 712 l 1
 161 825 l 1
 443 825 l 2
 448.333333333 825 452.166666667 826.5 454.5 829.5 c 128
 456.833333333 832.5 458.333333333 834.666666667 459 836 c 128
 460 838 460 838 461 840 c 1
 453 840.666666667 446.333333333 841.666666667 441 843 c 1
 160 842 l 1
 160 956 l 1
 850 956 l 2
 881.333333333 956 910.333333333 950.666666667 937 940 c 1
 965 926 986.333333333 909.333333333 1001 890 c 0
 1008.33333333 879.333333333 1014.33333333 868.5 1019 857.5 c 128
 1023.66666667 846.5 1026 835 1026 823 c 2
 1027 508 l 1
998 128 m 2
 998 111.333333333 995.5 96 990.5 82 c 128
 985.5 68 978 54 968 40 c 1
 946 15.3333333333 919.333333333 3 888 3 c 2
 664 3 l 2
 642 3 621.666666667 10 603 24 c 1
 591 31.3333333333 581 41 573 53 c 1
 570.333333333 47.6666666667 566.333333333 42.3333333333 561 37 c 0
 559.666666667 35.6666666667 555 31.3333333333 547 24 c 1
 529.666666667 11.3333333333 512.666666667 5 496 5 c 2
 309 6 l 2
 267.666666667 6 231 20.1666666667 199 48.5 c 128
 167 76.8333333333 151 110.333333333 151 149 c 2
 151 274 l 1
 282 353 l 1
 313.333333333 374.333333333 334.333333333 388.666666667 345 396 c 0
 366.333333333 410 379.333333333 419.333333333 384 424 c 1
 399.333333333 436 407 448.333333333 407 461 c 2
 407 558 l 2
 407 568.666666667 396.333333333 574 375 574 c 2
 286 574 l 1
 286 532 l 2
 286 526 289 519.5 295 512.5 c 128
 301 505.5 308.666666667 502 318 502 c 2
 357 502 l 1
 357 388 l 1
 280 388 l 2
 244.666666667 388 214 402.333333333 188 431 c 128
 162 459.666666667 149 493.333333333 149 532 c 2
 149 687 l 1
 403 687 l 2
 427 687 450.166666667 682.333333333 472.5 673 c 128
 494.833333333 663.666666667 511 651.333333333 521 636 c 1
 535 617.333333333 542 598.666666667 542 580 c 2
 542 425 l 2
 542 410.333333333 534.666666667 396 520 382 c 1
 508 367.333333333 492.333333333 354 473 342 c 1
 457.666666667 330 425 308.666666667 375 278 c 1
 287 222 l 1
 287 159 l 2
 287 147 291 137.333333333 299 130 c 1
 307 120 318 115 332 115 c 2
 476 115 l 2
 483.333333333 115 490.166666667 120 496.5 130 c 128
 502.833333333 140 506.333333333 146.5 507 149.5 c 128
 507.666666667 152.5 508 157.666666667 508 165 c 2
 508 221 l 1
 642 221 l 1
 642 158 l 2
 642 148.666666667 646.166666667 139 654.5 129 c 128
 662.833333333 119 674 114 688 114 c 2
 802 114 l 2
 817.333333333 114 831.333333333 119.333333333 844 130 c 1
 856.666666667 144.666666667 863 156 863 164 c 2
 863 259 l 2
 863 269 858.833333333 277 850.5 283 c 128
 842.166666667 289 832.666666667 292 822 292 c 2
 778 292 l 1
 778 406 l 1
 888 406 l 2
 906.666666667 406 921.833333333 404 933.5 400 c 128
 945.166666667 396 956.333333333 388.666666667 967 378 c 1
 988.333333333 358.666666667 999 334.333333333 999 305 c 2
 998 128 l 2
EndSplineSet
EndChar

StartChar: ka.base
Encoding: 120 -1 120
Width: 554
Flags: HW
AnchorPoint: "s" 278 -62 basechar 0
LayerCount: 2
Fore
SplineSet
764 385 m 1
 581 385 l 1
 595.666666667 375 608.333333333 365 619 355 c 128
 629.666666667 345 641 333.666666667 653 321 c 1
 677.666666667 290.333333333 690 262 690 236 c 2
 690 136 l 2
 690 100.666666667 677.666666667 71 653 47 c 128
 628.333333333 23 600.666666667 9.66666666667 570 7 c 1
 300 6 l 2
 266.666666667 6 239.333333333 15.6666666667 218 35 c 0
 205.333333333 45.6666666667 196.666666667 56.3333333333 192 67 c 128
 187.333333333 77.6666666667 185 90.6666666667 185 106 c 2
 185 225 l 2
 185 267.666666667 223 321.666666667 299 387 c 1
 98 387 l 1
 98 500 l 1
 369 500 l 1
 369 571 l 1
 98 571 l 1
 98 684 l 1
 593 684 l 1
 593 571 l 1
 505 571 l 1
 505 500 l 1
 764 500 l 1
 764 385 l 1
556 162 m 1
 556 222 l 2
 556 245.333333333 545.333333333 268 524 290 c 0
 512 302.666666667 499.5 314.333333333 486.5 325 c 128
 473.5 335.666666667 457.666666667 345.666666667 439 355 c 1
 359 313 319 271 319 229 c 2
 319 158 l 2
 319 148.666666667 322.666666667 139 330 129 c 1
 332.666666667 127.666666667 336 126.166666667 340 124.5 c 128
 344 122.833333333 351 122 361 122 c 2
 530 118 l 2
 534 118 539 121 545 127 c 1
 550.333333333 137.666666667 554 149.333333333 556 162 c 1
EndSplineSet
EndChar

StartChar: ka.imathra
Encoding: 121 -1 121
Width: 651
Flags: HW
AnchorPoint: "s" 270 -80 basechar 0
LayerCount: 2
Fore
SplineSet
695 386 m 1
 560 386 l 1
 575.333333333 376 590 364.666666667 604 352 c 0
 614 342.666666667 626 330.333333333 640 315 c 1
 666 281 679 249.666666667 679 221 c 2
 679 107 l 2
 679 93 676.5 80.1666666667 671.5 68.5 c 128
 666.5 56.8333333333 658.666666667 45.6666666667 648 35 c 1
 626 15 599.666666667 5 569 5 c 2
 296 6 l 2
 262.666666667 6 233.666666667 15.6666666667 209 35 c 1
 185 56.3333333333 173 80.3333333333 173 107 c 2
 173 237 l 2
 173 249 176.666666667 261 184 273 c 0
 186.666666667 276.333333333 192.333333333 283.5 201 294.5 c 128
 209.666666667 305.5 225.333333333 321.166666667 248 341.5 c 128
 270.666666667 361.833333333 287.333333333 377 298 387 c 1
 143 387 l 1
 143 501 l 1
 404 501 l 1
 486 598 l 1
 486 738 l 2
 486 739.333333333 485.333333333 740.666666667 484 742 c 128
 482 744 482 744 481 745 c 1
 421 745 l 1
 421 698 l 1
 425 691 l 1
 439 686 l 1
 464 686 l 1
 464 573 l 1
 397 573 l 2
 368.333333333 573 342.666666667 582 320 600 c 128
 297.333333333 618 286 639 286 663 c 2
 286 859 l 1
 511 859 l 2
 542.333333333 859 568.666666667 850 590 832 c 128
 611.333333333 814 622 789.333333333 622 758 c 2
 621 576 l 1
 557 501 l 1
 695 501 l 1
 695 386 l 1
544 144 m 1
 544 223 l 2
 544 247 504 289.666666667 424 351 c 1
 346 287.666666667 307 243 307 217 c 2
 307 131 l 2
 307 126.333333333 309.666666667 122.166666667 315 118.5 c 128
 320.333333333 114.833333333 326 113 332 113 c 2
 523 113 l 2
 527.666666667 113 532 116.333333333 536 123 c 128
 540 129.666666667 542.666666667 136.666666667 544 144 c 1
EndSplineSet
LCarets2: 1 0
EndChar

StartChar: ka.sub
Encoding: 122 -1 122
Width: 172
Flags: HW
AnchorPoint: "Sub" -192 290 mark 0
AnchorPoint: "Sub" 304 -402 basemark 0
LayerCount: 2
Fore
SplineSet
358 -154 m 1
 251 -154 l 1
 287.666666667 -182.666666667 306 -209.333333333 306 -234 c 2
 306 -312 l 2
 306 -338 293.666666667 -361.666666667 269 -383 c 1
 241.666666667 -401.666666667 212.666666667 -411 182 -411 c 2
 10 -411 l 1
 -21.3333333333 -408.333333333 -50 -396.333333333 -76 -375 c 128
 -102 -353.666666667 -115 -328.333333333 -115 -299 c 2
 -115 -255 l 2
 -115 -224.333333333 -94.6666666667 -190 -54 -152 c 1
 -177 -152 l 1
 -177 -53 l 1
 48 -53 l 1
 113 14 l 1
 162 65 l 1
 168 72.3333333333 171 79.6666666667 171 87 c 2
 171 214 l 2
 171 231.333333333 148.333333333 248.666666667 103 266 c 1
 188 334 l 1
 257.333333333 288.666666667 292 252 292 224 c 2
 292 70 l 2
 292 62.6666666667 290 55.3333333333 286 48 c 128
 282 40.6666666667 275.333333333 31.6666666667 266 21 c 1
 185 -57 l 1
 358 -57 l 1
 358 -154 l 1
186 -285 m 2
 186 -238 l 2
 186 -232 184 -225.833333333 180 -219.5 c 128
 176 -213.166666667 169.333333333 -205 160 -195 c 1
 144.666666667 -182.333333333 121.666666667 -170.666666667 91 -160 c 1
 65 -168 44.6666666667 -180.5 30 -197.5 c 128
 15.3333333333 -214.5 8 -233 8 -253 c 2
 8 -292 l 2
 8 -299.333333333 10.6666666667 -305.666666667 16 -311 c 1
 26 -317 36.3333333333 -320 47 -320 c 2
 160 -320 l 2
 167.333333333 -320 173.5 -316.333333333 178.5 -309 c 128
 183.5 -301.666666667 186 -293.666666667 186 -285 c 2
EndSplineSet
LCarets2: 1 0
EndChar

StartChar: ka_rvocalicmatra.sub
Encoding: 123 -1 123
Width: 341
Flags: HW
LayerCount: 2
Fore
SplineSet
697 -268 m 1
 697 -308 683.666666667 -341.333333333 657 -368 c 1
 631 -396.666666667 596.666666667 -411 554 -411 c 2
 155 -409 l 2
 121.666666667 -409 92.6666666667 -397.833333333 68 -375.5 c 128
 43.3333333333 -353.166666667 31 -327.333333333 31 -298 c 2
 31 -111 l 1
 152 -111 l 1
 117 -89 l 1
 97.6666666667 -72.3333333333 88 -56.6666666667 88 -42 c 2
 88 51 l 2
 88 77.6666666667 104.666666667 104.333333333 138 131 c 1
 46 131 l 1
 46 231 l 1
 249 231 l 1
 249 337 l 1
 383 337 l 1
 383 231 l 1
 583 231 l 1
 583 131 l 1
 470 131 l 1
 479.333333333 127 488 121 496 113 c 1
 501.333333333 105.666666667 507 98.3333333333 513 91 c 1
 521 78.3333333333 525 65.6666666667 525 53 c 2
 525 -5 l 2
 525 -40.3333333333 511.666666667 -69 485 -91 c 1
 459 -117 427.333333333 -130 390 -130 c 2
 309 -130 l 1
 309 -208 l 1
 153 -208 l 1
 153 -283 l 1
 155.666666667 -290.333333333 158.333333333 -294.333333333 161 -295 c 1
 171.666666667 -302.333333333 180.666666667 -306 188 -306 c 2
 532 -306 l 2
 537.333333333 -306 542.666666667 -300 548 -288 c 1
 555.333333333 -276 559 -260.666666667 559 -242 c 2
 559 24 l 2
 559 36.6666666667 543.666666667 50 513 64 c 1
 604 145 l 1
 619.333333333 137 632 129.5 642 122.5 c 128
 652 115.5 661 107 669 97 c 1
 684.333333333 73.6666666667 692 50.3333333333 692 27 c 2
 697 -268 l 1
399 9 m 1
 399 53 l 2
 399 60.3333333333 397.666666667 68.3333333333 395 77 c 128
 392.333333333 85.6666666667 388 93 382 99 c 1
 374 112.333333333 360 122.666666667 340 130 c 1
 263 130 l 1
 246.333333333 120 233 109 223 97 c 1
 220.333333333 92.3333333333 217.5 86.5 214.5 79.5 c 128
 211.5 72.5 210 65 210 57 c 2
 210 -10 l 2
 210 -17.3333333333 212.333333333 -22.3333333333 217 -25 c 2
 230 -33 l 1
 384 -32 l 2
 387.333333333 -32 391 -28.1666666667 395 -20.5 c 128
 399 -12.8333333333 400.333333333 -3 399 9 c 1
EndSplineSet
EndChar

StartChar: kha
Encoding: 124 3222 124
Width: 981
Flags: HW
LayerCount: 2
Fore
SplineSet
1019 113 m 2
 1019 85 1011.33333333 58.6666666667 996 34 c 1
 974.666666667 10 953.333333333 -2 932 -2 c 2
 779 -2 l 2
 753 -2 723 10 689 34 c 1
 615 81 l 1
 609.666666667 69 603.5 58.8333333333 596.5 50.5 c 128
 589.5 42.1666666667 580 34 568 26 c 0
 541.333333333 7.33333333333 512.333333333 -2 481 -2 c 2
 237 -2 l 1
 225 -0.666666666667 212.833333333 2 200.5 6 c 128
 188.166666667 10 176.5 15.8333333333 165.5 23.5 c 128
 154.5 31.1666666667 146 40.3333333333 140 51 c 128
 134 61.6666666667 131 72.3333333333 131 83 c 2
 131 214 l 2
 131 242 140.666666667 265.333333333 160 284 c 1
 182 300.666666667 206.333333333 309 233 309 c 2
 440 309 l 2
 466 309 486.333333333 304.333333333 501 295 c 1
 501 524 l 2
 501 536 498.333333333 547 493 557 c 1
 488.333333333 562.333333333 483.333333333 565 478 565 c 2
 348 565 l 1
 343 561 l 1
 340.333333333 555.666666667 339 546 339 532 c 2
 339 422 l 1
 202 422 l 1
 202 571 l 2
 202 602.333333333 214 628 238 648 c 1
 258 667.333333333 287.333333333 677 326 677 c 2
 505 677 l 2
 541 677 572 663.833333333 598 637.5 c 128
 624 611.166666667 637 580 637 544 c 2
 637 208 l 1
 732 131 l 1
 751.333333333 114.333333333 772.666666667 106 796 106 c 2
 861 106 l 2
 868.333333333 106 874 110.166666667 878 118.5 c 128
 882 126.833333333 884 137 884 149 c 2
 884 534 l 2
 884 544 880.5 551.333333333 873.5 556 c 128
 866.5 560.666666667 857.666666667 563 847 563 c 2
 714 563 l 1
 714 675 l 1
 894 675 l 2
 911.333333333 675 927.166666667 672.666666667 941.5 668 c 128
 955.833333333 663.333333333 969 655 981 643 c 1
 1007 619.666666667 1020 592.333333333 1020 561 c 2
 1019 113 l 2
497 137 m 1
 497 165 l 1
 481.666666667 183.666666667 456.333333333 193 421 193 c 2
 293 193 l 2
 282.333333333 193 274.333333333 191.666666667 269 189 c 1
 262 187 l 1
 262 125 l 1
 264.666666667 119.666666667 266.666666667 116.666666667 268 116 c 0
 274 111.333333333 280 109 286 109 c 2
 459 109 l 2
 469 109 477.666666667 112.666666667 485 120 c 1
 492.333333333 125.333333333 496.333333333 131 497 137 c 1
EndSplineSet
LCarets2: 1 0
EndChar

StartChar: kha.base
Encoding: 125 -1 125
Width: 812
Flags: HW
LayerCount: 2
Fore
SplineSet
1021 113 m 2
 1021 82.3333333333 1012.16666667 55.5 994.5 32.5 c 128
 976.833333333 9.5 955.666666667 -2 931 -2 c 1
 929 0 l 1
 778 0 l 2
 752 0 722 12 688 36 c 1
 623 75 l 1
 617 55.6666666667 601 38.3333333333 575 23 c 128
 549 7.66666666667 518.333333333 0 483 0 c 2
 248 0 l 2
 216.666666667 0 189.333333333 7.66666666667 166 23 c 1
 155.333333333 31 147 40.3333333333 141 51 c 128
 135 61.6666666667 132 72.3333333333 132 83 c 2
 132 214 l 2
 132 242 142.166666667 264.833333333 162.5 282.5 c 128
 182.833333333 300.166666667 208.666666667 309 240 309 c 2
 441 309 l 2
 467 309 487.333333333 304.333333333 502 295 c 1
 502 538 l 2
 502 545.333333333 499.666666667 551.666666667 495 557 c 128
 490.333333333 562.333333333 484.333333333 565 477 565 c 2
 363 565 l 2
 355.666666667 565 349.666666667 563.333333333 345 560 c 1
 340.333333333 552.666666667 338 543.666666667 338 533 c 2
 338 423 l 1
 203 423 l 1
 203 572 l 2
 203 603.333333333 215 629 239 649 c 1
 249 658.333333333 261.833333333 665.5 277.5 670.5 c 128
 293.166666667 675.5 309.333333333 678 326 678 c 2
 506 678 l 2
 542 678 572.833333333 665 598.5 639 c 128
 624.166666667 613 637 581.333333333 637 544 c 2
 637 207 l 1
 732 146 l 1
 760.666666667 120 782.333333333 107 797 107 c 2
 878 107 l 2
 883.333333333 107 886 110.666666667 886 118 c 2
 886 463 l 2
 886 493.666666667 875.333333333 517.333333333 854 534 c 1
 832 553.333333333 806.333333333 563 777 563 c 2
 717 563 l 1
 717 675 l 1
 844 675 l 1
 879.333333333 670.333333333 911 658 939 638 c 1
 965.666666667 616 986.333333333 591 1001 563 c 1
 1008.33333333 544.333333333 1013.83333333 528 1017.5 514 c 128
 1021.16666667 500 1023 483.333333333 1023 464 c 2
 1021 113 l 2
500 138 m 1
 500 157 l 1
 472 181 440 193 404 193 c 2
 280 193 l 2
 274.666666667 193 270.666666667 192.333333333 268 191 c 1
 266 187 l 1
 266 125 l 1
 267.333333333 119.666666667 268.666666667 116.666666667 270 116 c 0
 276 111.333333333 282 109 288 109 c 2
 461 109 l 2
 469 109 477.166666667 112 485.5 118 c 128
 493.833333333 124 498.666666667 130.666666667 500 138 c 1
EndSplineSet
EndChar

StartChar: kha.imathra
Encoding: 126 -1 126
Width: 981
Flags: HW
LayerCount: 2
Fore
SplineSet
1021 114 m 2
 1021 82.6666666667 1012.16666667 55.5 994.5 32.5 c 128
 976.833333333 9.5 955.666666667 -2 931 -2 c 1
 929 0 l 1
 778 0 l 2
 752 0 722 12 688 36 c 1
 614 82 l 1
 604.666666667 60 590.666666667 41.6666666667 572 27 c 1
 545.333333333 9.66666666667 518.666666667 1 492 1 c 2
 248 1 l 2
 216.666666667 1 189.333333333 8.66666666667 166 24 c 1
 155.333333333 32 147 41.3333333333 141 52 c 128
 135 62.6666666667 132 73.3333333333 132 84 c 2
 132 217 l 2
 132 245 142.666666667 267.666666667 164 285 c 1
 182.666666667 302.333333333 208.333333333 311 241 311 c 2
 442 311 l 2
 462 311 482 302.333333333 502 285 c 1
 502 528 l 2
 502 538.666666667 498.333333333 548.666666667 491 558 c 0
 487.666666667 561.333333333 484 563.833333333 480 565.5 c 128
 476 567.166666667 471.333333333 568 466 568 c 2
 364 568 l 2
 358.666666667 568 353 565.666666667 347 561 c 1
 342.333333333 553.666666667 340 545 340 535 c 2
 340 423 l 1
 205 423 l 1
 205 574 l 2
 205 606.666666667 217 632.333333333 241 651 c 1
 251.666666667 661.666666667 264.666666667 669.333333333 280 674 c 128
 295.333333333 678.666666667 311.333333333 681 328 681 c 2
 508 681 l 2
 544 681 574.833333333 668 600.5 642 c 128
 626.166666667 616 639 584 639 546 c 2
 639 211 l 1
 718 147 l 1
 760 121 796.666666667 108 828 108 c 2
 864 108 l 2
 870 108 875.333333333 110.5 880 115.5 c 128
 884.666666667 120.5 887 126 887 132 c 2
 887 624 l 2
 887 634 885 642 881 648 c 128
 877 654 871.333333333 657 864 657 c 2
 828 657 l 2
 820 657 814.666666667 656.666666667 812 656 c 1
 811 651 l 1
 810 632 l 1
 811.333333333 620 813.333333333 612.5 816 609.5 c 128
 818.666666667 606.5 820.833333333 604.333333333 822.5 603 c 128
 824.166666667 601.666666667 825.666666667 601 827 601 c 2
 881 601 l 1
 881 488 l 1
 776 488 l 2
 748 488 724 498.666666667 704 520 c 1
 684 539.333333333 674 563.333333333 674 592 c 2
 674 684 l 2
 674 710 685.666666667 731.333333333 709 748 c 128
 732.333333333 764.666666667 760.333333333 773 793 773 c 2
 907 773 l 2
 939.666666667 773 967.333333333 761.333333333 990 738 c 128
 1012.66666667 714.666666667 1024 686 1024 652 c 2
 1021 114 l 2
501 139 m 1
 501 154 l 1
 468.333333333 180.666666667 438.666666667 194 412 194 c 2
 291 194 l 2
 280.333333333 194 273.333333333 193.333333333 270 192 c 1
 268 188 l 1
 268 134 l 1
 272 116 l 1
 279 109 l 1
 466 109 l 2
 473.333333333 109 481.333333333 112.166666667 490 118.5 c 128
 498.666666667 124.833333333 502.333333333 131.666666667 501 139 c 1
EndSplineSet
LCarets2: 1 0
EndChar

StartChar: kha.sub
Encoding: 127 -1 127
Width: 163
Flags: HW
AnchorPoint: "Sub" -303 289 mark 0
AnchorPoint: "Sub" 329 -401 basemark 0
LayerCount: 2
Fore
SplineSet
333 -232 m 2
 333 -251.333333333 329.166666667 -270 321.5 -288 c 128
 313.833333333 -306 303 -322 289 -336 c 0
 258.333333333 -366.666666667 221.666666667 -382 179 -382 c 2
 110 -382 l 2
 98 -382 71.6666666667 -375 31 -361 c 1
 -14.3333333333 -392.333333333 -50.3333333333 -408 -77 -408 c 2
 -228 -408 l 2
 -240.666666667 -408 -253.5 -405.666666667 -266.5 -401 c 128
 -279.5 -396.333333333 -291 -390.333333333 -301 -383 c 0
 -321 -367.666666667 -331 -348 -331 -324 c 2
 -331 -266 l 2
 -331 -240 -321 -217.333333333 -301 -198 c 0
 -291.666666667 -188.666666667 -281 -182 -269 -178 c 128
 -257 -174 -243.333333333 -172 -228 -172 c 2
 -114 -172 l 2
 -99.3333333333 -172 -89 -174.333333333 -83 -179 c 2
 -29 -214 l 1
 -29 -153 l 2
 -29 -141 -33 -130 -41 -120 c 1
 -51 -112 -61.3333333333 -108 -72 -108 c 1
 -72 -159 l 1
 -192 -159 l 1
 -192 -13 l 1
 -45 -13 l 2
 -4.33333333333 -13 29.1666666667 -27.1666666667 55.5 -55.5 c 128
 81.8333333333 -83.8333333333 95 -116.666666667 95 -154 c 2
 95 -282 l 1
 104.333333333 -287.333333333 113.666666667 -290 123 -290 c 2
 180 -290 l 2
 189.333333333 -290 196.333333333 -285 201 -275 c 1
 209 -260.333333333 213 -245.333333333 213 -230 c 2
 213 183 l 2
 213 191 208.166666667 198.833333333 198.5 206.5 c 128
 188.833333333 214.166666667 174.666666667 218 156 218 c 2
 89 218 l 1
 89 322 l 1
 165 322 l 2
 209.666666667 322 249 310 283 286 c 1
 316.333333333 258 333 226 333 190 c 2
 333 -232 l 2
-71 -309 m 1
 -97 -290.333333333 -122 -281 -146 -281 c 2
 -209 -281 l 2
 -211.666666667 -281 -213.833333333 -281.166666667 -215.5 -281.5 c 128
 -217.166666667 -281.833333333 -218.333333333 -282.333333333 -219 -283 c 1
 -219 -315 l 1
 -208 -317 l 1
 -92 -317 l 1
 -71 -309 l 1
EndSplineSet
LCarets2: 1 0
EndChar

StartChar: ga.base
Encoding: 129 -1 129
Width: 578
Flags: HW
LayerCount: 2
Fore
SplineSet
788 0 m 1
 654 0 l 1
 654 482 l 2
 654 489.333333333 652.666666667 496.333333333 650 503 c 128
 647.333333333 509.666666667 643.666666667 516.666666667 639 524 c 0
 629 538 615.666666667 549 599 557 c 0
 589.666666667 561.666666667 581.333333333 564.333333333 574 565 c 128
 566.666666667 565.666666667 556.666666667 566 544 566 c 2
 437 566 l 2
 407.666666667 566 383.5 557.833333333 364.5 541.5 c 128
 345.5 525.166666667 336 504.666666667 336 480 c 2
 336 -2 l 1
 199 -2 l 1
 199 486 l 2
 199 515.333333333 211.333333333 542 236 566 c 1
 199 566 l 1
 199 679 l 1
 611 679 l 1
 663.666666667 668.333333333 707 644.333333333 741 607 c 1
 773.666666667 567 790 524.666666667 790 480 c 2
 788 0 l 1
EndSplineSet
EndChar

StartChar: ga.imathra
Encoding: 130 -1 130
Width: 765
Flags: HW
LayerCount: 2
Fore
SplineSet
803 0 m 1
 668 0 l 1
 668 487 l 2
 668 511 660.833333333 531.333333333 646.5 548 c 128
 632.166666667 564.666666667 614 573 592 573 c 2
 406 573 l 2
 384 573 367 565.666666667 355 551 c 1
 341 536.333333333 334 517 334 493 c 2
 334 1 l 1
 197 1 l 1
 197 488 l 2
 197 524.666666667 205.333333333 555 222 579 c 1
 232.666666667 599 247.666666667 616 267 630 c 1
 249.666666667 636 234.666666667 646.333333333 222 661 c 1
 214 669 208 678.333333333 204 689 c 128
 200 699.666666667 198 711 198 723 c 2
 198 790 l 2
 198 816 209.666666667 838.666666667 233 858 c 1
 255.666666667 875.333333333 283.333333333 884 316 884 c 2
 507 884 l 2
 561.666666667 884 611.333333333 870.333333333 656 843 c 128
 700.666666667 815.666666667 737 777.333333333 765 728 c 1
 791 676 804 622.666666667 804 568 c 2
 803 0 l 1
657 663 m 1
 646.333333333 689 628.666666667 711.666666667 604 731 c 1
 566.666666667 757 523.333333333 770 474 770 c 2
 374 770 l 2
 357.333333333 770 346.666666667 769.333333333 342 768 c 128
 337.333333333 766.666666667 335 762.333333333 335 755 c 2
 335 723 l 2
 335 711 336.833333333 701.833333333 340.5 695.5 c 128
 344.166666667 689.166666667 347.333333333 685.666666667 350 685 c 1
 593 685 l 2
 619 685 640.333333333 677.666666667 657 663 c 1
EndSplineSet
LCarets2: 1 0
EndChar

StartChar: ga.sub
Encoding: 131 -1 131
Width: 99
Flags: HW
AnchorPoint: "Sub" -212 -58 mark 0
AnchorPoint: "Sub" 206 -418 basemark 0
LayerCount: 2
Fore
SplineSet
215 -410 m 1
 94 -410 l 1
 94 -193 l 2
 94 -187.666666667 92.6666666667 -182.666666667 90 -178 c 128
 87.3333333333 -173.333333333 83.6666666667 -168.666666667 79 -164 c 1
 69.6666666667 -156.666666667 59 -153 47 -153 c 2
 -38 -153 l 2
 -52 -153 -63.3333333333 -156 -72 -162 c 1
 -79.3333333333 -170 -83 -180 -83 -192 c 2
 -83 -409 l 1
 -206 -409 l 1
 -206 -192 l 2
 -206 -152 -191.666666667 -119 -163 -93 c 1
 -137 -67 -103.333333333 -54 -62 -54 c 2
 61 -54 l 2
 102.333333333 -54 138.666666667 -65.6666666667 170 -89 c 0
 184.666666667 -99.6666666667 195.666666667 -112.833333333 203 -128.5 c 128
 210.333333333 -144.166666667 214 -160.666666667 214 -178 c 2
 215 -410 l 1
EndSplineSet
LCarets2: 1 0
EndChar

StartChar: gha.base
Encoding: 133 -1 133
Width: 1019
Flags: HW
LayerCount: 2
Fore
SplineSet
1243 569 m 1
 933 569 l 1
 954.333333333 547 966.666666667 520 970 488 c 1
 1000.66666667 441.333333333 1028 418 1052 418 c 1
 1064 418.666666667 1073.66666667 422 1081 428 c 1
 1088.33333333 437.333333333 1092 443.333333333 1092 446 c 2
 1092 549 l 1
 1226 549 l 1
 1226 460 l 2
 1226 446 1224.66666667 433.166666667 1222 421.5 c 128
 1219.33333333 409.833333333 1215.33333333 396.666666667 1210 382 c 1
 1198 358 1183.33333333 339 1166 325 c 1
 1158 319.666666667 1149.33333333 315 1140 311 c 128
 1130.66666667 307 1118.66666667 305 1104 305 c 2
 1047 306 l 2
 1020.33333333 306 996 314.333333333 974 331 c 1
 973 142 l 2
 973 102 960.666666667 68.6666666667 936 42 c 1
 912 12.6666666667 883 -2 849 -2 c 2
 677 -2 l 2
 647.666666667 -2 623 8 603 28 c 0
 595 36 595 36 582.5 48.5 c 128
 574.166666667 56.8333333333 568.333333333 65 565 73 c 1
 557 56.3333333333 544.666666667 41.3333333333 528 28 c 1
 508.666666667 8 486 -2 460 -2 c 2
 280 -1 l 2
 249.333333333 -1 223.333333333 11.3333333333 202 36 c 128
 180.666666667 60.6666666667 170 89.6666666667 170 123 c 2
 170 418 l 1
 337 418 l 2
 358.333333333 418 376.333333333 415.5 391 410.5 c 128
 405.666666667 405.5 420 396 434 382 c 1
 462.666666667 357.333333333 477 326.333333333 477 289 c 2
 477 253 l 1
 340 253 l 1
 340 283 l 2
 340 288.333333333 338.166666667 293.333333333 334.5 298 c 128
 330.833333333 302.666666667 324.333333333 305 315 305 c 2
 304 305 l 1
 304 152 l 2
 304 141.333333333 306.666666667 132.333333333 312 125 c 1
 320 117 325.666666667 113 329 113 c 2
 443 113 l 2
 455.666666667 113 466.666666667 121.666666667 476 139 c 1
 488.666666667 159 495 181 495 205 c 2
 495 284 l 1
 630 284 l 1
 630 205 l 2
 630 185.666666667 637.166666667 165.333333333 651.5 144 c 128
 665.833333333 122.666666667 678.333333333 112 689 112 c 2
 803 112 l 2
 809 112 816.666666667 115.666666667 826 123 c 1
 832 130.333333333 835 140 835 152 c 2
 835 471 l 2
 835 497.666666667 822.666666667 521 798 541 c 128
 773.333333333 561 744 571 710 571 c 2
 162 571 l 1
 162 684 l 1
 1245 684 l 1
 1243 569 l 1
628 398 m 1
 493 398 l 1
 493 525 l 1
 628 525 l 1
 628 398 l 1
628 -141 m 1
 493 -141 l 1
 493 12 l 1
 628 12 l 1
 628 -141 l 1
EndSplineSet
EndChar

StartChar: gha.imathra
Encoding: 134 -1 134
Width: 1213
Flags: HW
LayerCount: 2
Fore
SplineSet
628 597 m 2
 628 563 617 535.333333333 595 514 c 1
 573.666666667 492 548.333333333 481 519 481 c 2
 322 481 l 1
 322 594 l 1
 473 594 l 1
 479 595.333333333 483.666666667 598.333333333 487 603 c 1
 490.333333333 610.333333333 492 617 492 623 c 2
 492 737 l 2
 492 747.666666667 490.333333333 756.666666667 487 764 c 1
 483.666666667 768.666666667 479.333333333 771 474 771 c 2
 423 771 l 2
 417.666666667 771 415 768.666666667 415 764 c 2
 415 736 l 1
 416 729 l 1
 423 725 l 1
 486 725 l 1
 486 611 l 1
 381 611 l 2
 355 611 331.333333333 620.666666667 310 640 c 1
 290 656.666666667 280 678 280 704 c 2
 280 778 l 2
 280 794.666666667 282.5 809 287.5 821 c 128
 292.5 833 301.333333333 844 314 854 c 1
 334 874 360.666666667 884 394 884 c 2
 531 884 l 2
 559.666666667 884 582.666666667 874 600 854 c 1
 618.666666667 835.333333333 628 810.666666667 628 780 c 2
 628 597 l 2
1256 460 m 1
 1256 422 1245.33333333 390.666666667 1224 366 c 128
 1202.66666667 341.333333333 1176.33333333 329 1145 329 c 2
 1046 329 l 2
 1020 329 995.333333333 338.333333333 972 357 c 1
 971 141 l 2
 971 101 958.666666667 67 934 39 c 1
 910.666666667 10.3333333333 881.333333333 -4 846 -4 c 1
 846 15 l 1
 848 -4 l 1
 676 -3 l 2
 648 -3 622.333333333 4.66666666667 599 20 c 0
 582.333333333 30.6666666667 570 43.6666666667 562 59 c 1
 552.666666667 43.6666666667 540.666666667 30 526 18 c 1
 502.666666667 2.66666666667 478.666666667 -5 454 -5 c 2
 277 -4 l 2
 246.333333333 -4 220.333333333 6.66666666667 199 28 c 128
 177.666666667 49.3333333333 167 75.3333333333 167 106 c 2
 167 416 l 1
 335 416 l 2
 375 416 407.333333333 405 432 383 c 1
 460.666666667 359.666666667 475 331.666666667 475 299 c 2
 475 249 l 1
 338 249 l 1
 338 293 l 1
 331 298 l 1
 327.666666667 299.333333333 321 300 311 300 c 2
 303 300 l 1
 303 146 l 2
 303 135.333333333 305.666666667 126.166666667 311 118.5 c 128
 316.333333333 110.833333333 321.333333333 107 326 107 c 2
 440 107 l 2
 454.666666667 107 466.666666667 115.666666667 476 133 c 1
 488.666666667 151.666666667 495 174 495 200 c 2
 495 281 l 1
 630 281 l 1
 629 200 l 2
 629 180.666666667 636.666666667 160.333333333 652 139 c 1
 666 117.666666667 678.333333333 107 689 107 c 2
 803 107 l 2
 811 107 818.5 111.333333333 825.5 120 c 128
 832.5 128.666666667 836 137.666666667 836 147 c 2
 836 526 l 2
 836 536 831.333333333 546.333333333 822 557 c 1
 814.666666667 563 803.666666667 566 789 566 c 2
 698 566 l 1
 698 680 l 1
 824 680 l 2
 852.666666667 680 877.833333333 671.833333333 899.5 655.5 c 128
 921.166666667 639.166666667 938.333333333 619 951 595 c 1
 963.666666667 567 970 539 970 511 c 1
 1003.33333333 463.666666667 1029 440 1047 440 c 2
 1098 440 l 2
 1101.33333333 440 1105.33333333 443.833333333 1110 451.5 c 128
 1114.66666667 459.166666667 1117 470 1117 484 c 2
 1117 680 l 1
 1251 680 l 1
 1256 460 l 1
623 -171 m 1
 488 -171 l 1
 488 -18 l 1
 623 -18 l 1
 623 -171 l 1
EndSplineSet
LCarets2: 1 0
EndChar

StartChar: gha.sub
Encoding: 135 -1 135
Width: 210
Flags: HW
AnchorPoint: "Sub" -390 121 mark 0
AnchorPoint: "Sub" 392 -392 basemark 0
LayerCount: 2
Fore
SplineSet
429 -37 m 2
 429 -85 405.333333333 -123.333333333 358 -152 c 1
 358 -233 l 2
 358 -247.666666667 355.5 -261.5 350.5 -274.5 c 128
 345.5 -287.5 338 -300 328 -312 c 1
 306 -335.333333333 279.333333333 -347 248 -347 c 2
 96 -347 l 2
 71.3333333333 -347 47.3333333333 -339.333333333 24 -324 c 0
 5.33333333333 -312 -11 -296.333333333 -25 -277 c 1
 -32.3333333333 -287 -40.5 -296.666666667 -49.5 -306 c 128
 -58.5 -315.333333333 -68 -322.666666667 -78 -328 c 1
 -104.666666667 -346.666666667 -131.333333333 -356 -158 -356 c 2
 -307 -356 l 2
 -337.666666667 -356 -362.666666667 -346.333333333 -382 -327 c 1
 -404 -307.666666667 -415 -285 -415 -259 c 2
 -415 -168 l 2
 -415 -136 -404.333333333 -111.333333333 -383 -94 c 1
 -363 -74 -337.666666667 -64 -307 -64 c 2
 -152 -64 l 1
 -152 -162 l 1
 -271 -162 l 2
 -278.333333333 -162 -284.333333333 -164 -289 -168 c 128
 -293.666666667 -172 -296 -177 -296 -183 c 2
 -296 -241 l 1
 -292 -252 l 1
 -284.666666667 -255.333333333 -280.333333333 -257 -279 -257 c 2
 -149 -257 l 2
 -139 -257 -125.666666667 -247.333333333 -109 -228 c 128
 -92.3333333333 -208.666666667 -84 -191.333333333 -84 -176 c 2
 -84 -129 l 1
 39 -129 l 1
 39 -183 l 2
 39 -195.666666667 46.3333333333 -209 61 -223 c 1
 68.3333333333 -228.333333333 75.8333333333 -233.333333333 83.5 -238 c 128
 91.1666666667 -242.666666667 98.6666666667 -245 106 -245 c 2
 226 -245 l 2
 234 -245 238 -239.666666667 238 -229 c 2
 238 -187 l 1
 125 -187 l 1
 125 -88 l 1
 263 -88 l 2
 275.666666667 -88 286.833333333 -82.3333333333 296.5 -71 c 128
 306.166666667 -59.6666666667 311 -47.6666666667 311 -35 c 2
 311 39 l 2
 311 43.6666666667 291.666666667 58 253 82 c 1
 323 161 l 1
 394.333333333 117.666666667 430 79 430 45 c 2
 429 -37 l 2
36 -411 m 1
 -87 -411 l 1
 -87 -336 l 1
 -26 -268 l 1
 34 -336 l 1
 36 -411 l 1
EndSplineSet
LCarets2: 1 0
EndChar

StartChar: nga
Encoding: 136 3225 136
Width: 915
Flags: HW
LayerCount: 2
Fore
SplineSet
958 116 m 1
 958 84.6666666667 947.166666667 57.6666666667 925.5 35 c 128
 903.833333333 12.3333333333 877.666666667 1 847 1 c 2
 646 2 l 2
 622.666666667 2 600.333333333 9 579 23 c 1
 566.333333333 32.3333333333 556 44 548 58 c 1
 546.666666667 53.3333333333 543.5 47.5 538.5 40.5 c 128
 533.5 33.5 528.333333333 27.6666666667 523 23 c 0
 505.666666667 8.33333333333 486.333333333 1 465 1 c 2
 272 2 l 2
 242.666666667 2 214.666666667 11.6666666667 188 31 c 1
 164.666666667 51 153 75 153 103 c 2
 153 250 l 1
 367 416 l 2
 377.666666667 424 383 438.666666667 383 460 c 2
 383 539 l 2
 383 546.333333333 379 553 371 559 c 1
 363 563.666666667 351.666666667 566 337 566 c 2
 291 566 l 1
 291 538 l 2
 291 528 293 521.166666667 297 517.5 c 128
 301 513.833333333 303.333333333 511.666666667 304 511 c 128
 305 510 305 510 306 509 c 1
 332 509 l 1
 332 396 l 1
 249 397 l 2
 223 397 200.5 407.666666667 181.5 429 c 128
 162.5 450.333333333 153 476.333333333 153 507 c 2
 153 680 l 1
 358 680 l 2
 392 680 422 673.666666667 448 661 c 0
 468 651.666666667 481.666666667 637.666666667 489 619 c 1
 532.333333333 659.666666667 578.666666667 680 628 680 c 2
 843 680 l 2
 869 680 889.666666667 672.333333333 905 657 c 1
 913 647 919 637 923 627 c 128
 927 617 929 606 929 594 c 2
 929 503 l 1
 794 503 l 1
 794 547 l 2
 794 552.333333333 792.5 557 789.5 561 c 128
 786.5 565 780 567 770 567 c 2
 661 567 l 2
 641.666666667 567 625 565.5 611 562.5 c 128
 597 559.5 583 554 569 546 c 0
 538.333333333 529.333333333 516 509 502 485 c 1
 502 431 l 2
 502 383.666666667 485.666666667 350 453 330 c 1
 287 189 l 1
 287 140 l 2
 287 134.666666667 290.666666667 129.333333333 298 124 c 128
 305.333333333 118.666666667 315 116 327 116 c 2
 418 116 l 2
 433.333333333 116 447.5 120.5 460.5 129.5 c 128
 473.5 138.5 480 148 480 158 c 2
 480 219 l 1
 615 219 l 1
 615 158 l 2
 615 147.333333333 619.666666667 138 629 130 c 1
 641.666666667 120.666666667 656.666666667 116 674 116 c 2
 802 116 l 2
 808 116 811.666666667 116.833333333 813 118.5 c 128
 815 121 815 121 817 123.5 c 128
 818.333333333 125.166666667 819 127.666666667 819 131 c 2
 819 264 l 2
 819 283.333333333 816.333333333 293 811 293 c 2
 720 293 l 1
 720 405 l 1
 844 405 l 2
 866 405 884.666666667 400 900 390 c 1
 917.333333333 382 930.666666667 370.333333333 940 355 c 1
 949.333333333 336.333333333 954 317.666666667 954 299 c 2
 958 116 l 1
610 255 m 1
 475 255 l 1
 475 382 l 1
 610 382 l 1
 610 255 l 1
EndSplineSet
LCarets2: 1 0
EndChar

StartChar: nga.sub
Encoding: 137 -1 137
Width: 196
Flags: HW
AnchorPoint: "Sub" -384 -30 mark 0
AnchorPoint: "Sub" 402 -401 basemark 0
LayerCount: 2
Fore
SplineSet
77 -228 m 1
 -43 -228 l 1
 -43 -144 l 1
 77 -144 l 1
 77 -228 l 1
401 -314 m 2
 401 -340.666666667 391.333333333 -362.333333333 372 -379 c 1
 352.666666667 -398.333333333 330 -408 304 -408 c 2
 104 -408 l 2
 93.3333333333 -408 83.3333333333 -406.5 74 -403.5 c 128
 64.6666666667 -400.5 55.3333333333 -395.833333333 46 -389.5 c 128
 36.6666666667 -383.166666667 28 -374.666666667 20 -364 c 1
 15.3333333333 -372 6 -380.666666667 -8 -390 c 0
 -27.3333333333 -402.666666667 -46.6666666667 -409 -66 -409 c 2
 -281 -409 l 2
 -295.666666667 -409 -309 -407 -321 -403 c 128
 -333 -399 -345 -393 -357 -385 c 1
 -379 -368.333333333 -390 -347.666666667 -390 -323 c 2
 -390 -252 l 2
 -390 -228.666666667 -381 -209.666666667 -363 -195 c 128
 -345 -180.333333333 -322 -173 -294 -173 c 2
 -223 -173 l 1
 -219 -169 l 1
 -219 -146 l 1
 -223 -142 l 1
 -376 -142 l 1
 -376 -46 l 1
 -179 -46 l 2
 -159 -46 -143 -50 -131 -58 c 0
 -125 -61.3333333333 -119.666666667 -67 -115 -75 c 1
 -95.6666666667 -55 -70 -45 -38 -45 c 2
 134 -45 l 2
 164.666666667 -45 190.666666667 -52.6666666667 212 -68 c 128
 233.333333333 -83.3333333333 244 -104 244 -130 c 2
 244 -192 l 1
 124 -192 l 1
 124 -143 l 2
 124 -135.666666667 114.333333333 -132 95 -132 c 2
 -19 -132 l 2
 -35.6666666667 -132 -50.6666666667 -137.333333333 -64 -148 c 1
 -71.3333333333 -152.666666667 -77.6666666667 -158.166666667 -83 -164.5 c 128
 -88.3333333333 -170.833333333 -92.6666666667 -178 -96 -186 c 1
 -96 -218 l 2
 -96 -230 -103.833333333 -241.333333333 -119.5 -252 c 128
 -135.166666667 -262.666666667 -152.666666667 -268 -172 -268 c 2
 -251 -268 l 2
 -261 -268 -266 -270.333333333 -266 -275 c 2
 -266 -300 l 1
 -262 -305 l 1
 -251 -310 l 1
 -86 -310 l 2
 -73.3333333333 -310 -62.1666666667 -306.833333333 -52.5 -300.5 c 128
 -42.8333333333 -294.166666667 -38 -288 -38 -282 c 2
 -38 -235 l 1
 82 -235 l 1
 82 -275 l 2
 82 -287 86 -295.666666667 94 -301 c 1
 106 -311 117 -316 127 -316 c 2
 265 -316 l 2
 272.333333333 -316 277.5 -313.5 280.5 -308.5 c 128
 283.5 -303.5 285.166666667 -300.333333333 285.5 -299 c 128
 285.833333333 -297.666666667 286.333333333 -296.666666667 287 -296 c 1
 287 -222 l 1
 403 -222 l 1
 401 -314 l 2
EndSplineSet
LCarets2: 1 0
EndChar

StartChar: ca.base
Encoding: 139 -1 139
Width: 819
Flags: HW
LayerCount: 2
Fore
SplineSet
1033 331 m 1
 934 331 l 1
 943.333333333 319 948 305.333333333 948 290 c 2
 948 117 l 2
 948 84.3333333333 936 57.3333333333 912 36 c 1
 888.666666667 12.6666666667 860.666666667 1 828 1 c 2
 621 2 l 2
 599.666666667 2 580.666666667 7.33333333333 564 18 c 0
 556 23.3333333333 549.333333333 30 544 38 c 1
 538.666666667 30 531 23.3333333333 521 18 c 1
 502.333333333 6 481 0 457 0 c 2
 280 1 l 2
 244.666666667 1 216 13 194 37 c 1
 168 61.6666666667 155 90.3333333333 155 123 c 2
 155 274 l 1
 371 407 l 1
 371 534 l 2
 371 544 367.333333333 552 360 558 c 128
 352.666666667 564 342.666666667 567 330 567 c 2
 293 567 l 1
 292 535 l 1
 292.666666667 527.666666667 296 521.5 302 516.5 c 128
 308 511.5 312.666666667 509 316 509 c 2
 349 509 l 1
 349 396 l 1
 258 397 l 2
 230 397 205.833333333 407 185.5 427 c 128
 165.166666667 447 155 471 155 499 c 2
 155 680 l 1
 387 680 l 2
 420.333333333 680 448.666666667 668.166666667 472 644.5 c 128
 495.333333333 620.833333333 507 592.666666667 507 560 c 2
 507 343 l 1
 292 202 l 1
 291 156 l 1
 291.666666667 143.333333333 295 132.833333333 301 124.5 c 128
 307 116.166666667 315 112 325 112 c 2
 444 112 l 2
 456 112 465.833333333 115.166666667 473.5 121.5 c 128
 481.166666667 127.833333333 485 134.666666667 485 142 c 2
 485 216 l 1
 620 216 l 1
 620 155 l 2
 620 143 623 132.833333333 629 124.5 c 128
 635 116.166666667 642 112 650 112 c 2
 770 112 l 2
 782.666666667 112 792.833333333 115.166666667 800.5 121.5 c 128
 808.166666667 127.833333333 812 134.666666667 812 142 c 2
 812 282 l 2
 812 296.666666667 807 307.666666667 797 315 c 1
 789 324.333333333 778.666666667 329 766 329 c 2
 614 329 l 1
 614 442 l 1
 790 442 l 1
 790 566 l 1
 614 566 l 1
 614 679 l 1
 857 679 l 1
 924 580 l 1
 925 442 l 1
 1034 442 l 1
 1033 331 l 1
EndSplineSet
EndChar

StartChar: ca.imathra
Encoding: 140 -1 140
Width: 996
Flags: HW
LayerCount: 2
Fore
SplineSet
1038 333 m 1
 939 333 l 1
 948.333333333 321 953 306.666666667 953 290 c 2
 953 118 l 2
 953 87.3333333333 944 60.1666666667 926 36.5 c 128
 908 12.8333333333 886.666666667 1 862 1 c 2
 626 2 l 2
 606 2 588.333333333 8 573 20 c 1
 552 39 l 1
 547.333333333 33 539.666666667 27 529 21 c 0
 509 8.33333333333 488 2 466 2 c 2
 273 2 l 2
 243.666666667 2 218.166666667 11.6666666667 196.5 31 c 128
 174.833333333 50.3333333333 164 73 164 99 c 2
 164 292 l 1
 379 412 l 1
 379 539 l 2
 379 549 374.833333333 557 366.5 563 c 128
 358.166666667 569 348.666666667 572 338 572 c 2
 301 572 l 1
 301 539 l 2
 301 531.666666667 302.666666667 525.666666667 306 521 c 1
 313.333333333 515.666666667 319.333333333 513 324 513 c 2
 371 513 l 1
 371 400 l 1
 266 400 l 2
 238 400 214.666666667 409.666666667 196 429 c 1
 174.666666667 446.333333333 164 467 164 491 c 2
 164 685 l 1
 404 685 l 2
 436.666666667 685 463.166666667 673 483.5 649 c 128
 503.833333333 625 514 598.666666667 514 570 c 2
 514 346 l 1
 299 219 l 1
 298 147 l 1
 299.333333333 137.666666667 303 130 309 124 c 128
 315 118 322 115 330 115 c 2
 436 115 l 2
 450.666666667 115 463.5 118.166666667 474.5 124.5 c 128
 485.5 130.833333333 491 137.666666667 491 145 c 2
 491 247 l 1
 626 247 l 1
 626 158 l 2
 626 146 629.5 135.833333333 636.5 127.5 c 128
 643.5 119.166666667 650 115 656 115 c 2
 791 115 l 2
 798.333333333 115 804.333333333 118 809 124 c 1
 815 130 818 136.666666667 818 144 c 2
 818 285 l 2
 818 295 814.333333333 304.666666667 807 314 c 1
 797 324 786 330.333333333 774 333 c 1
 618 332 l 1
 618 445 l 1
 781 445 l 1
 805.666666667 457 818 471.666666667 818 489 c 2
 818 661 l 2
 818 662.333333333 815 662.833333333 809 662.5 c 128
 803 662.166666667 797 662 791 662 c 2
 749 662 l 1
 751.666666667 656 753 650.333333333 753 645 c 2
 753 622 l 1
 754.333333333 616.666666667 755.666666667 613.666666667 757 613 c 0
 764.333333333 608.333333333 769.666666667 606 773 606 c 2
 823 606 l 1
 823 493 l 1
 710 493 l 2
 686 493 664.333333333 502 645 520 c 128
 625.666666667 538 616 559 616 583 c 2
 616 689 l 2
 616 715.666666667 625 737.166666667 643 753.5 c 128
 661 769.833333333 683.333333333 778 710 778 c 2
 845 778 l 2
 875.666666667 778 900.333333333 767.333333333 919 746 c 1
 940.333333333 726 951 700.666666667 951 670 c 2
 951 503 l 2
 951 483 945.666666667 464.666666667 935 448 c 1
 1037 448 l 1
 1038 333 l 1
EndSplineSet
LCarets2: 1 0
EndChar

StartChar: ca.sub
Encoding: 141 -1 141
Width: 196
Flags: HW
AnchorPoint: "Sub" -388 214 mark 0
AnchorPoint: "Sub" 354 -401 basemark 0
LayerCount: 2
Fore
SplineSet
401 -158 m 1
 338 -158 l 1
 350.666666667 -173.333333333 357 -192.666666667 357 -216 c 2
 357 -308 l 2
 357 -334.666666667 347.333333333 -357.5 328 -376.5 c 128
 308.666666667 -395.5 286.666666667 -405 262 -405 c 2
 118 -405 l 2
 89.3333333333 -405 62.6666666667 -397.666666667 38 -383 c 1
 23.3333333333 -373 12 -360.666666667 4 -346 c 1
 -5.33333333333 -362.666666667 -17.3333333333 -375.666666667 -32 -385 c 1
 -42.6666666667 -390.333333333 -55 -395 -69 -399 c 128
 -83 -403 -96 -405 -108 -405 c 2
 -262 -405 l 1
 -283.333333333 -406.333333333 -300 -405.5 -312 -402.5 c 128
 -324 -399.5 -338.333333333 -394.333333333 -355 -387 c 1
 -365.666666667 -381 -374 -373 -380 -363 c 128
 -386 -353 -389 -343 -389 -333 c 2
 -389 -247 l 2
 -389 -223 -380.666666667 -203.333333333 -364 -188 c 1
 -344 -174 -323.333333333 -167 -302 -167 c 2
 -231 -167 l 2
 -225 -167 -218.333333333 -164.666666667 -211 -160 c 1
 -206 -155 l 1
 -206 -137 l 1
 -213.333333333 -135.666666667 -219.333333333 -135 -224 -135 c 2
 -377 -135 l 1
 -377 -37 l 1
 -191 -37 l 2
 -163 -37 -138 -42 -116 -52 c 1
 -106 -60 -98 -68.1666666667 -92 -76.5 c 128
 -86 -84.8333333333 -83 -93.6666666667 -83 -103 c 2
 -83 -189 l 2
 -83 -211 -93.6666666667 -231.666666667 -115 -251 c 1
 -137 -268.333333333 -162.333333333 -277 -191 -277 c 2
 -253 -277 l 1
 -265 -279 l 1
 -267 -284 l 1
 -267 -298 l 1
 -263 -302 l 1
 -252 -307 l 1
 -121 -307 l 2
 -104.333333333 -307 -89 -301 -75 -289 c 128
 -61 -277 -54 -262.333333333 -54 -245 c 2
 -54 -189 l 1
 67 -189 l 1
 67 -253 l 2
 67 -263 73.1666666667 -274.5 85.5 -287.5 c 128
 97.8333333333 -300.5 109.333333333 -307 120 -307 c 2
 212 -307 l 2
 214.666666667 -307 220.666666667 -304.666666667 230 -300 c 1
 235.333333333 -294.666666667 238 -287.333333333 238 -278 c 2
 238 -199 l 2
 238 -188.333333333 233.833333333 -178.833333333 225.5 -170.5 c 128
 217.166666667 -162.166666667 205.666666667 -158 191 -158 c 2
 53 -158 l 1
 53 -59 l 1
 143 -59 l 1
 186.333333333 -19 208 15.3333333333 208 44 c 2
 208 231 l 1
 332 231 l 1
 331 44 l 2
 331 8.66666666667 315.666666667 -25.6666666667 285 -59 c 1
 402 -59 l 1
 401 -158 l 1
EndSplineSet
LCarets2: 1 0
EndChar

StartChar: cha.base
Encoding: 143 -1 143
Width: 729
Flags: HW
LayerCount: 2
Fore
SplineSet
942 121 m 2
 942 87 929.666666667 58 905 34 c 1
 881 9.33333333333 852 -3 818 -3 c 2
 674 -3 l 2
 649.333333333 -3 627 4.33333333333 607 19 c 1
 595 26.3333333333 584.333333333 36 575 48 c 1
 569 37.3333333333 559.666666667 28 547 20 c 1
 527 5.33333333333 506.333333333 -2 485 -2 c 2
 329 -1 l 2
 295 -1 264.5 9.66666666667 237.5 31 c 128
 210.5 52.3333333333 197 80 197 114 c 2
 197 548 l 2
 197 574 203 597.833333333 215 619.5 c 128
 227 641.166666667 243 656 263 664 c 1
 281.666666667 676 303.333333333 682 328 682 c 2
 545 682 l 1
 545 499 l 2
 545 466.333333333 534.833333333 438.666666667 514.5 416 c 128
 494.166666667 393.333333333 470.666666667 382 444 382 c 2
 353 382 l 1
 353 496 l 1
 390 496 l 1
 395.333333333 497.333333333 399.833333333 500.5 403.5 505.5 c 128
 407.166666667 510.5 409 517 409 525 c 2
 409 567 l 1
 370 567 l 2
 357.333333333 567 348 564.333333333 342 559 c 1
 336 551.666666667 333 543.333333333 333 534 c 2
 333 147 l 2
 333 137 336.166666667 128.166666667 342.5 120.5 c 128
 348.833333333 112.833333333 355.666666667 109 363 109 c 2
 458 109 l 2
 465.333333333 109 471.666666667 110.166666667 477 112.5 c 128
 482.333333333 114.833333333 489 118.666666667 497 124 c 1
 506.333333333 136.666666667 511 145.666666667 511 151 c 2
 511 228 l 1
 645 228 l 1
 645 151 l 2
 645 143 649.166666667 134 657.5 124 c 128
 665.833333333 114 677 109 691 109 c 2
 776 109 l 2
 785.333333333 109 793.5 113.666666667 800.5 123 c 128
 807.5 132.333333333 811 142 811 152 c 2
 811 527 l 2
 811 546.333333333 794.666666667 559.666666667 762 567 c 1
 610 566 l 1
 610 679 l 1
 776 679 l 1
 824 673.666666667 864.333333333 657 897 629 c 1
 929.666666667 598.333333333 946 564.333333333 946 527 c 2
 942 121 l 2
644 -164 m 1
 510 -164 l 1
 510 -12 l 1
 644 -12 l 1
 644 -164 l 1
EndSplineSet
EndChar

StartChar: cha.imathra
Encoding: 144 -1 144
Width: 901
Flags: HW
LayerCount: 2
Fore
SplineSet
942 123 m 2
 942 89 931.166666667 59.5 909.5 34.5 c 128
 887.833333333 9.5 861.333333333 -3 830 -3 c 2
 674 -3 l 2
 649.333333333 -3 627 4.33333333333 607 19 c 1
 593 27 582.333333333 37.3333333333 575 50 c 1
 571.666666667 42.6666666667 568.166666667 37.1666666667 564.5 33.5 c 128
 560.833333333 29.8333333333 555 24.3333333333 547 17 c 1
 528.333333333 3.66666666667 507.333333333 -3 484 -3 c 2
 328 -2 l 2
 294 -2 263.5 9.16666666667 236.5 31.5 c 128
 209.5 53.8333333333 196 81.6666666667 196 115 c 2
 196 550 l 2
 196 574 201.333333333 596.666666667 212 618 c 0
 218 628.666666667 224.833333333 637.833333333 232.5 645.5 c 128
 240.166666667 653.166666667 249.333333333 659.666666667 260 665 c 1
 278.666666667 677 300.333333333 683 325 683 c 2
 542 683 l 1
 542 500 l 2
 542 466.666666667 531.833333333 438.666666667 511.5 416 c 128
 491.166666667 393.333333333 467.666666667 382 441 382 c 2
 350 382 l 1
 350 498 l 1
 387 498 l 1
 401 502 l 1
 402.333333333 503.333333333 403.166666667 504.666666667 403.5 506 c 128
 404 508 404 508 405 512 c 1
 405 568 l 1
 366 568 l 2
 354 568 344.333333333 565.666666667 337 561 c 1
 331 553.666666667 328 545 328 535 c 2
 328 148 l 2
 328 136 332.166666667 126.5 340.5 119.5 c 128
 348.833333333 112.5 357.666666667 109 367 109 c 2
 453 109 l 2
 459 109 464.666666667 110.166666667 470 112.5 c 128
 475.333333333 114.833333333 482.666666667 118.333333333 492 123 c 1
 501.333333333 135.666666667 506 145 506 151 c 2
 506 227 l 1
 640 227 l 1
 640 151 l 2
 640 141.666666667 644.333333333 132.166666667 653 122.5 c 128
 661.666666667 112.833333333 672.333333333 108 685 108 c 2
 770 108 l 2
 779.333333333 108 787.5 112.333333333 794.5 121 c 128
 801.5 129.666666667 805 139.333333333 805 150 c 2
 805 641 l 2
 805 649 802.333333333 656.5 797 663.5 c 128
 791.666666667 670.5 786.333333333 674 781 674 c 2
 738 674 l 2
 730 674 723.666666667 672.333333333 719 669 c 1
 715.666666667 663.666666667 714 658.666666667 714 654 c 2
 714 614 l 2
 714 608.666666667 715.666666667 603.333333333 719 598 c 1
 726.333333333 592.666666667 732.666666667 590 738 590 c 2
 782 590 l 1
 782 477 l 1
 701 478 l 2
 667 478 638 487.666666667 614 507 c 1
 589.333333333 529 577 555.666666667 577 587 c 2
 577 680 l 2
 577 711.333333333 587.666666667 736.333333333 609 755 c 1
 630.333333333 776.333333333 656.333333333 787 687 787 c 2
 825 787 l 2
 846.333333333 787 866.333333333 781 885 769 c 1
 895 761 903.166666667 753.333333333 909.5 746 c 128
 915.833333333 738.666666667 921.333333333 730 926 720 c 128
 930.666666667 710 934.333333333 699.666666667 937 689 c 128
 939.666666667 678.333333333 941 667 941 655 c 2
 942 123 l 2
639 -166 m 1
 505 -166 l 1
 505 -13 l 1
 639 -13 l 1
 639 -166 l 1
EndSplineSet
LCarets2: 1 0
EndChar

StartChar: cha.sub
Encoding: 145 -1 145
Width: 156
Flags: HW
AnchorPoint: "Sub" -310 146 mark 0
AnchorPoint: "Sub" 325 -372 basemark 0
LayerCount: 2
Fore
SplineSet
333 -232 m 2
 333 -272.666666667 324 -307.333333333 306 -336 c 128
 288 -364.666666667 266.666666667 -379 242 -379 c 2
 117 -379 l 2
 90.3333333333 -379 68 -372 50 -358 c 1
 36.6666666667 -350 27 -340 21 -328 c 1
 15 -338.666666667 6 -348.666666667 -6 -358 c 0
 -24 -372 -44.6666666667 -379 -68 -379 c 2
 -212 -378 l 1
 -217 -377 l 1
 -243.666666667 -377 -267 -366 -287 -344 c 1
 -306.333333333 -320 -316 -295 -316 -269 c 2
 -316 -163 l 2
 -316 -133.666666667 -306.333333333 -108 -287 -86 c 1
 -267 -66 -240.666666667 -56 -208 -56 c 2
 -77 -56 l 1
 -77 -168 l 1
 -180 -168 l 1
 -187.333333333 -169.333333333 -191.833333333 -171.333333333 -193.5 -174 c 128
 -195.166666667 -176.666666667 -196 -182.666666667 -196 -192 c 2
 -196 -249 l 2
 -196 -258.333333333 -194 -264.5 -190 -267.5 c 128
 -186 -270.5 -182.666666667 -272 -180 -272 c 2
 -78 -272 l 2
 -67.3333333333 -272 -59 -267.333333333 -53 -258 c 1
 -43.6666666667 -248 -39 -234.333333333 -39 -217 c 2
 -39 -175 l 1
 75 -175 l 1
 75 -222 l 2
 75 -237.333333333 78.8333333333 -249.333333333 86.5 -258 c 128
 94.1666666667 -266.666666667 103.333333333 -271 114 -271 c 2
 185 -271 l 2
 195 -271 204.666666667 -267.333333333 214 -260 c 1
 222 -250 226 -240 226 -230 c 2
 226 -25 l 2
 226 7.66666666667 217 35.3333333333 199 58 c 128
 181 80.6666666667 153.333333333 95.6666666667 116 103 c 1
 158 201 l 1
 202.666666667 191 234.666666667 176.333333333 254 157 c 1
 280.666666667 135.666666667 301 108.333333333 315 75 c 128
 329 41.6666666667 336 8 336 -26 c 2
 333 -232 l 2
79 -441 m 1
 -42 -441 l 1
 -42 -383 l 1
 20 -312 l 1
 77 -383 l 1
 79 -441 l 1
EndSplineSet
LCarets2: 1 0
EndChar

StartChar: ja
Encoding: 146 3228 146
Width: 928
Flags: HW
LayerCount: 2
Fore
SplineSet
971 270 m 1
 970 116 l 2
 970 96.6666666667 965 77.6666666667 955 59 c 1
 951.666666667 51 945.833333333 43.3333333333 937.5 36 c 128
 929.166666667 28.6666666667 922 22.6666666667 916 18 c 1
 906 14 896.666666667 10.5 888 7.5 c 128
 879.333333333 4.5 870.333333333 3 861 3 c 2
 642 3 l 2
 622.666666667 3 603.666666667 10 585 24 c 1
 575.666666667 30 568.333333333 37.6666666667 563 47 c 1
 559.666666667 39 553.333333333 32 544 26 c 1
 530 11.3333333333 512.333333333 4 491 4 c 2
 270 5 l 2
 240.666666667 5 212.666666667 14.6666666667 186 34 c 1
 162.666666667 54 151 78 151 106 c 2
 151 279 l 1
 380 393 l 1
 399.333333333 408.333333333 409 423 409 437 c 2
 409 529 l 2
 409 539.666666667 404 549.166666667 394 557.5 c 128
 384 565.833333333 371.666666667 570 357 570 c 2
 303 570 l 1
 303 523 l 2
 303 520.333333333 313.666666667 519 335 519 c 2
 374 519 l 1
 374 398 l 1
 278 399 l 2
 246.666666667 399 221 409 201 429 c 1
 179.666666667 447.666666667 169 471.333333333 169 500 c 2
 169 681 l 1
 402 681 l 2
 426.666666667 681 450 677.333333333 472 670 c 1
 496.666666667 658 513.666666667 645 523 631 c 1
 537.666666667 616.333333333 545 599.333333333 545 580 c 1
 568.333333333 551.333333333 591.666666667 537 615 537 c 2
 759 537 l 2
 762.333333333 537 765.333333333 537.833333333 768 539.5 c 128
 770.666666667 541.166666667 773.166666667 542.833333333 775.5 544.5 c 128
 777.833333333 546.166666667 779.166666667 547.666666667 779.5 549 c 128
 779.833333333 550.333333333 780.333333333 551.333333333 781 552 c 1
 781 574 l 1
 776.333333333 578.666666667 772.666666667 581 770 581 c 2
 738 581 l 1
 738 694 l 1
 799 694 l 2
 820.333333333 694 840.333333333 689.333333333 859 680 c 128
 877.666666667 670.666666667 890.666666667 658.333333333 898 643 c 1
 910 627.666666667 916 609.333333333 916 588 c 2
 916 528 l 2
 916 514.666666667 913.5 502.166666667 908.5 490.5 c 128
 903.5 478.833333333 895.666666667 467.666666667 885 457 c 1
 863 437 836.666666667 427 806 427 c 2
 629 427 l 2
 602.333333333 427 574.666666667 436.333333333 546 455 c 1
 546 405 l 2
 546 388.333333333 541.833333333 372.666666667 533.5 358 c 128
 525.166666667 343.333333333 513.666666667 330 499 318 c 1
 289 215 l 1
 289 157 l 2
 289 145 293.333333333 135.666666667 302 129 c 128
 310.666666667 122.333333333 319.666666667 119 329 119 c 2
 457 119 l 2
 464.333333333 119 472.666666667 123.166666667 482 131.5 c 128
 491.333333333 139.833333333 496 150 496 162 c 2
 496 212 l 1
 631 212 l 1
 631 169 l 2
 631 159 636 148 646 136 c 1
 658.666666667 125.333333333 671.333333333 120 684 120 c 2
 790 120 l 2
 802.666666667 120 812.666666667 124.666666667 820 134 c 1
 830.666666667 144.666666667 836 156.333333333 836 169 c 2
 836 255 l 2
 836 262.333333333 832.333333333 268.666666667 825 274 c 128
 817.666666667 279.333333333 808.666666667 282 798 282 c 2
 723 282 l 1
 723 395 l 1
 871 395 l 2
 898.333333333 395 922.166666667 382.666666667 942.5 358 c 128
 962.833333333 333.333333333 972.333333333 304 971 270 c 1
EndSplineSet
LCarets2: 1 0
EndChar

StartChar: ja.base
Encoding: 147 -1 147
Width: 756
Flags: HW
LayerCount: 2
Fore
SplineSet
972 130 m 2
 972 97.3333333333 959.666666667 67.5 935 40.5 c 128
 910.333333333 13.5 881 0 847 0 c 2
 637 1 l 2
 618.333333333 1 600.666666667 7.33333333333 584 20 c 0
 574 28 566.666666667 36 562 44 c 1
 556.666666667 34.6666666667 549 26.3333333333 539 19 c 0
 521 5 500 -2 476 -2 c 2
 268 -1 l 2
 237.333333333 -1 210.166666667 9 186.5 29 c 128
 162.833333333 49 151 73 151 101 c 2
 151 274 l 1
 361 387 l 1
 393.666666667 413.666666667 410 437 410 457 c 2
 410 522 l 2
 410 532.666666667 406 543 398 553 c 1
 390.666666667 559 381 562 369 562 c 2
 304 562 l 1
 304 541 l 2
 304 533.666666667 305.666666667 527 309 521 c 1
 312.333333333 518.333333333 314.666666667 516.333333333 316 515 c 128
 317.333333333 513.666666667 318.666666667 513 320 513 c 2
 359 513 l 1
 359 392 l 1
 277 393 l 2
 248.333333333 393 222.833333333 402.666666667 200.5 422 c 128
 178.166666667 441.333333333 167 465.333333333 167 494 c 2
 167 675 l 1
 398 675 l 2
 422.666666667 675 446.166666667 670.166666667 468.5 660.5 c 128
 490.833333333 650.833333333 509.333333333 636 524 616 c 1
 538 599.333333333 545 580.333333333 545 559 c 1
 565 540.333333333 582 531 596 531 c 2
 734 531 l 2
 735.333333333 531 738.666666667 533.333333333 744 538 c 128
 749.333333333 542.666666667 752 548.666666667 752 556 c 2
 752 563 l 1
 594 563 l 1
 594 676 l 1
 764 676 l 2
 800 676 829.333333333 666.333333333 852 647 c 128
 874.666666667 627.666666667 886 603.666666667 886 575 c 2
 886 522 l 2
 886 495.333333333 874.666666667 471.833333333 852 451.5 c 128
 829.333333333 431.166666667 803.333333333 421 774 421 c 2
 623 421 l 2
 596.333333333 421 569.666666667 430.333333333 543 449 c 1
 543 413 l 2
 543 388.333333333 522 359.333333333 480 326 c 1
 286 209 l 1
 286 151 l 2
 286 141.666666667 289.166666667 132.833333333 295.5 124.5 c 128
 301.833333333 116.166666667 311 112 323 112 c 2
 451 112 l 2
 460.333333333 112 470 116 480 124 c 1
 488 134 492 144 492 154 c 2
 492 203 l 1
 627 203 l 1
 627 161 l 2
 627 147 630.833333333 135.166666667 638.5 125.5 c 128
 646.166666667 115.833333333 654.666666667 111 664 111 c 2
 787 111 l 2
 799 111 810 115 820 123 c 1
 829.333333333 133.666666667 834 143.666666667 834 153 c 2
 834 253 l 2
 834 257.666666667 830.5 262.333333333 823.5 267 c 128
 816.5 271.666666667 806 274 792 274 c 2
 720 274 l 1
 720 386 l 1
 858 386 l 2
 891.333333333 386 917.666666667 376 937 356 c 1
 958.333333333 337.333333333 969 312.333333333 969 281 c 2
 972 130 l 2
EndSplineSet
EndChar

StartChar: ja.imathra
Encoding: 148 -1 148
Width: 939
Flags: HW
LayerCount: 2
Fore
SplineSet
981 117 m 2
 981 84.3333333333 968.5 56.6666666667 943.5 34 c 128
 918.5 11.3333333333 889.333333333 0 856 0 c 2
 632 1 l 2
 610.666666667 1 593 7.33333333333 579 20 c 1
 571 24.6666666667 564 32.3333333333 558 43 c 1
 552.666666667 33 546.333333333 25.3333333333 539 20 c 1
 523.666666667 6 506 -1 486 -1 c 2
 278 -1 l 2
 261.333333333 -1 245.166666667 2 229.5 8 c 128
 213.833333333 14 199.666666667 22.3333333333 187 33 c 0
 162.333333333 55 150 82.3333333333 150 115 c 2
 150 261 l 1
 387 401 l 1
 399.666666667 415 406 429.666666667 406 445 c 2
 406 534 l 2
 406 543.333333333 403.333333333 551.666666667 398 559 c 1
 390.666666667 564.333333333 383 567 375 567 c 2
 300 567 l 1
 299 535 l 1
 301.666666667 527 303.666666667 522.333333333 305 521 c 128
 306.333333333 519.666666667 307.833333333 518.666666667 309.5 518 c 128
 311.166666667 517.333333333 313.666666667 517 317 517 c 2
 356 517 l 1
 356 396 l 1
 274 397 l 2
 243.333333333 397 218 407 198 427 c 1
 176 445.666666667 165 469.333333333 165 498 c 2
 165 681 l 1
 395 681 l 2
 435.666666667 681 469.666666667 672.666666667 497 656 c 128
 524.333333333 639.333333333 539.333333333 619 542 595 c 1
 577.333333333 578.333333333 612 570 646 570 c 2
 679 570 l 1
 679 686 l 2
 679 715.333333333 689 739.666666667 709 759 c 0
 718.333333333 768.333333333 730.166666667 775.333333333 744.5 780 c 128
 758.833333333 784.666666667 773 787 787 787 c 2
 858 787 l 2
 890.666666667 787 917.5 775.666666667 938.5 753 c 128
 959.5 730.333333333 970 703.333333333 970 672 c 2
 970 566 l 2
 970 533.333333333 957 506.333333333 931 485 c 1
 909 461 880.333333333 449 845 449 c 2
 663 449 l 2
 620.333333333 449 579.666666667 456.333333333 541 471 c 1
 541 407 l 2
 541 376.333333333 530 354 508 340 c 1
 284 210 l 1
 284 142 l 2
 284 134.666666667 287 128.333333333 293 123 c 1
 297.666666667 115.666666667 305 112 315 112 c 2
 449 112 l 2
 454.333333333 112 459.333333333 113.333333333 464 116 c 128
 468.666666667 118.666666667 474.166666667 122.166666667 480.5 126.5 c 128
 486.833333333 130.833333333 490 138.333333333 490 149 c 2
 490 203 l 1
 625 203 l 1
 625 161 l 2
 625 145.666666667 629.166666667 133.5 637.5 124.5 c 128
 645.833333333 115.5 653.666666667 111 661 111 c 2
 805 111 l 2
 813 111 822.333333333 115.666666667 833 125 c 1
 841 135 845 144.666666667 845 154 c 2
 845 242 l 2
 845 252 840.333333333 260.166666667 831 266.5 c 128
 821.666666667 272.833333333 810.666666667 276 798 276 c 2
 717 276 l 1
 717 389 l 1
 855 389 l 2
 879.666666667 389 899 385.333333333 913 378 c 128
 927 370.666666667 937 364.5 943 359.5 c 128
 949 354.5 954.666666667 347 960 337 c 1
 972.666666667 320.333333333 979 302.333333333 979 283 c 2
 981 117 l 2
844 595 m 2
 844 660 l 2
 844 670 839.333333333 675 830 675 c 2
 812 675 l 1
 798 671 l 2
 796.666666667 670.333333333 795.666666667 667 795 661 c 1
 795 563 l 1
 827 563 l 2
 829.666666667 563 833.666666667 565.666666667 839 571 c 1
 842.333333333 577 844 585 844 595 c 2
EndSplineSet
LCarets2: 1 0
EndChar

StartChar: ja.sub
Encoding: 149 -1 149
Width: 189
Flags: HW
AnchorPoint: "Sub" -356 32 mark 0
AnchorPoint: "Sub" 378 -410 basemark 0
LayerCount: 2
Fore
SplineSet
385 -120 m 1
 385 -146.666666667 375.333333333 -168.333333333 356 -185 c 1
 336.666666667 -204.333333333 314 -214 288 -214 c 2
 73 -214 l 2
 21 -214 -36 -187.666666667 -98 -135 c 1
 -47 -64 l 1
 23 -100 60 -118 64 -118 c 2
 236 -118 l 2
 242 -118 248.666666667 -115.333333333 256 -110 c 1
 258.666666667 -109.333333333 260.333333333 -107.833333333 261 -105.5 c 128
 261.666666667 -103.166666667 262 -101.666666667 262 -101 c 2
 262 -64 l 2
 262 -56 250.333333333 -43.6666666667 227 -27 c 1
 299 40 l 1
 355 4 383 -30.6666666667 383 -64 c 1
 385 -120 l 1
394 -302 m 1
 394 -330.666666667 384.666666667 -355 366 -375 c 1
 349.333333333 -398.333333333 326.333333333 -410 297 -410 c 2
 125 -410 l 2
 102.333333333 -410 79.3333333333 -403 56 -389 c 1
 48.6666666667 -383.666666667 42.6666666667 -378.666666667 38 -374 c 128
 33.3333333333 -369.333333333 29.3333333333 -364 26 -358 c 1
 2 -393.333333333 -30 -411 -70 -411 c 2
 -271 -411 l 2
 -299.666666667 -411 -326 -403.333333333 -350 -388 c 0
 -359.333333333 -382.666666667 -366.333333333 -376.333333333 -371 -369 c 0
 -379 -357 -383 -343.666666667 -383 -329 c 2
 -383 -261 l 2
 -383 -234.333333333 -374.666666667 -214 -358 -200 c 1
 -342.666666667 -183.333333333 -322 -175 -296 -175 c 2
 -225 -175 l 2
 -220.333333333 -175 -216.333333333 -173.333333333 -213 -170 c 1
 -208 -163 l 1
 -208 -147 l 1
 -216 -145 l 1
 -370 -145 l 1
 -370 -39 l 1
 -188 -39 l 2
 -161.333333333 -39 -137.333333333 -46.3333333333 -116 -61 c 1
 -96 -79.6666666667 -86 -99.6666666667 -86 -121 c 2
 -86 -203 l 2
 -86 -221.666666667 -95.1666666667 -238.166666667 -113.5 -252.5 c 128
 -131.833333333 -266.833333333 -152 -274 -174 -274 c 2
 -245 -274 l 2
 -257 -274 -263 -275.666666667 -263 -279 c 2
 -263 -305 l 1
 -259 -310 l 2
 -255.666666667 -313.333333333 -251.333333333 -315 -246 -315 c 2
 -90 -315 l 2
 -80 -315 -68.3333333333 -310 -55 -300 c 1
 -44.3333333333 -290 -39 -278.666666667 -39 -266 c 2
 -39 -226 l 1
 84 -226 l 1
 84 -266 l 2
 84 -278.666666667 90 -290 102 -300 c 128
 114 -310 126 -315 138 -315 c 2
 254 -315 l 1
 259.333333333 -311.666666667 262.833333333 -309.666666667 264.5 -309 c 128
 266.166666667 -308.333333333 267.666666667 -305.666666667 269 -301 c 1
 269 -226 l 1
 390 -226 l 1
 394 -302 l 1
EndSplineSet
LCarets2: 1 0
EndChar

StartChar: jha.sub
Encoding: 154 -1 154
Width: 207
Flags: HW
AnchorPoint: "Sub" -408 -35 mark 0
AnchorPoint: "Sub" 423 -372 basemark 0
LayerCount: 2
Fore
SplineSet
429 -261 m 2
 429 -295 416.666666667 -323 392 -345 c 1
 368.666666667 -369 339.333333333 -381 304 -381 c 2
 205 -381 l 2
 183 -381 165 -372.333333333 151 -355 c 1
 133.666666667 -372.333333333 110.333333333 -381 81 -381 c 2
 -5 -381 l 2
 -26.3333333333 -381 -45.3333333333 -374 -62 -360 c 1
 -82 -374 -104 -381 -128 -381 c 2
 -284 -381 l 2
 -322.666666667 -381 -354 -369 -378 -345 c 1
 -402.666666667 -323 -415 -295 -415 -261 c 2
 -415 -141 l 2
 -415 -109.666666667 -401.666666667 -83.3333333333 -375 -62 c 1
 -361 -52 -346.166666667 -44.3333333333 -330.5 -39 c 128
 -314.833333333 -33.6666666667 -297.333333333 -31 -278 -31 c 2
 -148 -31 l 2
 -110.666666667 -31 -78.3333333333 -42.6666666667 -51 -66 c 128
 -23.6666666667 -89.3333333333 -10 -116.666666667 -10 -148 c 2
 -10 -258 l 2
 -10 -265.333333333 -7 -271.666666667 -1 -277 c 1
 9.66666666667 -283 17.3333333333 -286 22 -286 c 2
 64 -286 l 2
 66.6666666667 -286 71.1666666667 -283.666666667 77.5 -279 c 128
 83.8333333333 -274.333333333 87 -268.333333333 87 -261 c 2
 87 -159 l 2
 87 -149 82 -139 72 -129 c 128
 62 -119 40.3333333333 -110 7 -102 c 1
 91 -30 l 1
 127.666666667 -40 156.666666667 -56.3333333333 178 -79 c 1
 199.333333333 -107 210 -132 210 -154 c 2
 210 -270 l 2
 210 -274.666666667 211.333333333 -278.333333333 214 -281 c 1
 226 -286 l 1
 277 -286 l 2
 284.333333333 -286 291.833333333 -283 299.5 -277 c 128
 307.166666667 -271 311 -264.333333333 311 -257 c 2
 311 -168 l 1
 310.333333333 -156 303.5 -143.5 290.5 -130.5 c 128
 277.5 -117.5 251.666666667 -106 213 -96 c 1
 294 -29 l 1
 315.333333333 -34.3333333333 333.833333333 -41.1666666667 349.5 -49.5 c 128
 365.166666667 -57.8333333333 379.333333333 -68 392 -80 c 0
 416.666666667 -102 429 -126.333333333 429 -153 c 2
 429 -261 l 2
210 -409 m 1
 87 -409 l 1
 87 -379 l 1
 151 -350 l 1
 209 -379 l 1
 210 -409 l 1
-134 -251 m 2
 -134 -167 l 2
 -134 -156.333333333 -139.333333333 -147 -150 -139 c 1
 -157.333333333 -131.666666667 -167.333333333 -128 -180 -128 c 2
 -261 -128 l 2
 -273 -128 -281.666666667 -131 -287 -137 c 1
 -294.333333333 -141.666666667 -298 -149.333333333 -298 -160 c 2
 -298 -251 l 2
 -298 -259.666666667 -293 -267.666666667 -283 -275 c 128
 -273 -282.333333333 -263 -286 -253 -286 c 2
 -175 -286 l 2
 -167.666666667 -286 -159 -282.333333333 -149 -275 c 128
 -139 -267.666666667 -134 -259.666666667 -134 -251 c 2
EndSplineSet
LCarets2: 1 0
EndChar

StartChar: jha.part
Encoding: 155 -1 155
Width: 431
Flags: HW
LayerCount: 2
Fore
SplineSet
471 134 m 2
 471 116.666666667 468 100.333333333 462 85 c 128
 456 69.6666666667 447 54.3333333333 435 39 c 1
 408.333333333 11 378.333333333 -3 345 -3 c 2
 173 -3 l 2
 116.333333333 -3 61 33.3333333333 7 106 c 1
 7 261 l 1
 26 265 l 1
 47.3333333333 219.666666667 76.3333333333 182.666666667 113 154 c 128
 149.666666667 125.333333333 183.333333333 111 214 111 c 2
 277 111 l 2
 294.333333333 111 307 116.333333333 315 127 c 1
 327 139 333 152.333333333 333 167 c 2
 333 522 l 2
 333 528 331.833333333 533.333333333 329.5 538 c 128
 327.166666667 542.666666667 323.333333333 548 318 554 c 0
 310 563.333333333 299.666666667 568 287 568 c 2
 147 568 l 1
 147 681 l 1
 322 681 l 2
 362.666666667 681 397.666666667 665.666666667 427 635 c 1
 455.666666667 601.666666667 470 563.666666667 470 521 c 2
 471 134 l 2
470 -192 m 1
 333 -192 l 1
 333 -38 l 1
 470 -38 l 1
 470 -192 l 1
EndSplineSet
EndChar

StartChar: nya
Encoding: 157 3230 157
Width: 1159
Flags: HW
LayerCount: 2
Fore
SplineSet
1206 482 m 1
 1206 456 1196.66666667 430.666666667 1178 406 c 1
 1158 382.666666667 1135 371 1109 371 c 2
 1027 371 l 1
 1027 484 l 1
 1052 484 l 2
 1064 484 1070 494 1070 514 c 2
 1070 553 l 2
 1070 563 1059 568 1037 568 c 2
 987 568 l 2
 971.666666667 568 960 563.333333333 952 554 c 0
 941.333333333 541.333333333 936 528 936 514 c 2
 936 369 l 2
 936 310.333333333 912.333333333 258.666666667 865 214 c 1
 865 144 l 2
 865 138 868 131.666666667 874 125 c 128
 880 118.333333333 887 115 895 115 c 2
 951 115 l 1
 951 2 l 1
 853 3 l 2
 819 3 790 13.8333333333 766 35.5 c 128
 742 57.1666666667 730 84.3333333333 730 117 c 2
 730 173 l 1
 627 173 l 2
 595.666666667 173 570 183 550 203 c 1
 528.666666667 220.333333333 518 242.333333333 518 269 c 2
 518 340 l 2
 518 349.333333333 519.333333333 358.333333333 522 367 c 128
 524.666666667 375.666666667 533 385 547 395 c 0
 566.333333333 409 590 416 618 416 c 2
 741 416 l 2
 756.333333333 416 771.333333333 410 786 398 c 1
 801 384 l 1
 801 533 l 2
 801 543 796.166666667 551 786.5 557 c 128
 776.833333333 563 763.333333333 566 746 566 c 2
 683 566 l 2
 664.333333333 566 649 562 637 554 c 1
 627.666666667 546 623 536.666666667 623 526 c 2
 623 449 l 1
 488 449 l 1
 488 521 l 2
 488 526.333333333 486.166666667 532 482.5 538 c 128
 478.833333333 544 474.666666667 549.333333333 470 554 c 0
 460.666666667 562 446 566 426 566 c 2
 333 566 l 2
 325.666666667 566 320 564.166666667 316 560.5 c 128
 312 556.833333333 310 549.666666667 310 539 c 2
 310 474 l 2
 310 464.666666667 312.666666667 457.333333333 318 452 c 1
 320.666666667 446.666666667 325.666666667 444 333 444 c 2
 380 444 l 1
 380 317 l 1
 289 318 l 2
 256.333333333 318 228.833333333 330.5 206.5 355.5 c 128
 184.166666667 380.5 173 408.666666667 173 440 c 2
 173 566 l 2
 173 583.333333333 175.5 598 180.5 610 c 128
 185.5 622 194.333333333 634 207 646 c 1
 228.333333333 668 255.333333333 679 288 679 c 2
 454 679 l 2
 481.333333333 679 505.666666667 672 527 658 c 1
 539.666666667 652 549 642.666666667 555 630 c 1
 560.333333333 638 564.833333333 644 568.5 648 c 128
 572.166666667 652 577.666666667 655.333333333 585 658 c 1
 603.666666667 672 625.333333333 679 650 679 c 2
 785 679 l 2
 807 679 825.666666667 673 841 661 c 1
 851.666666667 655 861 645.666666667 869 633 c 1
 877 647 887 656.666666667 899 662 c 1
 914.333333333 674 935 680 961 680 c 2
 1095 680 l 2
 1124.33333333 680 1149.5 669.5 1170.5 648.5 c 128
 1191.5 627.5 1202 602.333333333 1202 573 c 1
 1206 482 l 1
719 293 m 1
 711 297 l 2
 705 300.333333333 695 302 681 302 c 2
 638 302 l 2
 635.333333333 302 632.666666667 303.666666667 630 307 c 1
 630 293 l 1
 635 289 l 1
 639.666666667 284.333333333 644.666666667 282 650 282 c 2
 694 282 l 2
 697.333333333 282 705.666666667 285.666666667 719 293 c 1
EndSplineSet
LCarets2: 1 0
EndChar

StartChar: nya.sub
Encoding: 158 -1 158
Width: 235
Flags: HW
AnchorPoint: "Sub" -432 -12 mark 0
AnchorPoint: "Sub" 366 -404 basemark 0
LayerCount: 2
Fore
SplineSet
441 -218 m 2
 441 -230.666666667 439.166666667 -241.166666667 435.5 -249.5 c 128
 431.833333333 -257.833333333 425 -268.333333333 415 -281 c 1
 396.333333333 -300.333333333 375.333333333 -310 352 -310 c 2
 280 -310 l 1
 280 -219 l 1
 319 -219 l 1
 324 -218 l 1
 324.666666667 -216.666666667 325.666666667 -215.166666667 327 -213.5 c 128
 328.333333333 -211.833333333 329 -209.333333333 329 -206 c 2
 329 -131 l 2
 329 -112.333333333 325.333333333 -103 318 -103 c 2
 242 -103 l 2
 234 -103 227.5 -106 222.5 -112 c 128
 217.5 -118 212.666666667 -127 208 -139 c 1
 209 -257 l 2
 209 -285.666666667 194.833333333 -309.666666667 166.5 -329 c 128
 138.166666667 -348.333333333 109.666666667 -358 81 -358 c 1
 81 -354.666666667 82.3333333333 -353.333333333 85 -354 c 1
 94 -361 l 1
 145 -361 l 1
 145 -439 l 1
 68 -439 l 2
 58 -439 48 -437.166666667 38 -433.5 c 128
 28 -429.833333333 18.1666666667 -424.833333333 8.5 -418.5 c 128
 -1.16666666667 -412.166666667 -7.83333333333 -405.333333333 -11.5 -398 c 128
 -15.1666666667 -390.666666667 -17 -381.666666667 -17 -371 c 2
 -17 -360 l 1
 -54 -360 l 2
 -73.3333333333 -360 -91 -354.5 -107 -343.5 c 128
 -123 -332.5 -131 -319.333333333 -131 -304 c 2
 -131 -250 l 2
 -131 -231.333333333 -124.666666667 -216 -112 -204 c 1
 -97.3333333333 -194.666666667 -79.3333333333 -190 -58 -190 c 2
 6 -190 l 2
 26 -190 43.3333333333 -194.666666667 58 -204 c 1
 72.6666666667 -216.666666667 80 -231.666666667 80 -249 c 2
 80 -269 l 1
 92 -266.333333333 98 -262 98 -256 c 2
 98 -119 l 2
 98 -117.666666667 95 -115 89 -111 c 128
 83 -107 72.3333333333 -105 57 -105 c 2
 -48 -105 l 2
 -61.3333333333 -105 -72 -107.666666667 -80 -113 c 1
 -89.3333333333 -121 -94 -129.666666667 -94 -139 c 2
 -94 -167 l 1
 -204 -167 l 1
 -204 -132 l 2
 -204 -122.666666667 -207.833333333 -115.666666667 -215.5 -111 c 128
 -223.166666667 -106.333333333 -233 -104 -245 -104 c 2
 -300 -104 l 1
 -311 -108 l 1
 -313.666666667 -112.666666667 -315 -118.666666667 -315 -126 c 2
 -315 -201 l 1
 -311.666666667 -204.333333333 -307.666666667 -206.833333333 -303 -208.5 c 128
 -298.333333333 -210.166666667 -294.166666667 -211.333333333 -290.5 -212 c 128
 -286.833333333 -212.666666667 -278.666666667 -213 -266 -213 c 1
 -266 -311 l 1
 -282.666666667 -311 -298 -309.666666667 -312 -307 c 128
 -326 -304.333333333 -339 -300.666666667 -351 -296 c 1
 -365.666666667 -288.666666667 -376.166666667 -282.666666667 -382.5 -278 c 128
 -388.833333333 -273.333333333 -396.666666667 -266 -406 -256 c 1
 -412 -246.666666667 -416.5 -237.666666667 -419.5 -229 c 128
 -422.5 -220.333333333 -424 -211 -424 -201 c 2
 -424 -103 l 2
 -424 -77 -416.333333333 -55 -401 -37 c 1
 -381.666666667 -20.3333333333 -360 -12 -336 -12 c 2
 -224 -12 l 2
 -202.666666667 -12 -182.666666667 -18 -164 -30 c 1
 -156 -37.3333333333 -149.333333333 -45.6666666667 -144 -55 c 1
 -138 -44.3333333333 -131.333333333 -36 -124 -30 c 1
 -108.666666667 -19.3333333333 -94 -14 -80 -14 c 2
 96 -14 l 2
 131.333333333 -14 157.333333333 -23.3333333333 174 -42 c 1
 194 -23.3333333333 215 -14 237 -14 c 2
 353 -14 l 2
 377.666666667 -14 398.5 -22.1666666667 415.5 -38.5 c 128
 432.5 -54.8333333333 441 -75 441 -99 c 2
 441 -218 l 2
-19 -274 m 1
 -19 -262 l 1
 -24.3333333333 -260.666666667 -27.6666666667 -260 -29 -260 c 256
 -31 -260 -31 -260 -36 -260 c 1
 -36 -283 l 1
 -30 -284.333333333 -25.6666666667 -285 -23 -285 c 1
 -19.6666666667 -279.666666667 -18.3333333333 -276 -19 -274 c 1
EndSplineSet
LCarets2: 1 0
EndChar

StartChar: tta
Encoding: 159 3231 159
Width: 921
Flags: HW
LayerCount: 2
Fore
SplineSet
967 117 m 2
 967 85.6666666667 956.333333333 58.3333333333 935 35 c 128
 913.666666667 11.6666666667 887.333333333 0 856 0 c 2
 681 0 l 2
 656.333333333 0 632.333333333 8.66666666667 609 26 c 1
 596.333333333 34 586 45.6666666667 578 61 c 1
 570 44.3333333333 560.666666667 32.3333333333 550 25 c 1
 530 7.66666666667 506.333333333 -1 479 -1 c 2
 331 -1 l 2
 295 -1 263 11 235 35 c 128
 207 59 193 88.6666666667 193 124 c 2
 193 381 l 2
 193 409 213.333333333 435.333333333 254 460 c 1
 213.333333333 486.666666667 193 511.666666667 193 535 c 2
 193 654 l 2
 193 689.333333333 205.333333333 718.333333333 230 741 c 128
 254.666666667 763.666666667 285.666666667 775 323 775 c 2
 442 775 l 1
 442 661 l 1
 351 661 l 2
 343 661 337.833333333 659.833333333 335.5 657.5 c 128
 333.166666667 655.166666667 331.666666667 652.5 331 649.5 c 128
 330.333333333 646.5 330 644.666666667 330 644 c 2
 330 553 l 2
 330 547 332.666666667 539 338 529 c 1
 344 521 351.666666667 515.333333333 361 512 c 1
 528 512 l 1
 527 351 l 2
 527 318.333333333 515.666666667 289.5 493 264.5 c 128
 470.333333333 239.5 442.333333333 227 409 227 c 2
 337 227 l 1
 337 338 l 1
 381 338 l 1
 389 342 l 1
 394 356 l 1
 394 398 l 1
 348 398 l 1
 335.333333333 392 329 383 329 371 c 2
 329 153 l 2
 329 142.333333333 332.166666667 133.333333333 338.5 126 c 128
 344.833333333 118.666666667 351.666666667 115 359 115 c 2
 451 115 l 2
 467.666666667 115 483 120.333333333 497 131 c 0
 504.333333333 136.333333333 509.5 142.166666667 512.5 148.5 c 128
 515.5 154.833333333 517.666666667 162.666666667 519 172 c 1
 519 233 l 1
 656 233 l 1
 655 172 l 1
 659.666666667 153.333333333 667.333333333 139.333333333 678 130 c 0
 684 125.333333333 689.666666667 121.5 695 118.5 c 128
 700.333333333 115.5 706 114 712 114 c 2
 819 114 l 2
 823.666666667 114 829.166666667 118.5 835.5 127.5 c 128
 841.833333333 136.5 845 146 845 156 c 2
 845 316 l 2
 845 324 842.333333333 330.5 837 335.5 c 128
 831.666666667 340.5 824 343 814 343 c 2
 718 343 l 1
 718 456 l 1
 785 456 l 2
 797 456 807 461 815 471 c 1
 825.666666667 479 831 488 831 498 c 2
 831 626 l 2
 831 629.333333333 828 635 822 643 c 1
 818.666666667 644.333333333 811 645 799 645 c 2
 718 645 l 1
 718 758 l 1
 856 758 l 2
 870.666666667 758 883.833333333 755.666666667 895.5 751 c 128
 907.166666667 746.333333333 917 738 925 726 c 1
 943.666666667 702 953 674.333333333 953 643 c 2
 953 480 l 2
 953 458.666666667 946 441 932 427 c 1
 910 408 l 1
 922 404.666666667 932.666666667 397.666666667 942 387 c 0
 958.666666667 367.666666667 967 346 967 322 c 2
 967 117 l 2
EndSplineSet
LCarets2: 1 0
EndChar

StartChar: tta.base
Encoding: 160 -1 160
Width: 768
Flags: HW
LayerCount: 2
Fore
SplineSet
981 121 m 1
 981 87.6666666667 970.333333333 59.8333333333 949 37.5 c 128
 927.666666667 15.1666666667 903.333333333 4 876 4 c 1
 872 0 l 1
 682 2 l 2
 658 2 634.333333333 9.66666666667 611 25 c 1
 600.333333333 33 590.333333333 44.6666666667 581 60 c 1
 573.666666667 45.3333333333 564 33.6666666667 552 25 c 0
 528 8.33333333333 504 0 480 0 c 2
 329 1 l 2
 291 1 258 10.6666666667 230 30 c 1
 204 52 191 78.6666666667 191 110 c 2
 191 380 l 2
 191 406.666666667 211.333333333 433.333333333 252 460 c 1
 242.666666667 465.333333333 236.166666667 469.5 232.5 472.5 c 128
 228.833333333 475.5 222 482.333333333 212 493 c 1
 198 512.333333333 191 529.333333333 191 544 c 2
 191 663 l 2
 191 698.333333333 202.166666667 727.333333333 224.5 750 c 128
 246.833333333 772.666666667 274.666666667 784 308 784 c 2
 439 784 l 1
 439 671 l 1
 351 671 l 2
 339 671 329.333333333 668 322 662 c 1
 314.666666667 657.333333333 311 650 311 640 c 2
 311 551 l 2
 311 543.666666667 315.333333333 535.833333333 324 527.5 c 128
 332.666666667 519.166666667 344 513.666666667 358 511 c 1
 525 511 l 1
 525 350 l 2
 525 314.666666667 512 286 486 264 c 1
 461.333333333 238 431 225 395 225 c 2
 334 225 l 1
 334 338 l 1
 381 338 l 1
 385 343 l 1
 389.666666667 352.333333333 392 360.666666667 392 368 c 2
 392 397 l 1
 346 397 l 1
 333.333333333 391 327 381.666666667 327 369 c 2
 327 151 l 2
 327 140.333333333 330.5 131.5 337.5 124.5 c 128
 344.5 117.5 351 114 357 114 c 2
 452 114 l 2
 467.333333333 114 481.333333333 119.333333333 494 130 c 0
 501.333333333 135.333333333 506.833333333 142.166666667 510.5 150.5 c 128
 514.166666667 158.833333333 516.333333333 165.333333333 517 170 c 1
 517 259 l 1
 654 259 l 1
 653 170 l 1
 656.333333333 158 658.833333333 150 660.5 146 c 128
 662.166666667 142 667 137 675 131 c 0
 687.666666667 120.333333333 699.333333333 115 710 115 c 2
 805 115 l 2
 810.333333333 115 819.333333333 118 832 124 c 1
 839.333333333 136 843 147 843 157 c 2
 843 318 l 2
 843 325.333333333 838.833333333 331.666666667 830.5 337 c 128
 822.166666667 342.333333333 810.666666667 345 796 345 c 2
 715 345 l 1
 715 458 l 1
 782 458 l 2
 794.666666667 458 804.666666667 463 812 473 c 1
 822.666666667 485.666666667 828 499 828 513 c 2
 828 535 l 2
 828 543 824.333333333 551.666666667 817 561 c 1
 807.666666667 566.333333333 798.333333333 569 789 569 c 2
 686 569 l 1
 686 681 l 1
 835 681 l 2
 852.333333333 681 868.333333333 677.166666667 883 669.5 c 128
 897.666666667 661.833333333 911 651 923 637 c 1
 949 612.333333333 962 580.666666667 962 542 c 2
 962 484 l 2
 962 476 960.166666667 467.5 956.5 458.5 c 128
 952.833333333 449.5 947.833333333 440.833333333 941.5 432.5 c 128
 935.166666667 424.166666667 928.333333333 418.333333333 921 415 c 1
 933 409.666666667 943 402.333333333 951 393 c 0
 967.666666667 374.333333333 976 352 976 326 c 2
 981 121 l 1
EndSplineSet
EndChar

StartChar: tta.imathra
Encoding: 161 -1 161
Width: 939
Flags: HW
LayerCount: 2
Fore
SplineSet
981 121 m 2
 981 87.6666666667 970.333333333 59.8333333333 949 37.5 c 128
 927.666666667 15.1666666667 903.333333333 4 876 4 c 1
 872 0 l 1
 682 2 l 2
 657.333333333 2 635 9.66666666667 615 25 c 0
 602.333333333 35 592.333333333 47.3333333333 585 62 c 1
 575.666666667 46.6666666667 565 34.6666666667 553 26 c 0
 531 9.33333333333 506.333333333 1 479 1 c 2
 331 1 l 2
 295.666666667 1 262.666666667 14 232 40 c 0
 219.333333333 50.6666666667 209.833333333 64 203.5 80 c 128
 197.166666667 96 194 112.333333333 194 129 c 2
 194 380 l 2
 194 406.666666667 214.333333333 433.333333333 255 460 c 1
 247 464.666666667 239.333333333 471.166666667 232 479.5 c 128
 224.666666667 487.833333333 219.333333333 493.666666667 216 497 c 1
 202 516.333333333 195 534.333333333 195 551 c 2
 195 653 l 2
 195 687 206 715 228 737 c 1
 248 760.333333333 274.666666667 772 308 772 c 2
 442 772 l 1
 442 659 l 1
 337 659 l 2
 331 659 325.666666667 656.666666667 321 652 c 128
 316.333333333 647.333333333 314 640 314 630 c 2
 314 565 l 2
 314 551 318.666666667 539.333333333 328 530 c 1
 336 519.333333333 347 512.333333333 361 509 c 1
 528 509 l 1
 527 348 l 2
 527 312.666666667 514.666666667 284 490 262 c 0
 477.333333333 251.333333333 462.833333333 242.333333333 446.5 235 c 128
 430.166666667 227.666666667 413.333333333 224 396 224 c 2
 338 224 l 1
 338 337 l 1
 366 337 l 1
 376 338.333333333 382.333333333 341.333333333 385 346 c 1
 392.333333333 353.333333333 396 360.666666667 396 368 c 2
 396 396 l 1
 361 396 l 2
 351.666666667 396 344.333333333 393.666666667 339 389 c 1
 333.666666667 381.666666667 331 375.333333333 331 370 c 2
 331 158 l 2
 331 145.333333333 334.833333333 135.166666667 342.5 127.5 c 128
 350.166666667 119.833333333 358 116 366 116 c 2
 468 116 l 2
 477.333333333 116 489 121 503 131 c 1
 507.666666667 136.333333333 511.5 142.5 514.5 149.5 c 128
 517.5 156.5 519.666666667 164 521 172 c 1
 521 261 l 1
 658 261 l 1
 657 172 l 1
 660.333333333 160 662.833333333 152 664.5 148 c 128
 666.166666667 144 671 139 679 133 c 0
 691.666666667 122.333333333 703.333333333 117 714 117 c 2
 792 117 l 2
 806 117 819 121 831 129 c 1
 841.666666667 139 847 149 847 159 c 2
 847 320 l 2
 847 323.333333333 846.166666667 326.833333333 844.5 330.5 c 128
 842.833333333 334.166666667 840.5 337.833333333 837.5 341.5 c 128
 834.5 345.166666667 827.666666667 347 817 347 c 2
 721 347 l 1
 721 460 l 1
 788 460 l 2
 793.333333333 460 798.333333333 460.833333333 803 462.5 c 128
 807.666666667 464.166666667 813 467.333333333 819 472 c 0
 829 479.333333333 834 487.666666667 834 497 c 2
 834 657 l 2
 834 663 832.333333333 667.666666667 829 671 c 1
 822 675 l 1
 765 675 l 2
 761.666666667 675 759.333333333 674.666666667 758 674 c 128
 756.666666667 673.333333333 756 669 756 661 c 1
 757.333333333 655.666666667 759.333333333 651.833333333 762 649.5 c 128
 764.666666667 647.166666667 766.666666667 645.833333333 768 645.5 c 128
 769.333333333 645.166666667 770.333333333 645 771 645 c 2
 827 645 l 1
 827 532 l 1
 720 533 l 2
 692 533 668.333333333 541.833333333 649 559.5 c 128
 629.666666667 577.166666667 620 597.666666667 620 621 c 2
 620 696 l 2
 620 722 630.666666667 744.666666667 652 764 c 1
 676.666666667 781.333333333 702.333333333 790 729 790 c 2
 849 790 l 2
 880.333333333 790 907.666666667 780.666666667 931 762 c 1
 955.666666667 740 968 715 968 687 c 2
 968 528 l 2
 968 514 966 500.333333333 962 487 c 128
 958 473.666666667 952.166666667 459.833333333 944.5 445.5 c 128
 936.833333333 431.166666667 932.333333333 423.333333333 931 422 c 128
 929.666666667 420.666666667 926 418.333333333 920 415 c 1
 935.333333333 409 947 401.333333333 955 392 c 1
 973.666666667 374.666666667 983 352.666666667 983 326 c 2
 981 121 l 2
EndSplineSet
LCarets2: 1 0
EndChar

StartChar: tta.sub
Encoding: 162 -1 162
Width: 169
Flags: HW
AnchorPoint: "Sub" -326 169 mark 0
AnchorPoint: "Sub" 342 -399 basemark 0
LayerCount: 2
Fore
SplineSet
352 -330 m 2
 352 -340 349.5 -349.666666667 344.5 -359 c 128
 339.5 -368.333333333 332.333333333 -377 323 -385 c 1
 315 -390.333333333 305.666666667 -395 295 -399 c 128
 284.333333333 -403 273.666666667 -405 263 -405 c 2
 114 -405 l 2
 90.6666666667 -405 69.3333333333 -398.666666667 50 -386 c 0
 44.6666666667 -382.666666667 40.8333333333 -379.833333333 38.5 -377.5 c 128
 36.1666666667 -375.166666667 32.3333333333 -370 27 -362 c 1
 22.3333333333 -368 17.5 -373 12.5 -377 c 128
 7.5 -381 3.66666666667 -384.333333333 1 -387 c 1
 -18.3333333333 -399 -37.3333333333 -405 -56 -405 c 2
 -189 -405 l 1
 -204 -405 l 2
 -239.333333333 -405 -270.5 -395.5 -297.5 -376.5 c 128
 -324.5 -357.5 -338 -331.333333333 -338 -298 c 2
 -338 -194 l 2
 -338 -163.333333333 -327 -139 -305 -121 c 1
 -294.333333333 -110.333333333 -282.5 -102.5 -269.5 -97.5 c 128
 -256.5 -92.5 -241.333333333 -90 -224 -90 c 2
 -47 -90 l 1
 -47 -267 l 1
 -167 -267 l 1
 -167 -202 l 1
 -186 -202 l 2
 -196.666666667 -202 -204 -203.333333333 -208 -206 c 128
 -212 -208.666666667 -214.666666667 -212.333333333 -216 -217 c 1
 -216 -274 l 2
 -216 -286 -212 -294.333333333 -204 -299 c 1
 -194 -307 -183 -311 -171 -311 c 2
 -80 -311 l 2
 -70 -311 -59.6666666667 -306.333333333 -49 -297 c 1
 -39 -291.666666667 -34 -282 -34 -268 c 2
 -34 -221 l 1
 89 -221 l 1
 89 -268 l 2
 89 -282 93.1666666667 -292.666666667 101.5 -300 c 128
 109.833333333 -307.333333333 118.333333333 -311 127 -311 c 2
 199 -311 l 2
 206.333333333 -311 214.666666667 -308.333333333 224 -303 c 0
 225.333333333 -302.333333333 226.666666667 -301.333333333 228 -300 c 1
 228 -298.666666667 228.333333333 -297.666666667 229 -297 c 1
 229 -198 l 1
 223.666666667 -192.666666667 219.666666667 -189.666666667 217 -189 c 0
 206.333333333 -185.666666667 192.333333333 -184 175 -184 c 2
 103 -184 l 1
 103 -86 l 1
 170 -86 l 2
 182.666666667 -86 195 -81 207 -71 c 1
 217 -65.6666666667 222 -56 222 -42 c 2
 222 67 l 2
 222 76.3333333333 219.333333333 83.6666666667 214 89 c 2
 189 111 l 2
 183 116.333333333 177.666666667 123 173 131 c 0
 173 131.666666667 172.333333333 132.333333333 171 133 c 1
 173.666666667 139 176.333333333 142.666666667 179 144 c 1
 226 208 l 1
 242.666666667 198.666666667 259 187.5 275 174.5 c 128
 291 161.5 303.666666667 150.333333333 313 141 c 1
 333 117 343 92 343 66 c 2
 343 -39 l 2
 343 -65 336.666666667 -87.3333333333 324 -106 c 0
 316 -118.666666667 307.333333333 -128 298 -134 c 1
 310.666666667 -139.333333333 321 -147 329 -157 c 0
 334.333333333 -164.333333333 339.333333333 -172.833333333 344 -182.5 c 128
 348.666666667 -192.166666667 351 -201.666666667 351 -211 c 2
 352 -330 l 2
EndSplineSet
LCarets2: 1 0
EndChar

StartChar: ttha.base
Encoding: 164 -1 164
Width: 645
Flags: HW
LayerCount: 2
Fore
SplineSet
833 163 m 2
 833 118.333333333 814.333333333 80 777 48 c 128
 739.666666667 16 697 0 649 0 c 2
 372 1 l 2
 318 1 272.666666667 16.5 236 47.5 c 128
 199.333333333 78.5 181 116.666666667 181 162 c 2
 181 421 l 2
 181 477 203.333333333 526 248 568 c 1
 197 568 l 1
 197 681 l 1
 688 681 l 1
 688 663 l 1
 732.666666667 635 768.166666667 599.333333333 794.5 556 c 128
 820.833333333 512.666666667 834 467.666666667 834 421 c 2
 833 163 l 2
697 168 m 1
 697 421 l 2
 697 447 688.333333333 474 671 502 c 1
 657 526.666666667 635.666666667 548.333333333 607 567 c 1
 410 567 l 1
 397.333333333 561 385.5 553 374.5 543 c 128
 363.5 533 353.333333333 521.666666667 344 509 c 1
 327.333333333 481 319 452.333333333 319 423 c 2
 318 172 l 1
 318.666666667 158 325 144.666666667 337 132 c 1
 349.666666667 121.333333333 363.666666667 116 379 116 c 2
 637 116 l 2
 652.333333333 116 666 121 678 131 c 1
 690 145 696.333333333 157.333333333 697 168 c 1
580 266 m 1
 443 266 l 1
 443 392 l 1
 580 392 l 1
 580 266 l 1
EndSplineSet
EndChar

StartChar: ttha.imathra
Encoding: 165 -1 165
Width: 789
Flags: HW
LayerCount: 2
Fore
SplineSet
835 170 m 2
 835 139.333333333 829.666666667 112 819 88 c 0
 811.666666667 71.3333333333 804.833333333 58.6666666667 798.5 50 c 128
 792.166666667 41.3333333333 783.666666667 33.3333333333 773 26 c 1
 751.666666667 9.33333333333 731 1 711 1 c 2
 367 2 l 2
 333 2 303.666666667 9.66666666667 279 25 c 1
 251 38.3333333333 228.666666667 58.3333333333 212 85 c 0
 204.666666667 95.6666666667 199.166666667 108.666666667 195.5 124 c 128
 191.833333333 139.333333333 190 154 190 168 c 2
 190 476 l 2
 190 526 214 572.333333333 262 615 c 1
 249.333333333 623 240.666666667 628.666666667 236 632 c 0
 228 638 220.333333333 645.666666667 213 655 c 0
 198.333333333 674.333333333 191 696 191 720 c 2
 191 778 l 2
 191 812 205.166666667 839.833333333 233.5 861.5 c 128
 261.833333333 883.166666667 295 894 333 894 c 2
 433 894 l 2
 481 894 520.666666667 878.333333333 552 847 c 1
 643.333333333 775.666666667 713.833333333 708.166666667 763.5 644.5 c 128
 813.166666667 580.833333333 838 526.333333333 838 481 c 2
 835 170 l 2
564 682 m 1
 496 745 l 1
 472 769 449.333333333 781 428 781 c 2
 357 781 l 2
 347 781 339.5 778.666666667 334.5 774 c 128
 329.5 769.333333333 327 764.666666667 327 760 c 2
 327 720 l 2
 327 702.666666667 338 690.333333333 360 683 c 1
 358 662 l 1
 356 683 l 1
 564 682 l 1
704 165 m 1
 704 473 l 2
 704 503.666666667 689.333333333 535.333333333 660 568 c 1
 389 568 l 1
 346.333333333 527.333333333 325 496 325 474 c 2
 325 180 l 2
 325 162.666666667 331.166666667 146.666666667 343.5 132 c 128
 355.833333333 117.333333333 369.666666667 110 385 110 c 2
 649 110 l 2
 663.666666667 110 675.666666667 115.333333333 685 126 c 0
 690.333333333 131.333333333 694.5 137.5 697.5 144.5 c 128
 700.5 151.5 702.666666667 158.333333333 704 165 c 1
585 262 m 1
 448 262 l 1
 448 388 l 1
 585 388 l 1
 585 262 l 1
EndSplineSet
LCarets2: 1 0
EndChar

StartChar: ttha.sub
Encoding: 166 -1 166
Width: 103
Flags: HW
AnchorPoint: "Sub" -230 -35 mark 0
AnchorPoint: "Sub" 211 -402 basemark 0
LayerCount: 2
Fore
SplineSet
224 -282 m 2
 224 -317.333333333 210.333333333 -347.333333333 183 -372 c 128
 155.666666667 -396.666666667 123 -409 85 -409 c 2
 -59 -409 l 2
 -101.666666667 -409 -137.833333333 -396.666666667 -167.5 -372 c 128
 -197.166666667 -347.333333333 -212 -319.333333333 -212 -288 c 2
 -212 -158 l 2
 -212 -122 -196.5 -91.5 -165.5 -66.5 c 128
 -134.5 -41.5 -97.3333333333 -29 -54 -29 c 2
 55 -29 l 2
 102.333333333 -29 142.333333333 -41.3333333333 175 -66 c 1
 207.666666667 -92.6666666667 224 -126 224 -166 c 2
 224 -282 l 2
103 -261 m 1
 103 -179 l 2
 103 -164.333333333 95.6666666667 -152 81 -142 c 1
 69 -131.333333333 51.3333333333 -126 28 -126 c 2
 -37 -126 l 2
 -51 -126 -63.3333333333 -131.5 -74 -142.5 c 128
 -84.6666666667 -153.5 -90 -166 -90 -180 c 2
 -90 -262 l 2
 -90 -274.666666667 -83.8333333333 -286 -71.5 -296 c 128
 -59.1666666667 -306 -45.3333333333 -311 -30 -311 c 2
 40 -311 l 2
 56.6666666667 -311 71.1666666667 -306 83.5 -296 c 128
 95.8333333333 -286 102.333333333 -274.333333333 103 -261 c 1
72 -269 m 1
 -63 -269 l 1
 -63 -170 l 1
 72 -170 l 1
 72 -269 l 1
EndSplineSet
LCarets2: 1 0
EndChar

StartChar: dda.base
Encoding: 168 -1 168
Width: 786
Flags: HW
LayerCount: 2
Fore
SplineSet
971 263 m 1
 970 125 l 2
 970 91.6666666667 956.666666667 63 930 39 c 1
 905.333333333 14.3333333333 875.333333333 2 840 2 c 2
 674 2 l 2
 648 2 624.333333333 9.66666666667 603 25 c 0
 591 33 581.333333333 44 574 58 c 1
 566.666666667 44 557.666666667 33 547 25 c 0
 528.333333333 9.66666666667 507 2 483 2 c 2
 327 3 l 2
 293.666666667 3 262.666666667 13.6666666667 234 35 c 1
 208 57 195 84.3333333333 195 117 c 2
 195 443 l 2
 195 472.333333333 204.333333333 499 223 523 c 1
 228.333333333 531 234.5 538.833333333 241.5 546.5 c 128
 248.5 554.166666667 256.666666667 561 266 567 c 1
 195 567 l 1
 195 680 l 1
 833 680 l 1
 833 659 l 1
 857.666666667 651 880 637.666666667 900 619 c 1
 922 601.666666667 940 579.666666667 954 553 c 1
 958.666666667 541 963.333333333 527.833333333 968 513.5 c 128
 972.666666667 499.166666667 975 486.666666667 975 476 c 2
 974 432 l 1
 974 400.666666667 961.666666667 374 937 352 c 1
 963 330.666666667 974.333333333 301 971 263 c 1
831 356 m 1
 821.666666667 376 807 386 787 386 c 2
 759 386 l 2
 755.666666667 386 753.166666667 385.833333333 751.5 385.5 c 128
 749.833333333 385.166666667 748.666666667 384.666666667 748 384 c 2
 747 345 l 1
 747.666666667 342.333333333 755.333333333 341 770 341 c 2
 788 341 l 2
 798 341 812.333333333 346 831 356 c 1
840 160 m 1
 840 249 l 1
 838 247 l 2
 830.666666667 239.666666667 824.333333333 235.333333333 819 234 c 2
 808 230 l 1
 731 230 l 2
 704.333333333 230 680.333333333 238.333333333 659 255 c 128
 637.666666667 271.666666667 627 291.666666667 627 315 c 2
 627 399 l 2
 627 423 635.333333333 443.833333333 652 461.5 c 128
 668.666666667 479.166666667 690 488 716 488 c 2
 788 488 l 2
 807.333333333 488 824.666666667 482.666666667 840 472 c 1
 840 480 l 2
 840 498.666666667 830.666666667 517.333333333 812 536 c 128
 793.333333333 554.666666667 767.333333333 567.666666667 734 575 c 1
 450 574 l 1
 414.666666667 559.333333333 386.166666667 540.166666667 364.5 516.5 c 128
 342.833333333 492.833333333 332 467.666666667 332 441 c 2
 332 163 l 2
 332 151 336.166666667 140.833333333 344.5 132.5 c 128
 352.833333333 124.166666667 364 120 378 120 c 2
 457 120 l 2
 469.666666667 120 482 125 494 135 c 1
 504.666666667 147.666666667 510 159 510 169 c 2
 510 211 l 1
 644 211 l 1
 644 162 l 2
 644 152.666666667 648.166666667 143.166666667 656.5 133.5 c 128
 664.833333333 123.833333333 676 119 690 119 c 2
 790 119 l 2
 800 119 810.333333333 123.333333333 821 132 c 128
 831.666666667 140.666666667 838 150 840 160 c 1
EndSplineSet
EndChar

StartChar: dda.imathra
Encoding: 169 -1 169
Width: 944
Flags: HW
LayerCount: 2
Fore
SplineSet
984 112 m 1
 984 80.6666666667 973.333333333 54.3333333333 952 33 c 1
 932.666666667 11.6666666667 908.666666667 1 880 1 c 2
 648 2 l 2
 628.666666667 2 610.666666667 8.33333333333 594 21 c 1
 584.666666667 29 578.333333333 36 575 42 c 1
 571.666666667 34.6666666667 564.666666667 27.3333333333 554 20 c 0
 534.666666667 6 515.333333333 -1 496 -1 c 2
 333 -1 l 2
 295.666666667 -1 263.333333333 11.5 236 36.5 c 128
 208.666666667 61.5 195 92.6666666667 195 130 c 2
 195 445 l 2
 195 473 204.333333333 500.333333333 223 527 c 1
 236.333333333 550.333333333 256 571.333333333 282 590 c 1
 258.666666667 604 239.333333333 620.666666667 224 640 c 0
 204.666666667 664.666666667 195 690 195 716 c 2
 195 777 l 2
 195 810.333333333 207 838.666666667 231 862 c 1
 254.333333333 886 283.666666667 898 319 898 c 2
 583 898 l 2
 606.333333333 898 634.333333333 889.666666667 667 873 c 1
 697.666666667 855.666666667 729.666666667 830.333333333 763 797 c 0
 800.333333333 759.666666667 833.333333333 721 862 681 c 1
 946 570.333333333 988 492.666666667 988 448 c 2
 988 418 l 2
 988 398 977.333333333 378 956 358 c 1
 977.333333333 336.666666667 988 312.666666667 988 286 c 2
 984 112 l 1
708 691 m 1
 700 700.333333333 687.166666667 712.666666667 669.5 728 c 128
 651.833333333 743.333333333 638.333333333 754 629 760 c 0
 599.666666667 779.333333333 576.666666667 789 560 789 c 2
 374 789 l 2
 358.666666667 789 347.333333333 787.166666667 340 783.5 c 128
 332.666666667 779.833333333 329 775 329 769 c 2
 329 734 l 2
 329 716.666666667 337.666666667 702.666666667 355 692 c 1
 708 691 l 1
854 361 m 1
 837.333333333 381 826 391 820 391 c 2
 769 391 l 2
 763 391 760 388.333333333 760 383 c 2
 760 348 l 2
 760 337.333333333 763 332 769 332 c 2
 808 332 l 2
 829.333333333 332 844.666666667 341.666666667 854 361 c 1
855 148 m 1
 855 253 l 1
 835 237.666666667 821.333333333 230 814 230 c 2
 743 230 l 2
 715 230 691.666666667 239.666666667 673 259 c 1
 653 275.666666667 643 296.333333333 643 321 c 2
 643 399 l 2
 643 425.666666667 650.666666667 446.666666667 666 462 c 1
 680.666666667 479.333333333 701.333333333 488 728 488 c 2
 813 488 l 2
 818.333333333 488 826 485 836 479 c 1
 854 461 l 1
 848.666666667 494.333333333 827.333333333 532 790 574 c 1
 450 574 l 1
 412.666666667 550.666666667 383.5 527.166666667 362.5 503.5 c 128
 341.5 479.833333333 331 459.333333333 331 442 c 2
 331 169 l 2
 331 154.333333333 335.166666667 142.166666667 343.5 132.5 c 128
 351.833333333 122.833333333 363.333333333 118 378 118 c 2
 463 116 l 2
 475 116 485.833333333 119.833333333 495.5 127.5 c 128
 505.166666667 135.166666667 510 141.666666667 510 147 c 2
 510 235 l 1
 644 235 l 1
 644 154 l 2
 644 142 647.666666667 134 655 130 c 1
 665.666666667 120.666666667 674 116 680 116 c 2
 831 116 l 2
 837 116 840.666666667 118.666666667 842 124 c 1
 846.666666667 130 851 138 855 148 c 1
EndSplineSet
LCarets2: 1 0
EndChar

